{
	"asset":{
		"generator":"Khronos glTF Blender I/O v4.1.62",
		"version":"2.0"
	},
	"scene":0,
	"scenes":[
		{
			"name":"Scene",
			"nodes":[
				0
			]
		}
	],
	"nodes":[
		{
			"mesh":0,
			"name":"door",
			"scale":[
				0.06147339940071106,
				1,
				0.6290357112884521
			],
			"translation":[
				1.139055848121643,
				0,
				-36.298919677734375
			]
		}
	],
	"meshes":[
		{
			"name":"Plane.002",
			"primitives":[
				{
					"attributes":{
						"POSITION":0,
						"NORMAL":1,
						"TEXCOORD_0":2
					},
					"indices":3
				}
			]
		}
	],
	"accessors":[
		{
			"bufferView":0,
			"componentType":5126,
			"count":148,
			"max":[
				12.842620849609375,
				2.9932427406311035,
				1.0323833227157593
			],
			"min":[
				-1.50979483127594,
				0,
				-1.0366365909576416
			],
			"type":"VEC3"
		},
		{
			"bufferView":1,
			"componentType":5126,
			"count":148,
			"type":"VEC3"
		},
		{
			"bufferView":2,
			"componentType":5126,
			"count":148,
			"type":"VEC2"
		},
		{
			"bufferView":3,
			"componentType":5123,
			"count":300,
			"type":"SCALAR"
		}
	],
	"bufferViews":[
		{
			"buffer":0,
			"byteLength":1776,
			"byteOffset":0,
			"target":34962
		},
		{
			"buffer":0,
			"byteLength":1776,
			"byteOffset":1776,
			"target":34962
		},
		{
			"buffer":0,
			"byteLength":1184,
			"byteOffset":3552,
			"target":34962
		},
		{
			"buffer":0,
			"byteLength":600,
			"byteOffset":4736,
			"target":34963
		}
	],
	"buffers":[
		{
			"byteLength":5336,
			"uri":"door.bin"
		}
	]
}
