{
	"asset":{
		"generator":"Khronos glTF Blender I/O v4.1.62",
		"version":"2.0"
	},
	"extensionsUsed":[
		"KHR_materials_specular"
	],
	"scene":0,
	"scenes":[
		{
			"name":"Scene",
			"nodes":[
				0,
				1,
				2,
				3,
				4,
				5,
				6,
				7
			]
		}
	],
	"nodes":[
		{
			"mesh":0,
			"name":"Plane",
			"scale":[
				0.33336496353149414,
				0.33336496353149414,
				0.33336496353149414
			],
			"translation":[
				-11.888565063476562,
				0,
				-8.406473159790039
			]
		},
		{
			"mesh":1,
			"name":"Floor",
			"scale":[
				40.3632698059082,
				40.3632698059082,
				40.3632698059082
			],
			"translation":[
				1.5563287734985352,
				0.06360483169555664,
				1.2438783645629883
			]
		},
		{
			"name":"Empty",
			"scale":[
				29,
				1,
				29
			],
			"translation":[
				14.819999694824219,
				-1.809999942779541,
				17.190000534057617
			]
		},
		{
			"mesh":2,
			"name":"Desk",
			"rotation":[
				-0.0036197551526129246,
				-0.3906921446323395,
				0.0036853139754384756,
				0.9205068945884705
			],
			"scale":[
				-0.26295462250709534,
				-0.24121738970279694,
				-0.23397161066532135
			],
			"translation":[
				-9.78600788116455,
				0.0380081981420517,
				9.701579093933105
			]
		},
		{
			"mesh":3,
			"name":"Textured_mesh_1",
			"rotation":[
				0.7071068286895752,
				0,
				0,
				0.7071068286895752
			],
			"scale":[
				0.3465805649757385,
				0.3465805649757385,
				0.3465805649757385
			],
			"translation":[
				-8.733315467834473,
				-0.5103817582130432,
				11.295059204101562
			]
		},
		{
			"mesh":4,
			"name":"Plane.001",
			"scale":[
				0.33336496353149414,
				0.33336496353149414,
				0.33336496353149414
			],
			"translation":[
				-11.888565063476562,
				0,
				-8.406473159790039
			]
		},
		{
			"mesh":5,
			"name":"Plane.002",
			"scale":[
				0.33336496353149414,
				0.33336496353149414,
				0.33336496353149414
			],
			"translation":[
				-11.888565063476562,
				0,
				-8.406473159790039
			]
		},
		{
			"mesh":6,
			"name":"Plane.003",
			"scale":[
				0.33336496353149414,
				0.33336496353149414,
				0.33336496353149414
			],
			"translation":[
				-11.888565063476562,
				0,
				-8.406473159790039
			]
		}
	],
	"materials":[
		{
			"doubleSided":true,
			"name":"Material",
			"pbrMetallicRoughness":{
				"baseColorFactor":[
					0.559644877910614,
					0.18661245703697205,
					0.03542151302099228,
					1
				],
				"metallicFactor":0,
				"roughnessFactor":0.5
			}
		},
		{
			"doubleSided":true,
			"name":"Material.001",
			"pbrMetallicRoughness":{
				"baseColorFactor":[
					0.8002588152885437,
					0.4638265073299408,
					0.5376759171485901,
					1
				],
				"metallicFactor":0.6545455455780029,
				"roughnessFactor":0.30909091234207153
			}
		},
		{
			"doubleSided":true,
			"extensions":{
				"KHR_materials_specular":{
					"specularFactor":0
				}
			},
			"name":"Textured_mesh_1_tex0.003",
			"pbrMetallicRoughness":{
				"baseColorTexture":{
					"index":0
				},
				"metallicFactor":0
			}
		},
		{
			"doubleSided":true,
			"extensions":{
				"KHR_materials_specular":{
					"specularFactor":0
				}
			},
			"name":"Textured_mesh_1_tex1.003",
			"pbrMetallicRoughness":{
				"baseColorTexture":{
					"index":1
				},
				"metallicFactor":0
			}
		},
		{
			"doubleSided":true,
			"extensions":{
				"KHR_materials_specular":{
					"specularFactor":0
				}
			},
			"name":"Textured_mesh_1_tex2.003",
			"pbrMetallicRoughness":{
				"baseColorTexture":{
					"index":2
				},
				"metallicFactor":0
			}
		},
		{
			"doubleSided":true,
			"name":"Material.002",
			"pbrMetallicRoughness":{
				"baseColorTexture":{
					"index":3
				},
				"metallicFactor":0,
				"roughnessFactor":0.5
			}
		},
		{
			"doubleSided":true,
			"name":"Material.003",
			"pbrMetallicRoughness":{
				"baseColorTexture":{
					"index":4
				},
				"metallicFactor":0,
				"roughnessFactor":0.5
			}
		},
		{
			"doubleSided":true,
			"name":"Material.004",
			"pbrMetallicRoughness":{
				"baseColorTexture":{
					"index":5
				},
				"metallicFactor":0,
				"roughnessFactor":0.5
			}
		}
	],
	"meshes":[
		{
			"name":"Plane.003",
			"primitives":[
				{
					"attributes":{
						"POSITION":0,
						"NORMAL":1,
						"TEXCOORD_0":2
					},
					"indices":3,
					"material":0
				}
			]
		},
		{
			"name":"Plane",
			"primitives":[
				{
					"attributes":{
						"POSITION":4,
						"NORMAL":5,
						"TEXCOORD_0":6
					},
					"indices":7
				}
			]
		},
		{
			"name":"Plane.001",
			"primitives":[
				{
					"attributes":{
						"POSITION":8,
						"NORMAL":9,
						"TEXCOORD_0":10
					},
					"indices":11,
					"material":1
				}
			]
		},
		{
			"name":"Textured_mesh_1",
			"primitives":[
				{
					"attributes":{
						"POSITION":12,
						"NORMAL":13,
						"TEXCOORD_0":14
					},
					"indices":15,
					"material":2
				},
				{
					"attributes":{
						"POSITION":16,
						"NORMAL":17,
						"TEXCOORD_0":18
					},
					"indices":19,
					"material":3
				},
				{
					"attributes":{
						"POSITION":20,
						"NORMAL":21,
						"TEXCOORD_0":22
					},
					"indices":23,
					"material":4
				}
			]
		},
		{
			"name":"Plane.002",
			"primitives":[
				{
					"attributes":{
						"POSITION":24,
						"NORMAL":25,
						"TEXCOORD_0":26
					},
					"indices":27,
					"material":5
				}
			]
		},
		{
			"name":"Plane.004",
			"primitives":[
				{
					"attributes":{
						"POSITION":28,
						"NORMAL":29,
						"TEXCOORD_0":30
					},
					"indices":31,
					"material":6
				}
			]
		},
		{
			"name":"Plane.005",
			"primitives":[
				{
					"attributes":{
						"POSITION":32,
						"NORMAL":33,
						"TEXCOORD_0":34
					},
					"indices":31,
					"material":7
				}
			]
		}
	],
	"textures":[
		{
			"sampler":0,
			"source":0
		},
		{
			"sampler":0,
			"source":1
		},
		{
			"sampler":0,
			"source":2
		},
		{
			"sampler":0,
			"source":3
		},
		{
			"sampler":0,
			"source":4
		},
		{
			"sampler":0,
			"source":5
		}
	],
	"images":[
		{
			"mimeType":"image/jpeg",
			"name":"Textured_mesh_1_tex0",
			"uri":"Textured_mesh_1_tex0.jpg"
		},
		{
			"mimeType":"image/jpeg",
			"name":"Textured_mesh_1_tex1",
			"uri":"Textured_mesh_1_tex1.jpg"
		},
		{
			"mimeType":"image/jpeg",
			"name":"Textured_mesh_1_tex2",
			"uri":"Textured_mesh_1_tex2.jpg"
		},
		{
			"mimeType":"image/jpeg",
			"name":"_DSC5464",
			"uri":"_DSC5464.jpg"
		},
		{
			"mimeType":"image/jpeg",
			"name":"_DSC5595",
			"uri":"_DSC5595.jpg"
		},
		{
			"mimeType":"image/jpeg",
			"name":"_DSC5594",
			"uri":"_DSC5594.jpg"
		}
	],
	"accessors":[
		{
			"bufferView":0,
			"componentType":5126,
			"count":834,
			"max":[
				84.52599334716797,
				9.151859283447266,
				103.02295684814453
			],
			"min":[
				-65.20246887207031,
				0,
				-1.1483354568481445
			],
			"type":"VEC3"
		},
		{
			"bufferView":1,
			"componentType":5126,
			"count":834,
			"type":"VEC3"
		},
		{
			"bufferView":2,
			"componentType":5126,
			"count":834,
			"type":"VEC2"
		},
		{
			"bufferView":3,
			"componentType":5123,
			"count":1788,
			"type":"SCALAR"
		},
		{
			"bufferView":4,
			"componentType":5126,
			"count":96,
			"max":[
				0.42041653394699097,
				0,
				0.6303991079330444
			],
			"min":[
				-1,
				-0.01346246711909771,
				-0.7691735625267029
			],
			"type":"VEC3"
		},
		{
			"bufferView":5,
			"componentType":5126,
			"count":96,
			"type":"VEC3"
		},
		{
			"bufferView":6,
			"componentType":5126,
			"count":96,
			"type":"VEC2"
		},
		{
			"bufferView":7,
			"componentType":5123,
			"count":180,
			"type":"SCALAR"
		},
		{
			"bufferView":8,
			"componentType":5126,
			"count":70,
			"max":[
				1,
				0.1505863517522812,
				8.123617172241211
			],
			"min":[
				-16.469688415527344,
				-4.245866298675537,
				-1.0129921436309814
			],
			"type":"VEC3"
		},
		{
			"bufferView":9,
			"componentType":5126,
			"count":70,
			"type":"VEC3"
		},
		{
			"bufferView":10,
			"componentType":5126,
			"count":70,
			"type":"VEC2"
		},
		{
			"bufferView":11,
			"componentType":5123,
			"count":126,
			"type":"SCALAR"
		},
		{
			"bufferView":12,
			"componentType":5126,
			"count":101049,
			"max":[
				1.3069690465927124,
				2.0394508838653564,
				-1.5074189901351929
			],
			"min":[
				-2.512437105178833,
				-1.4640610218048096,
				-4.847329139709473
			],
			"type":"VEC3"
		},
		{
			"bufferView":13,
			"componentType":5126,
			"count":101049,
			"type":"VEC3"
		},
		{
			"bufferView":14,
			"componentType":5126,
			"count":101049,
			"type":"VEC2"
		},
		{
			"bufferView":15,
			"componentType":5125,
			"count":125151,
			"type":"SCALAR"
		},
		{
			"bufferView":16,
			"componentType":5126,
			"count":130585,
			"max":[
				1.1331490278244019,
				1.9748059511184692,
				-1.5013569593429565
			],
			"min":[
				-2.5853168964385986,
				-1.456341028213501,
				-4.849612236022949
			],
			"type":"VEC3"
		},
		{
			"bufferView":17,
			"componentType":5126,
			"count":130585,
			"type":"VEC3"
		},
		{
			"bufferView":18,
			"componentType":5126,
			"count":130585,
			"type":"VEC2"
		},
		{
			"bufferView":19,
			"componentType":5125,
			"count":153900,
			"type":"SCALAR"
		},
		{
			"bufferView":20,
			"componentType":5126,
			"count":90075,
			"max":[
				1.5044660568237305,
				2.117249011993408,
				-1.4921339750289917
			],
			"min":[
				-2.3850839138031006,
				-1.2893749475479126,
				-4.849612236022949
			],
			"type":"VEC3"
		},
		{
			"bufferView":21,
			"componentType":5126,
			"count":90075,
			"type":"VEC3"
		},
		{
			"bufferView":22,
			"componentType":5126,
			"count":90075,
			"type":"VEC2"
		},
		{
			"bufferView":23,
			"componentType":5125,
			"count":96324,
			"type":"SCALAR"
		},
		{
			"bufferView":24,
			"componentType":5126,
			"count":4,
			"max":[
				78.98631286621094,
				9.151859283447266,
				103.02295684814453
			],
			"min":[
				60.01173400878906,
				0,
				102.71392822265625
			],
			"type":"VEC3"
		},
		{
			"bufferView":25,
			"componentType":5126,
			"count":4,
			"type":"VEC3"
		},
		{
			"bufferView":26,
			"componentType":5126,
			"count":4,
			"type":"VEC2"
		},
		{
			"bufferView":27,
			"componentType":5123,
			"count":6,
			"type":"SCALAR"
		},
		{
			"bufferView":28,
			"componentType":5126,
			"count":4,
			"max":[
				83.8392562866211,
				9.151859283447266,
				32.1618766784668
			],
			"min":[
				83.7677230834961,
				0,
				21.25275421142578
			],
			"type":"VEC3"
		},
		{
			"bufferView":29,
			"componentType":5126,
			"count":4,
			"type":"VEC3"
		},
		{
			"bufferView":30,
			"componentType":5126,
			"count":4,
			"type":"VEC2"
		},
		{
			"bufferView":31,
			"componentType":5123,
			"count":6,
			"type":"SCALAR"
		},
		{
			"bufferView":32,
			"componentType":5126,
			"count":4,
			"max":[
				-64.27537536621094,
				9.151859283447266,
				34.344573974609375
			],
			"min":[
				-64.3268814086914,
				0,
				25.743179321289062
			],
			"type":"VEC3"
		},
		{
			"bufferView":33,
			"componentType":5126,
			"count":4,
			"type":"VEC3"
		},
		{
			"bufferView":34,
			"componentType":5126,
			"count":4,
			"type":"VEC2"
		}
	],
	"bufferViews":[
		{
			"buffer":0,
			"byteLength":10008,
			"byteOffset":0,
			"target":34962
		},
		{
			"buffer":0,
			"byteLength":10008,
			"byteOffset":10008,
			"target":34962
		},
		{
			"buffer":0,
			"byteLength":6672,
			"byteOffset":20016,
			"target":34962
		},
		{
			"buffer":0,
			"byteLength":3576,
			"byteOffset":26688,
			"target":34963
		},
		{
			"buffer":0,
			"byteLength":1152,
			"byteOffset":30264,
			"target":34962
		},
		{
			"buffer":0,
			"byteLength":1152,
			"byteOffset":31416,
			"target":34962
		},
		{
			"buffer":0,
			"byteLength":768,
			"byteOffset":32568,
			"target":34962
		},
		{
			"buffer":0,
			"byteLength":360,
			"byteOffset":33336,
			"target":34963
		},
		{
			"buffer":0,
			"byteLength":840,
			"byteOffset":33696,
			"target":34962
		},
		{
			"buffer":0,
			"byteLength":840,
			"byteOffset":34536,
			"target":34962
		},
		{
			"buffer":0,
			"byteLength":560,
			"byteOffset":35376,
			"target":34962
		},
		{
			"buffer":0,
			"byteLength":252,
			"byteOffset":35936,
			"target":34963
		},
		{
			"buffer":0,
			"byteLength":1212588,
			"byteOffset":36188,
			"target":34962
		},
		{
			"buffer":0,
			"byteLength":1212588,
			"byteOffset":1248776,
			"target":34962
		},
		{
			"buffer":0,
			"byteLength":808392,
			"byteOffset":2461364,
			"target":34962
		},
		{
			"buffer":0,
			"byteLength":500604,
			"byteOffset":3269756,
			"target":34963
		},
		{
			"buffer":0,
			"byteLength":1567020,
			"byteOffset":3770360,
			"target":34962
		},
		{
			"buffer":0,
			"byteLength":1567020,
			"byteOffset":5337380,
			"target":34962
		},
		{
			"buffer":0,
			"byteLength":1044680,
			"byteOffset":6904400,
			"target":34962
		},
		{
			"buffer":0,
			"byteLength":615600,
			"byteOffset":7949080,
			"target":34963
		},
		{
			"buffer":0,
			"byteLength":1080900,
			"byteOffset":8564680,
			"target":34962
		},
		{
			"buffer":0,
			"byteLength":1080900,
			"byteOffset":9645580,
			"target":34962
		},
		{
			"buffer":0,
			"byteLength":720600,
			"byteOffset":10726480,
			"target":34962
		},
		{
			"buffer":0,
			"byteLength":385296,
			"byteOffset":11447080,
			"target":34963
		},
		{
			"buffer":0,
			"byteLength":48,
			"byteOffset":11832376,
			"target":34962
		},
		{
			"buffer":0,
			"byteLength":48,
			"byteOffset":11832424,
			"target":34962
		},
		{
			"buffer":0,
			"byteLength":32,
			"byteOffset":11832472,
			"target":34962
		},
		{
			"buffer":0,
			"byteLength":12,
			"byteOffset":11832504,
			"target":34963
		},
		{
			"buffer":0,
			"byteLength":48,
			"byteOffset":11832516,
			"target":34962
		},
		{
			"buffer":0,
			"byteLength":48,
			"byteOffset":11832564,
			"target":34962
		},
		{
			"buffer":0,
			"byteLength":32,
			"byteOffset":11832612,
			"target":34962
		},
		{
			"buffer":0,
			"byteLength":12,
			"byteOffset":11832644,
			"target":34963
		},
		{
			"buffer":0,
			"byteLength":48,
			"byteOffset":11832656,
			"target":34962
		},
		{
			"buffer":0,
			"byteLength":48,
			"byteOffset":11832704,
			"target":34962
		},
		{
			"buffer":0,
			"byteLength":32,
			"byteOffset":11832752,
			"target":34962
		}
	],
	"samplers":[
		{
			"magFilter":9729,
			"minFilter":9987
		}
	],
	"buffers":[
		{
			"byteLength":11832784,
			"uri":"2thfloor.bin"
		}
	]
}
