{
	"asset":{
		"generator":"Khronos glTF Blender I/O v4.1.62",
		"version":"2.0"
	},
	"scene":0,
	"scenes":[
		{
			"name":"Scene",
			"nodes":[
				0,
				1,
				2
			]
		}
	],
	"nodes":[
		{
			"name":"Empty",
			"scale":[
				29,
				1,
				29
			],
			"translation":[
				0.09354715049266815,
				0,
				0.013607025146484375
			]
		},
		{
			"mesh":0,
			"name":"walls",
			"rotation":[
				0,
				-0.35528531670570374,
				0,
				0.9347578883171082
			],
			"scale":[
				0.12702609598636627,
				1,
				0.3333333730697632
			],
			"translation":[
				10.099617004394531,
				0,
				-1.2086628675460815
			]
		},
		{
			"mesh":1,
			"name":"floor",
			"translation":[
				-6.0465497970581055,
				0,
				-2.5206711292266846
			]
		}
	],
	"meshes":[
		{
			"name":"Plane.001",
			"primitives":[
				{
					"attributes":{
						"POSITION":0,
						"NORMAL":1,
						"TEXCOORD_0":2
					},
					"indices":3
				}
			]
		},
		{
			"name":"Plane",
			"primitives":[
				{
					"attributes":{
						"POSITION":4,
						"NORMAL":5,
						"TEXCOORD_0":6
					},
					"indices":7
				}
			]
		}
	],
	"accessors":[
		{
			"bufferView":0,
			"componentType":5126,
			"count":4344,
			"max":[
				306.9310302734375,
				3.000678539276123,
				159.543212890625
			],
			"min":[
				-334.6828308105469,
				-0.02615942433476448,
				-122.17350769042969
			],
			"type":"VEC3"
		},
		{
			"bufferView":1,
			"componentType":5126,
			"count":4344,
			"type":"VEC3"
		},
		{
			"bufferView":2,
			"componentType":5126,
			"count":4344,
			"type":"VEC2"
		},
		{
			"bufferView":3,
			"componentType":5123,
			"count":8826,
			"type":"SCALAR"
		},
		{
			"bufferView":4,
			"componentType":5126,
			"count":15,
			"max":[
				40.850929260253906,
				0,
				58.67453384399414
			],
			"min":[
				-6.003756523132324,
				0,
				-54.07678985595703
			],
			"type":"VEC3"
		},
		{
			"bufferView":5,
			"componentType":5126,
			"count":15,
			"type":"VEC3"
		},
		{
			"bufferView":6,
			"componentType":5126,
			"count":15,
			"type":"VEC2"
		},
		{
			"bufferView":7,
			"componentType":5123,
			"count":39,
			"type":"SCALAR"
		}
	],
	"bufferViews":[
		{
			"buffer":0,
			"byteLength":52128,
			"byteOffset":0,
			"target":34962
		},
		{
			"buffer":0,
			"byteLength":52128,
			"byteOffset":52128,
			"target":34962
		},
		{
			"buffer":0,
			"byteLength":34752,
			"byteOffset":104256,
			"target":34962
		},
		{
			"buffer":0,
			"byteLength":17652,
			"byteOffset":139008,
			"target":34963
		},
		{
			"buffer":0,
			"byteLength":180,
			"byteOffset":156660,
			"target":34962
		},
		{
			"buffer":0,
			"byteLength":180,
			"byteOffset":156840,
			"target":34962
		},
		{
			"buffer":0,
			"byteLength":120,
			"byteOffset":157020,
			"target":34962
		},
		{
			"buffer":0,
			"byteLength":78,
			"byteOffset":157140,
			"target":34963
		}
	],
	"buffers":[
		{
			"byteLength":157220,
			"uri":"7thfloor.bin"
		}
	]
}
