{
	"asset":{
		"generator":"Khronos glTF Blender I/O v4.1.62",
		"version":"2.0"
	},
	"scene":0,
	"scenes":[
		{
			"name":"Scene",
			"nodes":[
				0,
				1,
				2
			]
		}
	],
	"nodes":[
		{
			"name":"Empty",
			"scale":[
				29,
				1,
				29
			],
			"translation":[
				0.09354715049266815,
				0,
				0.013607025146484375
			]
		},
		{
			"mesh":0,
			"name":"walls",
			"rotation":[
				0,
				-0.35528531670570374,
				0,
				0.9347578883171082
			],
			"scale":[
				0.12702609598636627,
				1,
				0.3333333730697632
			],
			"translation":[
				10.099617004394531,
				0,
				-1.2086628675460815
			]
		},
		{
			"mesh":1,
			"name":"floor",
			"translation":[
				-6.0465497970581055,
				0,
				-2.5206711292266846
			]
		}
	],
	"meshes":[
		{
			"name":"Plane.001",
			"primitives":[
				{
					"attributes":{
						"POSITION":0,
						"NORMAL":1,
						"TEXCOORD_0":2
					},
					"indices":3
				}
			]
		},
		{
			"name":"Plane",
			"primitives":[
				{
					"attributes":{
						"POSITION":4,
						"NORMAL":5,
						"TEXCOORD_0":6
					},
					"indices":7
				}
			]
		}
	],
	"accessors":[
		{
			"bufferView":0,
			"componentType":5126,
			"count":4154,
			"max":[
				306.9310302734375,
				2.9999969005584717,
				159.543212890625
			],
			"min":[
				-334.6828308105469,
				-0.02615942433476448,
				-122.17350769042969
			],
			"type":"VEC3"
		},
		{
			"bufferView":1,
			"componentType":5126,
			"count":4154,
			"type":"VEC3"
		},
		{
			"bufferView":2,
			"componentType":5126,
			"count":4154,
			"type":"VEC2"
		},
		{
			"bufferView":3,
			"componentType":5123,
			"count":8502,
			"type":"SCALAR"
		},
		{
			"bufferView":4,
			"componentType":5126,
			"count":4,
			"max":[
				41.066673278808594,
				0,
				58.67453384399414
			],
			"min":[
				-8.614099502563477,
				0,
				-58.67453384399414
			],
			"type":"VEC3"
		},
		{
			"bufferView":5,
			"componentType":5126,
			"count":4,
			"type":"VEC3"
		},
		{
			"bufferView":6,
			"componentType":5126,
			"count":4,
			"type":"VEC2"
		},
		{
			"bufferView":7,
			"componentType":5123,
			"count":6,
			"type":"SCALAR"
		}
	],
	"bufferViews":[
		{
			"buffer":0,
			"byteLength":49848,
			"byteOffset":0,
			"target":34962
		},
		{
			"buffer":0,
			"byteLength":49848,
			"byteOffset":49848,
			"target":34962
		},
		{
			"buffer":0,
			"byteLength":33232,
			"byteOffset":99696,
			"target":34962
		},
		{
			"buffer":0,
			"byteLength":17004,
			"byteOffset":132928,
			"target":34963
		},
		{
			"buffer":0,
			"byteLength":48,
			"byteOffset":149932,
			"target":34962
		},
		{
			"buffer":0,
			"byteLength":48,
			"byteOffset":149980,
			"target":34962
		},
		{
			"buffer":0,
			"byteLength":32,
			"byteOffset":150028,
			"target":34962
		},
		{
			"buffer":0,
			"byteLength":12,
			"byteOffset":150060,
			"target":34963
		}
	],
	"buffers":[
		{
			"byteLength":150072,
			"uri":"7thfloor.bin"
		}
	]
}
