{
	"asset":{
		"generator":"Khronos glTF Blender I/O v4.1.62",
		"version":"2.0"
	},
	"extensionsUsed":[
		"KHR_materials_specular"
	],
	"scene":0,
	"scenes":[
		{
			"name":"Scene",
			"nodes":[
				0,
				1,
				2,
				3,
				4,
				5
			]
		}
	],
	"nodes":[
		{
			"mesh":0,
			"name":"walls",
			"rotation":[
				0,
				-0.35528531670570374,
				0,
				0.9347578883171082
			],
			"scale":[
				0.12702609598636627,
				1,
				0.3333333730697632
			],
			"translation":[
				10.099617004394531,
				0,
				-1.2086628675460815
			]
		},
		{
			"mesh":1,
			"name":"floor",
			"translation":[
				-6.0465497970581055,
				0,
				-2.5206711292266846
			]
		},
		{
			"mesh":2,
			"name":"Cylinder",
			"rotation":[
				0.7071068286895752,
				0,
				0,
				0.7071068286895752
			]
		},
		{
			"mesh":3,
			"name":"Textured_mesh_1",
			"rotation":[
				0.7071068286895752,
				0,
				0,
				0.7071068286895752
			],
			"scale":[
				0.04000576585531235,
				0.03992661088705063,
				0.0399559922516346
			],
			"translation":[
				-5.861966609954834,
				0,
				-4.860676288604736
			]
		},
		{
			"mesh":4,
			"name":"Textured_mesh_1.001",
			"rotation":[
				0.7071068286895752,
				0,
				0,
				0.7071068286895752
			],
			"scale":[
				0.04000576585531235,
				0.03992661088705063,
				0.0399559922516346
			],
			"translation":[
				-5.861966609954834,
				0,
				-5.742551326751709
			]
		},
		{
			"mesh":5,
			"name":"Textured_mesh_1.002",
			"rotation":[
				0.7071068286895752,
				0,
				0,
				0.7071068286895752
			],
			"scale":[
				0.04000576585531235,
				0.03992661088705063,
				0.0399559922516346
			],
			"translation":[
				-5.861966609954834,
				0,
				-6.736748695373535
			]
		}
	],
	"materials":[
		{
			"doubleSided":true,
			"name":"Material.001",
			"pbrMetallicRoughness":{
				"baseColorFactor":[
					0.5356410145759583,
					0.5123980045318604,
					0.4462519884109497,
					1
				],
				"metallicFactor":0.6545450091362,
				"roughnessFactor":0.1772727370262146
			}
		},
		{
			"doubleSided":true,
			"extensions":{
				"KHR_materials_specular":{
					"specularFactor":0
				}
			},
			"name":"Textured_mesh_1_tex0.003",
			"pbrMetallicRoughness":{
				"baseColorTexture":{
					"index":0
				},
				"metallicFactor":0
			}
		},
		{
			"doubleSided":true,
			"extensions":{
				"KHR_materials_specular":{
					"specularFactor":0
				}
			},
			"name":"Textured_mesh_1_tex1.003",
			"pbrMetallicRoughness":{
				"baseColorTexture":{
					"index":1
				},
				"metallicFactor":0
			}
		},
		{
			"doubleSided":true,
			"extensions":{
				"KHR_materials_specular":{
					"specularFactor":0
				}
			},
			"name":"Textured_mesh_1_tex2.003",
			"pbrMetallicRoughness":{
				"baseColorTexture":{
					"index":2
				},
				"metallicFactor":0
			}
		},
		{
			"doubleSided":true,
			"extensions":{
				"KHR_materials_specular":{
					"specularFactor":0
				}
			},
			"name":"Textured_mesh_1_tex0.001",
			"pbrMetallicRoughness":{
				"baseColorTexture":{
					"index":3
				},
				"metallicFactor":0
			}
		},
		{
			"doubleSided":true,
			"extensions":{
				"KHR_materials_specular":{
					"specularFactor":0
				}
			},
			"name":"Textured_mesh_1_tex1.001",
			"pbrMetallicRoughness":{
				"baseColorTexture":{
					"index":4
				},
				"metallicFactor":0
			}
		},
		{
			"doubleSided":true,
			"extensions":{
				"KHR_materials_specular":{
					"specularFactor":0
				}
			},
			"name":"Textured_mesh_1_tex2.001",
			"pbrMetallicRoughness":{
				"baseColorTexture":{
					"index":5
				},
				"metallicFactor":0
			}
		},
		{
			"doubleSided":true,
			"extensions":{
				"KHR_materials_specular":{
					"specularFactor":0
				}
			},
			"name":"Textured_mesh_1_tex0.002",
			"pbrMetallicRoughness":{
				"baseColorTexture":{
					"index":6
				},
				"metallicFactor":0
			}
		},
		{
			"doubleSided":true,
			"extensions":{
				"KHR_materials_specular":{
					"specularFactor":0
				}
			},
			"name":"Textured_mesh_1_tex1.002",
			"pbrMetallicRoughness":{
				"baseColorTexture":{
					"index":7
				},
				"metallicFactor":0
			}
		},
		{
			"doubleSided":true,
			"extensions":{
				"KHR_materials_specular":{
					"specularFactor":0
				}
			},
			"name":"Textured_mesh_1_tex2.002",
			"pbrMetallicRoughness":{
				"baseColorTexture":{
					"index":8
				},
				"metallicFactor":0
			}
		}
	],
	"meshes":[
		{
			"name":"Plane.001",
			"primitives":[
				{
					"attributes":{
						"POSITION":0,
						"NORMAL":1,
						"TEXCOORD_0":2
					},
					"indices":3
				}
			]
		},
		{
			"name":"Plane",
			"primitives":[
				{
					"attributes":{
						"POSITION":4,
						"NORMAL":5,
						"TEXCOORD_0":6
					},
					"indices":7
				}
			]
		},
		{
			"name":"Cylinder",
			"primitives":[
				{
					"attributes":{
						"POSITION":8,
						"NORMAL":9,
						"TEXCOORD_0":10
					},
					"indices":11,
					"material":0
				}
			]
		},
		{
			"name":"Textured_mesh_1",
			"primitives":[
				{
					"attributes":{
						"POSITION":12,
						"NORMAL":13,
						"TEXCOORD_0":14
					},
					"indices":15,
					"material":1
				},
				{
					"attributes":{
						"POSITION":16,
						"NORMAL":17,
						"TEXCOORD_0":18
					},
					"indices":19,
					"material":2
				},
				{
					"attributes":{
						"POSITION":20,
						"NORMAL":21,
						"TEXCOORD_0":22
					},
					"indices":23,
					"material":3
				}
			]
		},
		{
			"name":"Textured_mesh_1.001",
			"primitives":[
				{
					"attributes":{
						"POSITION":24,
						"NORMAL":25,
						"TEXCOORD_0":26
					},
					"indices":15,
					"material":4
				},
				{
					"attributes":{
						"POSITION":27,
						"NORMAL":28,
						"TEXCOORD_0":29
					},
					"indices":19,
					"material":5
				},
				{
					"attributes":{
						"POSITION":30,
						"NORMAL":31,
						"TEXCOORD_0":32
					},
					"indices":23,
					"material":6
				}
			]
		},
		{
			"name":"Textured_mesh_1.002",
			"primitives":[
				{
					"attributes":{
						"POSITION":33,
						"NORMAL":34,
						"TEXCOORD_0":35
					},
					"indices":15,
					"material":7
				},
				{
					"attributes":{
						"POSITION":36,
						"NORMAL":37,
						"TEXCOORD_0":38
					},
					"indices":19,
					"material":8
				},
				{
					"attributes":{
						"POSITION":39,
						"NORMAL":40,
						"TEXCOORD_0":41
					},
					"indices":23,
					"material":9
				}
			]
		}
	],
	"textures":[
		{
			"sampler":0,
			"source":0
		},
		{
			"sampler":0,
			"source":1
		},
		{
			"sampler":0,
			"source":2
		},
		{
			"sampler":0,
			"source":0
		},
		{
			"sampler":0,
			"source":1
		},
		{
			"sampler":0,
			"source":2
		},
		{
			"sampler":0,
			"source":0
		},
		{
			"sampler":0,
			"source":1
		},
		{
			"sampler":0,
			"source":2
		}
	],
	"images":[
		{
			"mimeType":"image/jpeg",
			"name":"Textured_mesh_1_tex0",
			"uri":"Textured_mesh_1_tex0.jpg"
		},
		{
			"mimeType":"image/jpeg",
			"name":"Textured_mesh_1_tex1",
			"uri":"Textured_mesh_1_tex1.jpg"
		},
		{
			"mimeType":"image/jpeg",
			"name":"Textured_mesh_1_tex2",
			"uri":"Textured_mesh_1_tex2.jpg"
		}
	],
	"accessors":[
		{
			"bufferView":0,
			"componentType":5126,
			"count":4344,
			"max":[
				306.9310302734375,
				3.000678539276123,
				159.543212890625
			],
			"min":[
				-334.6828308105469,
				-0.02615942433476448,
				-122.17350769042969
			],
			"type":"VEC3"
		},
		{
			"bufferView":1,
			"componentType":5126,
			"count":4344,
			"type":"VEC3"
		},
		{
			"bufferView":2,
			"componentType":5126,
			"count":4344,
			"type":"VEC2"
		},
		{
			"bufferView":3,
			"componentType":5123,
			"count":8826,
			"type":"SCALAR"
		},
		{
			"bufferView":4,
			"componentType":5126,
			"count":15,
			"max":[
				40.850929260253906,
				0,
				58.67453384399414
			],
			"min":[
				-6.003756523132324,
				0,
				-54.07678985595703
			],
			"type":"VEC3"
		},
		{
			"bufferView":5,
			"componentType":5126,
			"count":15,
			"type":"VEC3"
		},
		{
			"bufferView":6,
			"componentType":5126,
			"count":15,
			"type":"VEC2"
		},
		{
			"bufferView":7,
			"componentType":5123,
			"count":39,
			"type":"SCALAR"
		},
		{
			"bufferView":8,
			"componentType":5126,
			"count":192,
			"max":[
				-4.04105281829834,
				3.491391897201538,
				-15.920292854309082
			],
			"min":[
				-4.801064968109131,
				2.791378974914551,
				-18.700305938720703
			],
			"type":"VEC3"
		},
		{
			"bufferView":9,
			"componentType":5126,
			"count":192,
			"type":"VEC3"
		},
		{
			"bufferView":10,
			"componentType":5126,
			"count":192,
			"type":"VEC2"
		},
		{
			"bufferView":11,
			"componentType":5123,
			"count":372,
			"type":"SCALAR"
		},
		{
			"bufferView":12,
			"componentType":5126,
			"count":100263,
			"max":[
				7.597227096557617,
				12.553709983825684,
				-10.023137092590332
			],
			"min":[
				-15.206530570983887,
				-9.938321113586426,
				-32.23088836669922
			],
			"type":"VEC3"
		},
		{
			"bufferView":13,
			"componentType":5126,
			"count":100263,
			"type":"VEC3"
		},
		{
			"bufferView":14,
			"componentType":5126,
			"count":100263,
			"type":"VEC2"
		},
		{
			"bufferView":15,
			"componentType":5125,
			"count":124659,
			"type":"SCALAR"
		},
		{
			"bufferView":16,
			"componentType":5126,
			"count":130156,
			"max":[
				7.534543991088867,
				12.294328689575195,
				-9.982834815979004
			],
			"min":[
				-14.895739555358887,
				-9.532356262207031,
				-32.246070861816406
			],
			"type":"VEC3"
		},
		{
			"bufferView":17,
			"componentType":5126,
			"count":130156,
			"type":"VEC3"
		},
		{
			"bufferView":18,
			"componentType":5126,
			"count":130156,
			"type":"VEC2"
		},
		{
			"bufferView":19,
			"componentType":5125,
			"count":153954,
			"type":"SCALAR"
		},
		{
			"bufferView":20,
			"componentType":5126,
			"count":89695,
			"max":[
				7.130575180053711,
				12.495573043823242,
				-9.921509742736816
			],
			"min":[
				-15.487929344177246,
				-9.020837783813477,
				-32.246070861816406
			],
			"type":"VEC3"
		},
		{
			"bufferView":21,
			"componentType":5126,
			"count":89695,
			"type":"VEC3"
		},
		{
			"bufferView":22,
			"componentType":5126,
			"count":89695,
			"type":"VEC2"
		},
		{
			"bufferView":23,
			"componentType":5125,
			"count":96243,
			"type":"SCALAR"
		},
		{
			"bufferView":24,
			"componentType":5126,
			"count":100263,
			"max":[
				7.597227096557617,
				12.553709983825684,
				-10.023137092590332
			],
			"min":[
				-15.206530570983887,
				-9.938321113586426,
				-32.23088836669922
			],
			"type":"VEC3"
		},
		{
			"bufferView":25,
			"componentType":5126,
			"count":100263,
			"type":"VEC3"
		},
		{
			"bufferView":26,
			"componentType":5126,
			"count":100263,
			"type":"VEC2"
		},
		{
			"bufferView":27,
			"componentType":5126,
			"count":130156,
			"max":[
				7.534543991088867,
				12.294328689575195,
				-9.982834815979004
			],
			"min":[
				-14.895739555358887,
				-9.532356262207031,
				-32.246070861816406
			],
			"type":"VEC3"
		},
		{
			"bufferView":28,
			"componentType":5126,
			"count":130156,
			"type":"VEC3"
		},
		{
			"bufferView":29,
			"componentType":5126,
			"count":130156,
			"type":"VEC2"
		},
		{
			"bufferView":30,
			"componentType":5126,
			"count":89695,
			"max":[
				7.130575180053711,
				12.495573043823242,
				-9.921509742736816
			],
			"min":[
				-15.487929344177246,
				-9.020837783813477,
				-32.246070861816406
			],
			"type":"VEC3"
		},
		{
			"bufferView":31,
			"componentType":5126,
			"count":89695,
			"type":"VEC3"
		},
		{
			"bufferView":32,
			"componentType":5126,
			"count":89695,
			"type":"VEC2"
		},
		{
			"bufferView":33,
			"componentType":5126,
			"count":100263,
			"max":[
				7.597227096557617,
				12.553709983825684,
				-10.023137092590332
			],
			"min":[
				-15.206530570983887,
				-9.938321113586426,
				-32.23088836669922
			],
			"type":"VEC3"
		},
		{
			"bufferView":34,
			"componentType":5126,
			"count":100263,
			"type":"VEC3"
		},
		{
			"bufferView":35,
			"componentType":5126,
			"count":100263,
			"type":"VEC2"
		},
		{
			"bufferView":36,
			"componentType":5126,
			"count":130156,
			"max":[
				7.534543991088867,
				12.294328689575195,
				-9.982834815979004
			],
			"min":[
				-14.895739555358887,
				-9.532356262207031,
				-32.246070861816406
			],
			"type":"VEC3"
		},
		{
			"bufferView":37,
			"componentType":5126,
			"count":130156,
			"type":"VEC3"
		},
		{
			"bufferView":38,
			"componentType":5126,
			"count":130156,
			"type":"VEC2"
		},
		{
			"bufferView":39,
			"componentType":5126,
			"count":89695,
			"max":[
				7.130575180053711,
				12.495573043823242,
				-9.921509742736816
			],
			"min":[
				-15.487929344177246,
				-9.020837783813477,
				-32.246070861816406
			],
			"type":"VEC3"
		},
		{
			"bufferView":40,
			"componentType":5126,
			"count":89695,
			"type":"VEC3"
		},
		{
			"bufferView":41,
			"componentType":5126,
			"count":89695,
			"type":"VEC2"
		}
	],
	"bufferViews":[
		{
			"buffer":0,
			"byteLength":52128,
			"byteOffset":0,
			"target":34962
		},
		{
			"buffer":0,
			"byteLength":52128,
			"byteOffset":52128,
			"target":34962
		},
		{
			"buffer":0,
			"byteLength":34752,
			"byteOffset":104256,
			"target":34962
		},
		{
			"buffer":0,
			"byteLength":17652,
			"byteOffset":139008,
			"target":34963
		},
		{
			"buffer":0,
			"byteLength":180,
			"byteOffset":156660,
			"target":34962
		},
		{
			"buffer":0,
			"byteLength":180,
			"byteOffset":156840,
			"target":34962
		},
		{
			"buffer":0,
			"byteLength":120,
			"byteOffset":157020,
			"target":34962
		},
		{
			"buffer":0,
			"byteLength":78,
			"byteOffset":157140,
			"target":34963
		},
		{
			"buffer":0,
			"byteLength":2304,
			"byteOffset":157220,
			"target":34962
		},
		{
			"buffer":0,
			"byteLength":2304,
			"byteOffset":159524,
			"target":34962
		},
		{
			"buffer":0,
			"byteLength":1536,
			"byteOffset":161828,
			"target":34962
		},
		{
			"buffer":0,
			"byteLength":744,
			"byteOffset":163364,
			"target":34963
		},
		{
			"buffer":0,
			"byteLength":1203156,
			"byteOffset":164108,
			"target":34962
		},
		{
			"buffer":0,
			"byteLength":1203156,
			"byteOffset":1367264,
			"target":34962
		},
		{
			"buffer":0,
			"byteLength":802104,
			"byteOffset":2570420,
			"target":34962
		},
		{
			"buffer":0,
			"byteLength":498636,
			"byteOffset":3372524,
			"target":34963
		},
		{
			"buffer":0,
			"byteLength":1561872,
			"byteOffset":3871160,
			"target":34962
		},
		{
			"buffer":0,
			"byteLength":1561872,
			"byteOffset":5433032,
			"target":34962
		},
		{
			"buffer":0,
			"byteLength":1041248,
			"byteOffset":6994904,
			"target":34962
		},
		{
			"buffer":0,
			"byteLength":615816,
			"byteOffset":8036152,
			"target":34963
		},
		{
			"buffer":0,
			"byteLength":1076340,
			"byteOffset":8651968,
			"target":34962
		},
		{
			"buffer":0,
			"byteLength":1076340,
			"byteOffset":9728308,
			"target":34962
		},
		{
			"buffer":0,
			"byteLength":717560,
			"byteOffset":10804648,
			"target":34962
		},
		{
			"buffer":0,
			"byteLength":384972,
			"byteOffset":11522208,
			"target":34963
		},
		{
			"buffer":0,
			"byteLength":1203156,
			"byteOffset":11907180,
			"target":34962
		},
		{
			"buffer":0,
			"byteLength":1203156,
			"byteOffset":13110336,
			"target":34962
		},
		{
			"buffer":0,
			"byteLength":802104,
			"byteOffset":14313492,
			"target":34962
		},
		{
			"buffer":0,
			"byteLength":1561872,
			"byteOffset":15115596,
			"target":34962
		},
		{
			"buffer":0,
			"byteLength":1561872,
			"byteOffset":16677468,
			"target":34962
		},
		{
			"buffer":0,
			"byteLength":1041248,
			"byteOffset":18239340,
			"target":34962
		},
		{
			"buffer":0,
			"byteLength":1076340,
			"byteOffset":19280588,
			"target":34962
		},
		{
			"buffer":0,
			"byteLength":1076340,
			"byteOffset":20356928,
			"target":34962
		},
		{
			"buffer":0,
			"byteLength":717560,
			"byteOffset":21433268,
			"target":34962
		},
		{
			"buffer":0,
			"byteLength":1203156,
			"byteOffset":22150828,
			"target":34962
		},
		{
			"buffer":0,
			"byteLength":1203156,
			"byteOffset":23353984,
			"target":34962
		},
		{
			"buffer":0,
			"byteLength":802104,
			"byteOffset":24557140,
			"target":34962
		},
		{
			"buffer":0,
			"byteLength":1561872,
			"byteOffset":25359244,
			"target":34962
		},
		{
			"buffer":0,
			"byteLength":1561872,
			"byteOffset":26921116,
			"target":34962
		},
		{
			"buffer":0,
			"byteLength":1041248,
			"byteOffset":28482988,
			"target":34962
		},
		{
			"buffer":0,
			"byteLength":1076340,
			"byteOffset":29524236,
			"target":34962
		},
		{
			"buffer":0,
			"byteLength":1076340,
			"byteOffset":30600576,
			"target":34962
		},
		{
			"buffer":0,
			"byteLength":717560,
			"byteOffset":31676916,
			"target":34962
		}
	],
	"samplers":[
		{
			"magFilter":9729,
			"minFilter":9987
		}
	],
	"buffers":[
		{
			"byteLength":32394476,
			"uri":"7thfloor.bin"
		}
	]
}
