{
	"asset":{
		"generator":"Khronos glTF Blender I/O v4.1.62",
		"version":"2.0"
	},
	"scene":0,
	"scenes":[
		{
			"name":"Scene",
			"nodes":[
				0
			]
		}
	],
	"nodes":[
		{
			"mesh":0,
			"name":"pienip\u00f6yt\u00e4",
			"scale":[
				0.675612211227417,
				0.675612211227417,
				0.675612211227417
			],
			"translation":[
				-0.4981146454811096,
				-0.0001454576849937439,
				-3.816891670227051
			]
		}
	],
	"materials":[
		{
			"doubleSided":true,
			"name":"p\u00f6yd\u00e4njalat",
			"pbrMetallicRoughness":{
				"baseColorFactor":[
					0.025186695158481598,
					0.02518688142299652,
					0.025186870247125626,
					1
				],
				"metallicFactor":0,
				"roughnessFactor":0.5
			}
		},
		{
			"doubleSided":true,
			"name":"p\u00f6yd\u00e4np\u00e4\u00e4llys",
			"pbrMetallicRoughness":{
				"baseColorFactor":[
					0.800000011920929,
					0.800000011920929,
					0.800000011920929,
					1
				],
				"metallicFactor":0,
				"roughnessFactor":0.5
			}
		}
	],
	"meshes":[
		{
			"name":"pienip\u00f6yt\u00e4",
			"primitives":[
				{
					"attributes":{
						"POSITION":0,
						"NORMAL":1,
						"TEXCOORD_0":2
					},
					"indices":3,
					"material":0
				},
				{
					"attributes":{
						"POSITION":4,
						"NORMAL":5,
						"TEXCOORD_0":6
					},
					"indices":7,
					"material":1
				}
			]
		}
	],
	"accessors":[
		{
			"bufferView":0,
			"componentType":5126,
			"count":1024,
			"max":[
				1.0390923023223877,
				1.1947605609893799,
				0.6017811298370361
			],
			"min":[
				-0.04567689076066017,
				0.003200531005859375,
				-0.6289734840393066
			],
			"type":"VEC3"
		},
		{
			"bufferView":1,
			"componentType":5126,
			"count":1024,
			"type":"VEC3"
		},
		{
			"bufferView":2,
			"componentType":5126,
			"count":1024,
			"type":"VEC2"
		},
		{
			"bufferView":3,
			"componentType":5123,
			"count":2268,
			"type":"SCALAR"
		},
		{
			"bufferView":4,
			"componentType":5126,
			"count":36,
			"max":[
				1.0970942974090576,
				1.2586909532546997,
				0.6282477378845215
			],
			"min":[
				-0.08486425876617432,
				1.1907877922058105,
				-0.6870832443237305
			],
			"type":"VEC3"
		},
		{
			"bufferView":5,
			"componentType":5126,
			"count":36,
			"type":"VEC3"
		},
		{
			"bufferView":6,
			"componentType":5126,
			"count":36,
			"type":"VEC2"
		},
		{
			"bufferView":7,
			"componentType":5123,
			"count":60,
			"type":"SCALAR"
		}
	],
	"bufferViews":[
		{
			"buffer":0,
			"byteLength":12288,
			"byteOffset":0,
			"target":34962
		},
		{
			"buffer":0,
			"byteLength":12288,
			"byteOffset":12288,
			"target":34962
		},
		{
			"buffer":0,
			"byteLength":8192,
			"byteOffset":24576,
			"target":34962
		},
		{
			"buffer":0,
			"byteLength":4536,
			"byteOffset":32768,
			"target":34963
		},
		{
			"buffer":0,
			"byteLength":432,
			"byteOffset":37304,
			"target":34962
		},
		{
			"buffer":0,
			"byteLength":432,
			"byteOffset":37736,
			"target":34962
		},
		{
			"buffer":0,
			"byteLength":288,
			"byteOffset":38168,
			"target":34962
		},
		{
			"buffer":0,
			"byteLength":120,
			"byteOffset":38456,
			"target":34963
		}
	],
	"buffers":[
		{
			"byteLength":38576,
			"uri":"pienip%C3%B6yt%C3%A4.bin"
		}
	]
}
