{
	"asset":{
		"generator":"Khronos glTF Blender I/O v4.1.62",
		"version":"2.0"
	},
	"scene":0,
	"scenes":[
		{
			"name":"Scene",
			"nodes":[
				0,
				1
			]
		}
	],
	"nodes":[
		{
			"mesh":0,
			"name":"Desk",
			"rotation":[
				-0.0036197551526129246,
				-0.3906921446323395,
				0.0036853139754384756,
				0.9205068945884705
			],
			"scale":[
				-0.26295462250709534,
				-0.24121738970279694,
				-0.23397161066532135
			],
			"translation":[
				-24.77933120727539,
				0.0380081981420517,
				-7.277613639831543
			]
		},
		{
			"mesh":1,
			"name":"Doors",
			"scale":[
				-0.05539442598819733,
				-1.2853944301605225,
				-0.49539437890052795
			],
			"translation":[
				-31.654285430908203,
				1.1340919733047485,
				-8.55789852142334
			]
		}
	],
	"materials":[
		{
			"doubleSided":true,
			"name":"Material.001",
			"pbrMetallicRoughness":{
				"baseColorFactor":[
					0.8002588152885437,
					0.4638265073299408,
					0.5376759171485901,
					1
				],
				"metallicFactor":0.6545455455780029,
				"roughnessFactor":0.30909091234207153
			}
		},
		{
			"doubleSided":true,
			"name":"Material.005",
			"pbrMetallicRoughness":{
				"baseColorFactor":[
					0.8011245131492615,
					0.43391382694244385,
					0.11600415408611298,
					1
				],
				"metallicFactor":0,
				"roughnessFactor":0.5
			}
		}
	],
	"meshes":[
		{
			"name":"Plane.001",
			"primitives":[
				{
					"attributes":{
						"POSITION":0,
						"NORMAL":1,
						"TEXCOORD_0":2
					},
					"indices":3,
					"material":0
				}
			]
		},
		{
			"name":"Cube",
			"primitives":[
				{
					"attributes":{
						"POSITION":4,
						"NORMAL":5,
						"TEXCOORD_0":6
					},
					"indices":7,
					"material":1
				}
			]
		}
	],
	"accessors":[
		{
			"bufferView":0,
			"componentType":5126,
			"count":70,
			"max":[
				1,
				0.1505863517522812,
				8.123617172241211
			],
			"min":[
				-16.469688415527344,
				-4.245866298675537,
				-1.0129921436309814
			],
			"type":"VEC3"
		},
		{
			"bufferView":1,
			"componentType":5126,
			"count":70,
			"type":"VEC3"
		},
		{
			"bufferView":2,
			"componentType":5126,
			"count":70,
			"type":"VEC2"
		},
		{
			"bufferView":3,
			"componentType":5123,
			"count":126,
			"type":"SCALAR"
		},
		{
			"bufferView":4,
			"componentType":5126,
			"count":400,
			"max":[
				195.2407684326172,
				1.0004936456680298,
				24.084978103637695
			],
			"min":[
				-15.591048240661621,
				-1.4925776720046997,
				-1.160575270652771
			],
			"type":"VEC3"
		},
		{
			"bufferView":5,
			"componentType":5126,
			"count":400,
			"type":"VEC3"
		},
		{
			"bufferView":6,
			"componentType":5126,
			"count":400,
			"type":"VEC2"
		},
		{
			"bufferView":7,
			"componentType":5123,
			"count":720,
			"type":"SCALAR"
		}
	],
	"bufferViews":[
		{
			"buffer":0,
			"byteLength":840,
			"byteOffset":0,
			"target":34962
		},
		{
			"buffer":0,
			"byteLength":840,
			"byteOffset":840,
			"target":34962
		},
		{
			"buffer":0,
			"byteLength":560,
			"byteOffset":1680,
			"target":34962
		},
		{
			"buffer":0,
			"byteLength":252,
			"byteOffset":2240,
			"target":34963
		},
		{
			"buffer":0,
			"byteLength":4800,
			"byteOffset":2492,
			"target":34962
		},
		{
			"buffer":0,
			"byteLength":4800,
			"byteOffset":7292,
			"target":34962
		},
		{
			"buffer":0,
			"byteLength":3200,
			"byteOffset":12092,
			"target":34962
		},
		{
			"buffer":0,
			"byteLength":1440,
			"byteOffset":15292,
			"target":34963
		}
	],
	"buffers":[
		{
			"byteLength":16732,
			"uri":"2thdoors.bin"
		}
	]
}
