{
	"asset":{
		"generator":"Khronos glTF Blender I/O v4.1.62",
		"version":"2.0"
	},
	"scene":0,
	"scenes":[
		{
			"name":"Scene",
			"nodes":[
				0,
				1,
				2,
				3,
				4,
				5,
				6,
				7,
				8,
				9
			]
		}
	],
	"nodes":[
		{
			"mesh":0,
			"name":"Walls",
			"scale":[
				0.33336496353149414,
				0.33336496353149414,
				0.33336496353149414
			],
			"translation":[
				-11.888565063476562,
				0,
				-8.406473159790039
			]
		},
		{
			"name":"Empty",
			"scale":[
				29,
				1,
				29
			],
			"translation":[
				14.819999694824219,
				-1.809999942779541,
				17.190000534057617
			]
		},
		{
			"mesh":1,
			"name":"Desk",
			"rotation":[
				-0.0036197551526129246,
				-0.3906921446323395,
				0.0036853139754384756,
				0.9205068945884705
			],
			"scale":[
				-0.26295462250709534,
				-0.24121738970279694,
				-0.23397161066532135
			],
			"translation":[
				-9.78600788116455,
				0.0380081981420517,
				9.701579093933105
			]
		},
		{
			"mesh":2,
			"name":"Plane.001",
			"scale":[
				0.33336496353149414,
				0.33336496353149414,
				0.33336496353149414
			],
			"translation":[
				-11.888565063476562,
				0,
				-8.406473159790039
			]
		},
		{
			"mesh":3,
			"name":"Plane.002",
			"scale":[
				0.33336496353149414,
				0.33336496353149414,
				0.33336496353149414
			],
			"translation":[
				-11.890387535095215,
				-0.012554003857076168,
				-8.421756744384766
			]
		},
		{
			"mesh":4,
			"name":"Plane.003",
			"scale":[
				0.33336496353149414,
				0.33336496353149414,
				0.33336496353149414
			],
			"translation":[
				-11.888565063476562,
				0,
				-8.406473159790039
			]
		},
		{
			"mesh":5,
			"name":"Doors",
			"scale":[
				-0.05539442598819733,
				-1.2853944301605225,
				-0.49539437890052795
			],
			"translation":[
				-16.66096305847168,
				1.1340919733047485,
				8.421294212341309
			]
		},
		{
			"mesh":6,
			"name":"OutsideDoors.001",
			"scale":[
				40.75326919555664,
				40.3632698059082,
				40.063270568847656
			],
			"translation":[
				1.5734672546386719,
				-0.0016548458952456713,
				1.263126254081726
			]
		},
		{
			"mesh":7,
			"name":"Floor",
			"scale":[
				36.33417510986328,
				36.33417510986328,
				36.33417510986328
			],
			"translation":[
				-9.142610549926758,
				0,
				-2.590334892272949
			]
		},
		{
			"mesh":8,
			"name":"Lockers",
			"scale":[
				36.33417510986328,
				36.33417510986328,
				36.33417510986328
			],
			"translation":[
				-9.142610549926758,
				0,
				-2.590334892272949
			]
		}
	],
	"materials":[
		{
			"doubleSided":true,
			"name":"Material",
			"pbrMetallicRoughness":{
				"baseColorFactor":[
					1,
					0.6481940746307373,
					0,
					1
				],
				"metallicFactor":0,
				"roughnessFactor":0.5
			}
		},
		{
			"doubleSided":true,
			"name":"Material.001",
			"pbrMetallicRoughness":{
				"baseColorFactor":[
					0.8002588152885437,
					0.4638265073299408,
					0.5376759171485901,
					1
				],
				"metallicFactor":0.6545455455780029,
				"roughnessFactor":0.30909091234207153
			}
		},
		{
			"doubleSided":true,
			"name":"Material.002",
			"pbrMetallicRoughness":{
				"baseColorTexture":{
					"index":0
				},
				"metallicFactor":0,
				"roughnessFactor":0.5
			}
		},
		{
			"doubleSided":true,
			"name":"Material.003",
			"pbrMetallicRoughness":{
				"baseColorTexture":{
					"index":1
				},
				"metallicFactor":0,
				"roughnessFactor":0.5
			}
		},
		{
			"doubleSided":true,
			"name":"Material.004",
			"pbrMetallicRoughness":{
				"baseColorTexture":{
					"index":2
				},
				"metallicFactor":0,
				"roughnessFactor":0.5
			}
		},
		{
			"doubleSided":true,
			"name":"Material.005",
			"pbrMetallicRoughness":{
				"baseColorFactor":[
					0.8011245131492615,
					0.43391382694244385,
					0.11600415408611298,
					1
				],
				"metallicFactor":0,
				"roughnessFactor":0.5
			}
		},
		{
			"doubleSided":true,
			"name":"Material.008",
			"pbrMetallicRoughness":{
				"baseColorFactor":[
					0.8003553152084351,
					0.5500337481498718,
					0,
					1
				],
				"metallicFactor":0,
				"roughnessFactor":0.5
			}
		},
		{
			"doubleSided":true,
			"name":"Material.010",
			"pbrMetallicRoughness":{
				"baseColorFactor":[
					0.800000011920929,
					0.800000011920929,
					0.800000011920929,
					1
				],
				"metallicFactor":0,
				"roughnessFactor":0.5
			}
		}
	],
	"meshes":[
		{
			"name":"Plane.003",
			"primitives":[
				{
					"attributes":{
						"POSITION":0,
						"NORMAL":1,
						"TEXCOORD_0":2
					},
					"indices":3,
					"material":0
				}
			]
		},
		{
			"name":"Plane.001",
			"primitives":[
				{
					"attributes":{
						"POSITION":4,
						"NORMAL":5,
						"TEXCOORD_0":6
					},
					"indices":7,
					"material":1
				}
			]
		},
		{
			"name":"Plane.002",
			"primitives":[
				{
					"attributes":{
						"POSITION":8,
						"NORMAL":9,
						"TEXCOORD_0":10
					},
					"indices":11,
					"material":2
				}
			]
		},
		{
			"name":"Plane.004",
			"primitives":[
				{
					"attributes":{
						"POSITION":12,
						"NORMAL":13,
						"TEXCOORD_0":14
					},
					"indices":15,
					"material":3
				}
			]
		},
		{
			"name":"Plane.005",
			"primitives":[
				{
					"attributes":{
						"POSITION":16,
						"NORMAL":17,
						"TEXCOORD_0":18
					},
					"indices":15,
					"material":4
				}
			]
		},
		{
			"name":"Cube",
			"primitives":[
				{
					"attributes":{
						"POSITION":19,
						"NORMAL":20,
						"TEXCOORD_0":21
					},
					"indices":22,
					"material":5
				}
			]
		},
		{
			"name":"Plane.006",
			"primitives":[
				{
					"attributes":{
						"POSITION":23,
						"NORMAL":24,
						"TEXCOORD_0":25
					},
					"indices":26,
					"material":6
				}
			]
		},
		{
			"name":"Plane.008",
			"primitives":[
				{
					"attributes":{
						"POSITION":27,
						"NORMAL":28,
						"TEXCOORD_0":29
					},
					"indices":30,
					"material":7
				}
			]
		},
		{
			"name":"Plane.007",
			"primitives":[
				{
					"attributes":{
						"POSITION":31,
						"NORMAL":32,
						"TEXCOORD_0":33
					},
					"indices":34,
					"material":7
				}
			]
		}
	],
	"textures":[
		{
			"sampler":0,
			"source":0
		},
		{
			"sampler":0,
			"source":1
		},
		{
			"sampler":0,
			"source":2
		}
	],
	"images":[
		{
			"mimeType":"image/jpeg",
			"name":"_DSC5464",
			"uri":"_DSC5464.jpg"
		},
		{
			"mimeType":"image/jpeg",
			"name":"_DSC5595",
			"uri":"_DSC5595.jpg"
		},
		{
			"mimeType":"image/jpeg",
			"name":"_DSC5594",
			"uri":"_DSC5594.jpg"
		}
	],
	"accessors":[
		{
			"bufferView":0,
			"componentType":5126,
			"count":880,
			"max":[
				84.52599334716797,
				9.151860237121582,
				103.40418243408203
			],
			"min":[
				-65.20246887207031,
				0,
				-1.1483354568481445
			],
			"type":"VEC3"
		},
		{
			"bufferView":1,
			"componentType":5126,
			"count":880,
			"type":"VEC3"
		},
		{
			"bufferView":2,
			"componentType":5126,
			"count":880,
			"type":"VEC2"
		},
		{
			"bufferView":3,
			"componentType":5123,
			"count":1866,
			"type":"SCALAR"
		},
		{
			"bufferView":4,
			"componentType":5126,
			"count":70,
			"max":[
				1,
				0.1505863517522812,
				8.123617172241211
			],
			"min":[
				-16.469688415527344,
				-4.245866298675537,
				-1.0129921436309814
			],
			"type":"VEC3"
		},
		{
			"bufferView":5,
			"componentType":5126,
			"count":70,
			"type":"VEC3"
		},
		{
			"bufferView":6,
			"componentType":5126,
			"count":70,
			"type":"VEC2"
		},
		{
			"bufferView":7,
			"componentType":5123,
			"count":126,
			"type":"SCALAR"
		},
		{
			"bufferView":8,
			"componentType":5126,
			"count":4,
			"max":[
				78.98631286621094,
				9.151859283447266,
				101.62120819091797
			],
			"min":[
				60.01173400878906,
				0,
				101.31217956542969
			],
			"type":"VEC3"
		},
		{
			"bufferView":9,
			"componentType":5126,
			"count":4,
			"type":"VEC3"
		},
		{
			"bufferView":10,
			"componentType":5126,
			"count":4,
			"type":"VEC2"
		},
		{
			"bufferView":11,
			"componentType":5123,
			"count":6,
			"type":"SCALAR"
		},
		{
			"bufferView":12,
			"componentType":5126,
			"count":4,
			"max":[
				83.8392562866211,
				9.151859283447266,
				32.1618766784668
			],
			"min":[
				83.7677230834961,
				0,
				21.25275421142578
			],
			"type":"VEC3"
		},
		{
			"bufferView":13,
			"componentType":5126,
			"count":4,
			"type":"VEC3"
		},
		{
			"bufferView":14,
			"componentType":5126,
			"count":4,
			"type":"VEC2"
		},
		{
			"bufferView":15,
			"componentType":5123,
			"count":6,
			"type":"SCALAR"
		},
		{
			"bufferView":16,
			"componentType":5126,
			"count":4,
			"max":[
				-64.27537536621094,
				9.151859283447266,
				34.344573974609375
			],
			"min":[
				-64.3268814086914,
				0,
				25.743179321289062
			],
			"type":"VEC3"
		},
		{
			"bufferView":17,
			"componentType":5126,
			"count":4,
			"type":"VEC3"
		},
		{
			"bufferView":18,
			"componentType":5126,
			"count":4,
			"type":"VEC2"
		},
		{
			"bufferView":19,
			"componentType":5126,
			"count":400,
			"max":[
				195.2407684326172,
				1.0004936456680298,
				24.084978103637695
			],
			"min":[
				-15.591048240661621,
				-1.4925776720046997,
				-1.160575270652771
			],
			"type":"VEC3"
		},
		{
			"bufferView":20,
			"componentType":5126,
			"count":400,
			"type":"VEC3"
		},
		{
			"bufferView":21,
			"componentType":5126,
			"count":400,
			"type":"VEC2"
		},
		{
			"bufferView":22,
			"componentType":5123,
			"count":720,
			"type":"SCALAR"
		},
		{
			"bufferView":23,
			"componentType":5126,
			"count":96,
			"max":[
				-0.1180962473154068,
				0.06539877504110336,
				-0.23313100636005402
			],
			"min":[
				-0.33715713024139404,
				-0.0033223796635866165,
				-0.28966909646987915
			],
			"type":"VEC3"
		},
		{
			"bufferView":24,
			"componentType":5126,
			"count":96,
			"type":"VEC3"
		},
		{
			"bufferView":25,
			"componentType":5126,
			"count":96,
			"type":"VEC2"
		},
		{
			"bufferView":26,
			"componentType":5123,
			"count":144,
			"type":"SCALAR"
		},
		{
			"bufferView":27,
			"componentType":5126,
			"count":126,
			"max":[
				0.7208431959152222,
				0,
				0.8060330748558044
			],
			"min":[
				-0.7260415554046631,
				-0.01513202115893364,
				-0.4503151476383209
			],
			"type":"VEC3"
		},
		{
			"bufferView":28,
			"componentType":5126,
			"count":126,
			"type":"VEC3"
		},
		{
			"bufferView":29,
			"componentType":5126,
			"count":126,
			"type":"VEC2"
		},
		{
			"bufferView":30,
			"componentType":5123,
			"count":240,
			"type":"SCALAR"
		},
		{
			"bufferView":31,
			"componentType":5126,
			"count":259,
			"max":[
				-0.20297148823738098,
				0.0541248694062233,
				0.058024607598781586
			],
			"min":[
				-0.31790536642074585,
				-0.0010482370853424072,
				-0.04670367017388344
			],
			"type":"VEC3"
		},
		{
			"bufferView":32,
			"componentType":5126,
			"count":259,
			"type":"VEC3"
		},
		{
			"bufferView":33,
			"componentType":5126,
			"count":259,
			"type":"VEC2"
		},
		{
			"bufferView":34,
			"componentType":5123,
			"count":864,
			"type":"SCALAR"
		}
	],
	"bufferViews":[
		{
			"buffer":0,
			"byteLength":10560,
			"byteOffset":0,
			"target":34962
		},
		{
			"buffer":0,
			"byteLength":10560,
			"byteOffset":10560,
			"target":34962
		},
		{
			"buffer":0,
			"byteLength":7040,
			"byteOffset":21120,
			"target":34962
		},
		{
			"buffer":0,
			"byteLength":3732,
			"byteOffset":28160,
			"target":34963
		},
		{
			"buffer":0,
			"byteLength":840,
			"byteOffset":31892,
			"target":34962
		},
		{
			"buffer":0,
			"byteLength":840,
			"byteOffset":32732,
			"target":34962
		},
		{
			"buffer":0,
			"byteLength":560,
			"byteOffset":33572,
			"target":34962
		},
		{
			"buffer":0,
			"byteLength":252,
			"byteOffset":34132,
			"target":34963
		},
		{
			"buffer":0,
			"byteLength":48,
			"byteOffset":34384,
			"target":34962
		},
		{
			"buffer":0,
			"byteLength":48,
			"byteOffset":34432,
			"target":34962
		},
		{
			"buffer":0,
			"byteLength":32,
			"byteOffset":34480,
			"target":34962
		},
		{
			"buffer":0,
			"byteLength":12,
			"byteOffset":34512,
			"target":34963
		},
		{
			"buffer":0,
			"byteLength":48,
			"byteOffset":34524,
			"target":34962
		},
		{
			"buffer":0,
			"byteLength":48,
			"byteOffset":34572,
			"target":34962
		},
		{
			"buffer":0,
			"byteLength":32,
			"byteOffset":34620,
			"target":34962
		},
		{
			"buffer":0,
			"byteLength":12,
			"byteOffset":34652,
			"target":34963
		},
		{
			"buffer":0,
			"byteLength":48,
			"byteOffset":34664,
			"target":34962
		},
		{
			"buffer":0,
			"byteLength":48,
			"byteOffset":34712,
			"target":34962
		},
		{
			"buffer":0,
			"byteLength":32,
			"byteOffset":34760,
			"target":34962
		},
		{
			"buffer":0,
			"byteLength":4800,
			"byteOffset":34792,
			"target":34962
		},
		{
			"buffer":0,
			"byteLength":4800,
			"byteOffset":39592,
			"target":34962
		},
		{
			"buffer":0,
			"byteLength":3200,
			"byteOffset":44392,
			"target":34962
		},
		{
			"buffer":0,
			"byteLength":1440,
			"byteOffset":47592,
			"target":34963
		},
		{
			"buffer":0,
			"byteLength":1152,
			"byteOffset":49032,
			"target":34962
		},
		{
			"buffer":0,
			"byteLength":1152,
			"byteOffset":50184,
			"target":34962
		},
		{
			"buffer":0,
			"byteLength":768,
			"byteOffset":51336,
			"target":34962
		},
		{
			"buffer":0,
			"byteLength":288,
			"byteOffset":52104,
			"target":34963
		},
		{
			"buffer":0,
			"byteLength":1512,
			"byteOffset":52392,
			"target":34962
		},
		{
			"buffer":0,
			"byteLength":1512,
			"byteOffset":53904,
			"target":34962
		},
		{
			"buffer":0,
			"byteLength":1008,
			"byteOffset":55416,
			"target":34962
		},
		{
			"buffer":0,
			"byteLength":480,
			"byteOffset":56424,
			"target":34963
		},
		{
			"buffer":0,
			"byteLength":3108,
			"byteOffset":56904,
			"target":34962
		},
		{
			"buffer":0,
			"byteLength":3108,
			"byteOffset":60012,
			"target":34962
		},
		{
			"buffer":0,
			"byteLength":2072,
			"byteOffset":63120,
			"target":34962
		},
		{
			"buffer":0,
			"byteLength":1728,
			"byteOffset":65192,
			"target":34963
		}
	],
	"samplers":[
		{
			"magFilter":9729,
			"minFilter":9987
		}
	],
	"buffers":[
		{
			"byteLength":66920,
			"uri":"2thlockers.bin"
		}
	]
}
