{
	"asset":{
		"generator":"Khronos glTF Blender I/O v4.1.62",
		"version":"2.0"
	},
	"scene":0,
	"scenes":[
		{
			"name":"Scene",
			"nodes":[
				0
			]
		}
	],
	"nodes":[
		{
			"mesh":0,
			"name":"Lockers",
			"scale":[
				36.33417510986328,
				36.33417510986328,
				36.33417510986328
			],
			"translation":[
				-24.13593292236328,
				0,
				-19.56952667236328
			]
		}
	],
	"materials":[
		{
			"doubleSided":true,
			"name":"Material.022",
			"pbrMetallicRoughness":{
				"baseColorTexture":{
					"index":0
				},
				"metallicFactor":0,
				"roughnessFactor":0.5
			}
		},
		{
			"doubleSided":true,
			"name":"Material.024",
			"pbrMetallicRoughness":{
				"baseColorTexture":{
					"index":1
				},
				"metallicFactor":0,
				"roughnessFactor":0.5
			}
		}
	],
	"meshes":[
		{
			"name":"Plane.007",
			"primitives":[
				{
					"attributes":{
						"POSITION":0,
						"NORMAL":1,
						"TEXCOORD_0":2
					},
					"indices":3,
					"material":0
				},
				{
					"attributes":{
						"POSITION":4,
						"NORMAL":5,
						"TEXCOORD_0":6
					},
					"indices":7,
					"material":1
				}
			]
		}
	],
	"textures":[
		{
			"sampler":0,
			"source":0
		},
		{
			"sampler":0,
			"source":1
		}
	],
	"images":[
		{
			"mimeType":"image/jpeg",
			"name":"20240502_090944",
			"uri":"20240502_090944.jpg"
		},
		{
			"mimeType":"image/jpeg",
			"name":"20240502_091006",
			"uri":"20240502_091006.jpg"
		}
	],
	"accessors":[
		{
			"bufferView":0,
			"componentType":5126,
			"count":259,
			"max":[
				-0.20297148823738098,
				0.05399635061621666,
				0.05774383619427681
			],
			"min":[
				-0.21767768263816833,
				-0.0010482370853424072,
				-0.04670367017388344
			],
			"type":"VEC3"
		},
		{
			"bufferView":1,
			"componentType":5126,
			"count":259,
			"type":"VEC3"
		},
		{
			"bufferView":2,
			"componentType":5126,
			"count":259,
			"type":"VEC2"
		},
		{
			"bufferView":3,
			"componentType":5123,
			"count":576,
			"type":"SCALAR"
		},
		{
			"bufferView":4,
			"componentType":5126,
			"count":24,
			"max":[
				-0.35305914282798767,
				0.053639888763427734,
				0.05690233036875725
			],
			"min":[
				-0.36730924248695374,
				-0.0010259486734867096,
				-0.04688422009348869
			],
			"type":"VEC3"
		},
		{
			"bufferView":5,
			"componentType":5126,
			"count":24,
			"type":"VEC3"
		},
		{
			"bufferView":6,
			"componentType":5126,
			"count":24,
			"type":"VEC2"
		},
		{
			"bufferView":7,
			"componentType":5123,
			"count":36,
			"type":"SCALAR"
		}
	],
	"bufferViews":[
		{
			"buffer":0,
			"byteLength":3108,
			"byteOffset":0,
			"target":34962
		},
		{
			"buffer":0,
			"byteLength":3108,
			"byteOffset":3108,
			"target":34962
		},
		{
			"buffer":0,
			"byteLength":2072,
			"byteOffset":6216,
			"target":34962
		},
		{
			"buffer":0,
			"byteLength":1152,
			"byteOffset":8288,
			"target":34963
		},
		{
			"buffer":0,
			"byteLength":288,
			"byteOffset":9440,
			"target":34962
		},
		{
			"buffer":0,
			"byteLength":288,
			"byteOffset":9728,
			"target":34962
		},
		{
			"buffer":0,
			"byteLength":192,
			"byteOffset":10016,
			"target":34962
		},
		{
			"buffer":0,
			"byteLength":72,
			"byteOffset":10208,
			"target":34963
		}
	],
	"samplers":[
		{
			"magFilter":9729,
			"minFilter":9987
		}
	],
	"buffers":[
		{
			"byteLength":10280,
			"uri":"2thLockers.bin"
		}
	]
}
