{
	"asset":{
		"generator":"Khronos glTF Blender I/O v4.1.62",
		"version":"2.0"
	},
	"scene":0,
	"scenes":[
		{
			"name":"Scene",
			"nodes":[
				0
			]
		}
	],
	"nodes":[
		{
			"mesh":0,
			"name":"tuoli",
			"rotation":[
				0,
				0.38105592131614685,
				0,
				0.9245520234107971
			],
			"scale":[
				1.0833896398544312,
				0.3104562759399414,
				0.9887616038322449
			],
			"translation":[
				-23.010486602783203,
				0.24502286314964294,
				-6.691316604614258
			]
		}
	],
	"materials":[
		{
			"doubleSided":true,
			"name":"Material.011",
			"pbrMetallicRoughness":{
				"baseColorFactor":[
					0.057286135852336884,
					0.14088957011699677,
					0.8012280464172363,
					1
				],
				"metallicFactor":0,
				"roughnessFactor":0.5
			}
		},
		{
			"doubleSided":true,
			"name":"Material.012",
			"pbrMetallicRoughness":{
				"baseColorFactor":[
					0.027775507420301437,
					0.027775507420301437,
					0.027775507420301437,
					1
				],
				"metallicFactor":0,
				"roughnessFactor":0.5
			}
		},
		{
			"doubleSided":true,
			"name":"Material.013",
			"pbrMetallicRoughness":{
				"baseColorFactor":[
					0.6577329039573669,
					0.6577329039573669,
					0.6577329039573669,
					1
				],
				"metallicFactor":0.6454545259475708,
				"roughnessFactor":0.08636364340782166
			}
		},
		{
			"doubleSided":true,
			"name":"Material.014",
			"pbrMetallicRoughness":{
				"baseColorFactor":[
					0.02613036334514618,
					0.02613036334514618,
					0.02613036334514618,
					1
				],
				"metallicFactor":0,
				"roughnessFactor":0.5
			}
		}
	],
	"meshes":[
		{
			"name":"Cube.001",
			"primitives":[
				{
					"attributes":{
						"POSITION":0,
						"NORMAL":1,
						"TEXCOORD_0":2
					},
					"indices":3,
					"material":0
				},
				{
					"attributes":{
						"POSITION":4,
						"NORMAL":5,
						"TEXCOORD_0":6
					},
					"indices":7,
					"material":1
				},
				{
					"attributes":{
						"POSITION":8,
						"NORMAL":9,
						"TEXCOORD_0":10
					},
					"indices":11,
					"material":2
				},
				{
					"attributes":{
						"POSITION":12,
						"NORMAL":13,
						"TEXCOORD_0":14
					},
					"indices":15,
					"material":3
				}
			]
		}
	],
	"accessors":[
		{
			"bufferView":0,
			"componentType":5126,
			"count":89471,
			"max":[
				2.8301758766174316,
				2.3093669414520264,
				0.295538067817688
			],
			"min":[
				-7.529740333557129,
				0.2700580358505249,
				-26.624114990234375
			],
			"type":"VEC3"
		},
		{
			"bufferView":1,
			"componentType":5126,
			"count":89471,
			"type":"VEC3"
		},
		{
			"bufferView":2,
			"componentType":5126,
			"count":89471,
			"type":"VEC2"
		},
		{
			"bufferView":3,
			"componentType":5125,
			"count":138234,
			"type":"SCALAR"
		},
		{
			"bufferView":4,
			"componentType":5126,
			"count":2258,
			"max":[
				2.794429302215576,
				-0.3161536455154419,
				0.2933337390422821
			],
			"min":[
				-7.436812400817871,
				-0.8411630392074585,
				-26.602357864379883
			],
			"type":"VEC3"
		},
		{
			"bufferView":5,
			"componentType":5126,
			"count":2258,
			"type":"VEC3"
		},
		{
			"bufferView":6,
			"componentType":5126,
			"count":2258,
			"type":"VEC2"
		},
		{
			"bufferView":7,
			"componentType":5123,
			"count":3240,
			"type":"SCALAR"
		},
		{
			"bufferView":8,
			"componentType":5126,
			"count":1412,
			"max":[
				2.577058792114258,
				0.7281510233879089,
				0.039565324783325195
			],
			"min":[
				-7.222118377685547,
				-0.5646674633026123,
				-26.375289916992188
			],
			"type":"VEC3"
		},
		{
			"bufferView":9,
			"componentType":5126,
			"count":1412,
			"type":"VEC3"
		},
		{
			"bufferView":10,
			"componentType":5126,
			"count":1412,
			"type":"VEC2"
		},
		{
			"bufferView":11,
			"componentType":5123,
			"count":2232,
			"type":"SCALAR"
		},
		{
			"bufferView":12,
			"componentType":5126,
			"count":10502,
			"max":[
				2.833141803741455,
				-0.3466280698776245,
				0.323839396238327
			],
			"min":[
				-7.466001510620117,
				-0.9361686706542969,
				-26.62091064453125
			],
			"type":"VEC3"
		},
		{
			"bufferView":13,
			"componentType":5126,
			"count":10502,
			"type":"VEC3"
		},
		{
			"bufferView":14,
			"componentType":5126,
			"count":10502,
			"type":"VEC2"
		},
		{
			"bufferView":15,
			"componentType":5123,
			"count":13392,
			"type":"SCALAR"
		}
	],
	"bufferViews":[
		{
			"buffer":0,
			"byteLength":1073652,
			"byteOffset":0,
			"target":34962
		},
		{
			"buffer":0,
			"byteLength":1073652,
			"byteOffset":1073652,
			"target":34962
		},
		{
			"buffer":0,
			"byteLength":715768,
			"byteOffset":2147304,
			"target":34962
		},
		{
			"buffer":0,
			"byteLength":552936,
			"byteOffset":2863072,
			"target":34963
		},
		{
			"buffer":0,
			"byteLength":27096,
			"byteOffset":3416008,
			"target":34962
		},
		{
			"buffer":0,
			"byteLength":27096,
			"byteOffset":3443104,
			"target":34962
		},
		{
			"buffer":0,
			"byteLength":18064,
			"byteOffset":3470200,
			"target":34962
		},
		{
			"buffer":0,
			"byteLength":6480,
			"byteOffset":3488264,
			"target":34963
		},
		{
			"buffer":0,
			"byteLength":16944,
			"byteOffset":3494744,
			"target":34962
		},
		{
			"buffer":0,
			"byteLength":16944,
			"byteOffset":3511688,
			"target":34962
		},
		{
			"buffer":0,
			"byteLength":11296,
			"byteOffset":3528632,
			"target":34962
		},
		{
			"buffer":0,
			"byteLength":4464,
			"byteOffset":3539928,
			"target":34963
		},
		{
			"buffer":0,
			"byteLength":126024,
			"byteOffset":3544392,
			"target":34962
		},
		{
			"buffer":0,
			"byteLength":126024,
			"byteOffset":3670416,
			"target":34962
		},
		{
			"buffer":0,
			"byteLength":84016,
			"byteOffset":3796440,
			"target":34962
		},
		{
			"buffer":0,
			"byteLength":26784,
			"byteOffset":3880456,
			"target":34963
		}
	],
	"buffers":[
		{
			"byteLength":3907240,
			"uri":"2thtuolit.bin"
		}
	]
}
