{
	"asset":{
		"generator":"Khronos glTF Blender I/O v4.1.62",
		"version":"2.0"
	},
	"scene":0,
	"scenes":[
		{
			"name":"Scene",
			"nodes":[
				0
			]
		}
	],
	"nodes":[
		{
			"mesh":0,
			"name":"Walls",
			"scale":[
				0.33336496353149414,
				0.33336496353149414,
				0.33336496353149414
			],
			"translation":[
				-26.881887435913086,
				0,
				-25.385665893554688
			]
		}
	],
	"materials":[
		{
			"doubleSided":true,
			"name":"Material",
			"pbrMetallicRoughness":{
				"baseColorFactor":[
					1,
					0.6481940746307373,
					0,
					1
				],
				"metallicFactor":0,
				"roughnessFactor":0.5
			}
		},
		{
			"doubleSided":true,
			"name":"Material.002",
			"pbrMetallicRoughness":{
				"baseColorTexture":{
					"index":0
				},
				"metallicFactor":0,
				"roughnessFactor":0.5
			}
		},
		{
			"doubleSided":true,
			"name":"Material.003",
			"pbrMetallicRoughness":{
				"baseColorTexture":{
					"index":1
				},
				"metallicFactor":0,
				"roughnessFactor":0.5
			}
		},
		{
			"doubleSided":true,
			"name":"Material.004",
			"pbrMetallicRoughness":{
				"baseColorTexture":{
					"index":2
				},
				"metallicFactor":0,
				"roughnessFactor":0.5
			}
		}
	],
	"meshes":[
		{
			"name":"Plane.003",
			"primitives":[
				{
					"attributes":{
						"POSITION":0,
						"NORMAL":1,
						"TEXCOORD_0":2
					},
					"indices":3,
					"material":0
				},
				{
					"attributes":{
						"POSITION":4,
						"NORMAL":5,
						"TEXCOORD_0":6
					},
					"indices":7,
					"material":1
				},
				{
					"attributes":{
						"POSITION":8,
						"NORMAL":9,
						"TEXCOORD_0":10
					},
					"indices":11,
					"material":2
				},
				{
					"attributes":{
						"POSITION":12,
						"NORMAL":13,
						"TEXCOORD_0":14
					},
					"indices":11,
					"material":3
				}
			]
		}
	],
	"textures":[
		{
			"sampler":0,
			"source":0
		},
		{
			"sampler":0,
			"source":1
		},
		{
			"sampler":0,
			"source":2
		}
	],
	"images":[
		{
			"mimeType":"image/jpeg",
			"name":"_DSC5464",
			"uri":"_DSC5464.jpg"
		},
		{
			"mimeType":"image/jpeg",
			"name":"_DSC5595",
			"uri":"_DSC5595.jpg"
		},
		{
			"mimeType":"image/jpeg",
			"name":"_DSC5594",
			"uri":"_DSC5594.jpg"
		}
	],
	"accessors":[
		{
			"bufferView":0,
			"componentType":5126,
			"count":880,
			"max":[
				84.52599334716797,
				9.151860237121582,
				103.40418243408203
			],
			"min":[
				-65.20246887207031,
				0,
				-1.1483354568481445
			],
			"type":"VEC3"
		},
		{
			"bufferView":1,
			"componentType":5126,
			"count":880,
			"type":"VEC3"
		},
		{
			"bufferView":2,
			"componentType":5126,
			"count":880,
			"type":"VEC2"
		},
		{
			"bufferView":3,
			"componentType":5123,
			"count":1866,
			"type":"SCALAR"
		},
		{
			"bufferView":4,
			"componentType":5126,
			"count":4,
			"max":[
				78.98632049560547,
				9.151860237121582,
				101.6212158203125
			],
			"min":[
				60.011741638183594,
				0,
				101.31218719482422
			],
			"type":"VEC3"
		},
		{
			"bufferView":5,
			"componentType":5126,
			"count":4,
			"type":"VEC3"
		},
		{
			"bufferView":6,
			"componentType":5126,
			"count":4,
			"type":"VEC2"
		},
		{
			"bufferView":7,
			"componentType":5123,
			"count":6,
			"type":"SCALAR"
		},
		{
			"bufferView":8,
			"componentType":5126,
			"count":4,
			"max":[
				83.83380889892578,
				9.114202499389648,
				32.116024017333984
			],
			"min":[
				83.76227569580078,
				-0.0376584455370903,
				21.206897735595703
			],
			"type":"VEC3"
		},
		{
			"bufferView":9,
			"componentType":5126,
			"count":4,
			"type":"VEC3"
		},
		{
			"bufferView":10,
			"componentType":5126,
			"count":4,
			"type":"VEC2"
		},
		{
			"bufferView":11,
			"componentType":5123,
			"count":6,
			"type":"SCALAR"
		},
		{
			"bufferView":12,
			"componentType":5126,
			"count":4,
			"max":[
				-64.275390625,
				9.151861190795898,
				34.344566345214844
			],
			"min":[
				-64.32689666748047,
				0,
				25.74317169189453
			],
			"type":"VEC3"
		},
		{
			"bufferView":13,
			"componentType":5126,
			"count":4,
			"type":"VEC3"
		},
		{
			"bufferView":14,
			"componentType":5126,
			"count":4,
			"type":"VEC2"
		}
	],
	"bufferViews":[
		{
			"buffer":0,
			"byteLength":10560,
			"byteOffset":0,
			"target":34962
		},
		{
			"buffer":0,
			"byteLength":10560,
			"byteOffset":10560,
			"target":34962
		},
		{
			"buffer":0,
			"byteLength":7040,
			"byteOffset":21120,
			"target":34962
		},
		{
			"buffer":0,
			"byteLength":3732,
			"byteOffset":28160,
			"target":34963
		},
		{
			"buffer":0,
			"byteLength":48,
			"byteOffset":31892,
			"target":34962
		},
		{
			"buffer":0,
			"byteLength":48,
			"byteOffset":31940,
			"target":34962
		},
		{
			"buffer":0,
			"byteLength":32,
			"byteOffset":31988,
			"target":34962
		},
		{
			"buffer":0,
			"byteLength":12,
			"byteOffset":32020,
			"target":34963
		},
		{
			"buffer":0,
			"byteLength":48,
			"byteOffset":32032,
			"target":34962
		},
		{
			"buffer":0,
			"byteLength":48,
			"byteOffset":32080,
			"target":34962
		},
		{
			"buffer":0,
			"byteLength":32,
			"byteOffset":32128,
			"target":34962
		},
		{
			"buffer":0,
			"byteLength":12,
			"byteOffset":32160,
			"target":34963
		},
		{
			"buffer":0,
			"byteLength":48,
			"byteOffset":32172,
			"target":34962
		},
		{
			"buffer":0,
			"byteLength":48,
			"byteOffset":32220,
			"target":34962
		},
		{
			"buffer":0,
			"byteLength":32,
			"byteOffset":32268,
			"target":34962
		}
	],
	"samplers":[
		{
			"magFilter":9729,
			"minFilter":9987
		}
	],
	"buffers":[
		{
			"byteLength":32300,
			"uri":"2thwalls.bin"
		}
	]
}
