{
	"asset":{
		"generator":"Khronos glTF Blender I/O v4.1.62",
		"version":"2.0"
	},
	"scene":0,
	"scenes":[
		{
			"name":"Scene",
			"nodes":[
				0,
				1,
				2,
				3
			]
		}
	],
	"nodes":[
		{
			"mesh":0,
			"name":"Walls",
			"scale":[
				0.33336496353149414,
				0.33336496353149414,
				0.33336496353149414
			],
			"translation":[
				-26.881887435913086,
				0,
				-25.385665893554688
			]
		},
		{
			"mesh":1,
			"name":"Plane.001",
			"scale":[
				0.33336496353149414,
				0.33336496353149414,
				0.33336496353149414
			],
			"translation":[
				-26.881887435913086,
				0,
				-25.385665893554688
			]
		},
		{
			"mesh":2,
			"name":"Plane.002",
			"scale":[
				0.33336496353149414,
				0.33336496353149414,
				0.33336496353149414
			],
			"translation":[
				-26.883708953857422,
				-0.012554003857076168,
				-25.400949478149414
			]
		},
		{
			"mesh":3,
			"name":"Plane.003",
			"scale":[
				0.33336496353149414,
				0.33336496353149414,
				0.33336496353149414
			],
			"translation":[
				-26.881887435913086,
				0,
				-25.385665893554688
			]
		}
	],
	"materials":[
		{
			"doubleSided":true,
			"name":"Material",
			"pbrMetallicRoughness":{
				"baseColorFactor":[
					1,
					0.6481940746307373,
					0,
					1
				],
				"metallicFactor":0,
				"roughnessFactor":0.5
			}
		},
		{
			"doubleSided":true,
			"name":"Material.002",
			"pbrMetallicRoughness":{
				"metallicFactor":0,
				"roughnessFactor":0.5
			}
		},
		{
			"doubleSided":true,
			"name":"Material.003",
			"pbrMetallicRoughness":{
				"metallicFactor":0,
				"roughnessFactor":0.5
			}
		},
		{
			"doubleSided":true,
			"name":"Material.004",
			"pbrMetallicRoughness":{
				"metallicFactor":0,
				"roughnessFactor":0.5
			}
		}
	],
	"meshes":[
		{
			"name":"Plane.003",
			"primitives":[
				{
					"attributes":{
						"POSITION":0,
						"NORMAL":1,
						"TEXCOORD_0":2
					},
					"indices":3,
					"material":0
				}
			]
		},
		{
			"name":"Plane.002",
			"primitives":[
				{
					"attributes":{
						"POSITION":4,
						"NORMAL":5,
						"TEXCOORD_0":6
					},
					"indices":7,
					"material":1
				}
			]
		},
		{
			"name":"Plane.004",
			"primitives":[
				{
					"attributes":{
						"POSITION":8,
						"NORMAL":9,
						"TEXCOORD_0":10
					},
					"indices":11,
					"material":2
				}
			]
		},
		{
			"name":"Plane.005",
			"primitives":[
				{
					"attributes":{
						"POSITION":12,
						"NORMAL":13,
						"TEXCOORD_0":14
					},
					"indices":11,
					"material":3
				}
			]
		}
	],
	"accessors":[
		{
			"bufferView":0,
			"componentType":5126,
			"count":880,
			"max":[
				84.52599334716797,
				9.151860237121582,
				103.40418243408203
			],
			"min":[
				-65.20246887207031,
				0,
				-1.1483354568481445
			],
			"type":"VEC3"
		},
		{
			"bufferView":1,
			"componentType":5126,
			"count":880,
			"type":"VEC3"
		},
		{
			"bufferView":2,
			"componentType":5126,
			"count":880,
			"type":"VEC2"
		},
		{
			"bufferView":3,
			"componentType":5123,
			"count":1866,
			"type":"SCALAR"
		},
		{
			"bufferView":4,
			"componentType":5126,
			"count":4,
			"max":[
				78.98631286621094,
				9.151859283447266,
				101.62120819091797
			],
			"min":[
				60.01173400878906,
				0,
				101.31217956542969
			],
			"type":"VEC3"
		},
		{
			"bufferView":5,
			"componentType":5126,
			"count":4,
			"type":"VEC3"
		},
		{
			"bufferView":6,
			"componentType":5126,
			"count":4,
			"type":"VEC2"
		},
		{
			"bufferView":7,
			"componentType":5123,
			"count":6,
			"type":"SCALAR"
		},
		{
			"bufferView":8,
			"componentType":5126,
			"count":4,
			"max":[
				83.8392562866211,
				9.151859283447266,
				32.1618766784668
			],
			"min":[
				83.7677230834961,
				0,
				21.25275421142578
			],
			"type":"VEC3"
		},
		{
			"bufferView":9,
			"componentType":5126,
			"count":4,
			"type":"VEC3"
		},
		{
			"bufferView":10,
			"componentType":5126,
			"count":4,
			"type":"VEC2"
		},
		{
			"bufferView":11,
			"componentType":5123,
			"count":6,
			"type":"SCALAR"
		},
		{
			"bufferView":12,
			"componentType":5126,
			"count":4,
			"max":[
				-64.27537536621094,
				9.151859283447266,
				34.344573974609375
			],
			"min":[
				-64.3268814086914,
				0,
				25.743179321289062
			],
			"type":"VEC3"
		},
		{
			"bufferView":13,
			"componentType":5126,
			"count":4,
			"type":"VEC3"
		},
		{
			"bufferView":14,
			"componentType":5126,
			"count":4,
			"type":"VEC2"
		}
	],
	"bufferViews":[
		{
			"buffer":0,
			"byteLength":10560,
			"byteOffset":0,
			"target":34962
		},
		{
			"buffer":0,
			"byteLength":10560,
			"byteOffset":10560,
			"target":34962
		},
		{
			"buffer":0,
			"byteLength":7040,
			"byteOffset":21120,
			"target":34962
		},
		{
			"buffer":0,
			"byteLength":3732,
			"byteOffset":28160,
			"target":34963
		},
		{
			"buffer":0,
			"byteLength":48,
			"byteOffset":31892,
			"target":34962
		},
		{
			"buffer":0,
			"byteLength":48,
			"byteOffset":31940,
			"target":34962
		},
		{
			"buffer":0,
			"byteLength":32,
			"byteOffset":31988,
			"target":34962
		},
		{
			"buffer":0,
			"byteLength":12,
			"byteOffset":32020,
			"target":34963
		},
		{
			"buffer":0,
			"byteLength":48,
			"byteOffset":32032,
			"target":34962
		},
		{
			"buffer":0,
			"byteLength":48,
			"byteOffset":32080,
			"target":34962
		},
		{
			"buffer":0,
			"byteLength":32,
			"byteOffset":32128,
			"target":34962
		},
		{
			"buffer":0,
			"byteLength":12,
			"byteOffset":32160,
			"target":34963
		},
		{
			"buffer":0,
			"byteLength":48,
			"byteOffset":32172,
			"target":34962
		},
		{
			"buffer":0,
			"byteLength":48,
			"byteOffset":32220,
			"target":34962
		},
		{
			"buffer":0,
			"byteLength":32,
			"byteOffset":32268,
			"target":34962
		}
	],
	"buffers":[
		{
			"byteLength":32300,
			"uri":"2thwalls.bin"
		}
	]
}
