{
	"asset":{
		"generator":"Khronos glTF Blender I/O v4.1.62",
		"version":"2.0"
	},
	"extensionsUsed":[
		"KHR_materials_transmission"
	],
	"scene":0,
	"scenes":[
		{
			"name":"Scene",
			"nodes":[
				0
			]
		}
	],
	"nodes":[
		{
			"mesh":0,
			"name":"Cylinder005_black-metal_0",
			"rotation":[
				-0.31883829832077026,
				-0.6311436295509338,
				-0.6311435699462891,
				0.3188381791114807
			],
			"scale":[
				0.01000000350177288,
				0.010000002570450306,
				0.010000002570450306
			],
			"translation":[
				8.639244079589844,
				0.8161994814872742,
				54.05844497680664
			]
		}
	],
	"materials":[
		{
			"doubleSided":true,
			"name":"black-metal",
			"pbrMetallicRoughness":{
				"baseColorFactor":[
					0.03921569883823395,
					0.03921569883823395,
					0.03921569883823395,
					1
				],
				"roughnessFactor":0.30000001192092896
			}
		},
		{
			"alphaMode":"BLEND",
			"doubleSided":true,
			"extensions":{
				"KHR_materials_transmission":{
					"transmissionFactor":0.26866915822029114
				}
			},
			"name":"water",
			"pbrMetallicRoughness":{
				"baseColorFactor":[
					0.716369092464447,
					0.8834365606307983,
					0.8609931468963623,
					0.7313308119773865
				],
				"metallicFactor":0,
				"roughnessFactor":0.511876106262207
			}
		},
		{
			"doubleSided":true,
			"name":"metal",
			"pbrMetallicRoughness":{
				"baseColorFactor":[
					0.4156860113143921,
					0.4156860113143921,
					0.4156860113143921,
					1
				],
				"roughnessFactor":0.20000000298023224
			}
		},
		{
			"doubleSided":true,
			"name":"metal-red",
			"pbrMetallicRoughness":{
				"baseColorFactor":[
					0.34509798884391785,
					0.03921569883823395,
					0.03921569883823395,
					1
				],
				"roughnessFactor":0.30000001192092896
			}
		},
		{
			"alphaMode":"BLEND",
			"doubleSided":true,
			"extensions":{
				"KHR_materials_transmission":{
					"transmissionFactor":0.4000000059604645
				}
			},
			"name":"plastic",
			"pbrMetallicRoughness":{
				"baseColorFactor":[
					0.5882350206375122,
					0.5882350206375122,
					0.5882350206375122,
					0.6000000238418579
				],
				"metallicFactor":0,
				"roughnessFactor":0.5
			}
		}
	],
	"meshes":[
		{
			"name":"Cylinder005_black-metal_0",
			"primitives":[
				{
					"attributes":{
						"POSITION":0,
						"NORMAL":1,
						"TEXCOORD_0":2,
						"TEXCOORD_1":3
					},
					"indices":4,
					"material":0
				},
				{
					"attributes":{
						"POSITION":5,
						"NORMAL":6,
						"TEXCOORD_0":7,
						"TEXCOORD_1":8
					},
					"indices":9,
					"material":1
				},
				{
					"attributes":{
						"POSITION":10,
						"NORMAL":11,
						"TEXCOORD_0":12,
						"TEXCOORD_1":13
					},
					"indices":14,
					"material":2
				},
				{
					"attributes":{
						"POSITION":15,
						"NORMAL":16,
						"TEXCOORD_0":17,
						"TEXCOORD_1":18
					},
					"indices":19,
					"material":3
				},
				{
					"attributes":{
						"POSITION":20,
						"NORMAL":21,
						"TEXCOORD_0":22,
						"TEXCOORD_1":23
					},
					"indices":24,
					"material":4
				}
			]
		}
	],
	"accessors":[
		{
			"bufferView":0,
			"componentType":5126,
			"count":557,
			"max":[
				4.248105525970459,
				26.29987335205078,
				4.508756637573242
			],
			"min":[
				-19.10361671447754,
				-1.1129485368728638,
				-24.38482666015625
			],
			"type":"VEC3"
		},
		{
			"bufferView":1,
			"componentType":5126,
			"count":557,
			"type":"VEC3"
		},
		{
			"bufferView":2,
			"componentType":5126,
			"count":557,
			"type":"VEC2"
		},
		{
			"bufferView":3,
			"componentType":5126,
			"count":557,
			"type":"VEC2"
		},
		{
			"bufferView":4,
			"componentType":5123,
			"count":990,
			"type":"SCALAR"
		},
		{
			"bufferView":5,
			"componentType":5126,
			"count":55,
			"max":[
				4.24810266494751,
				26.30035972595215,
				0.0206513199955225
			],
			"min":[
				-19.103614807128906,
				17.829357147216797,
				-20.056957244873047
			],
			"type":"VEC3"
		},
		{
			"bufferView":6,
			"componentType":5126,
			"count":55,
			"type":"VEC3"
		},
		{
			"bufferView":7,
			"componentType":5126,
			"count":55,
			"type":"VEC2"
		},
		{
			"bufferView":8,
			"componentType":5126,
			"count":55,
			"type":"VEC2"
		},
		{
			"bufferView":9,
			"componentType":5123,
			"count":132,
			"type":"SCALAR"
		},
		{
			"bufferView":10,
			"componentType":5126,
			"count":236,
			"max":[
				3.5568439960479736,
				11.438957214355469,
				1.5321674346923828
			],
			"min":[
				-18.412355422973633,
				-1.3640366792678833,
				-20.396162033081055
			],
			"type":"VEC3"
		},
		{
			"bufferView":11,
			"componentType":5126,
			"count":236,
			"type":"VEC3"
		},
		{
			"bufferView":12,
			"componentType":5126,
			"count":236,
			"type":"VEC2"
		},
		{
			"bufferView":13,
			"componentType":5126,
			"count":236,
			"type":"VEC2"
		},
		{
			"bufferView":14,
			"componentType":5123,
			"count":450,
			"type":"SCALAR"
		},
		{
			"bufferView":15,
			"componentType":5126,
			"count":305,
			"max":[
				4.248104095458984,
				17.82935905456543,
				5.916950225830078
			],
			"min":[
				-19.103614807128906,
				-6.535899639129639,
				-24.38481903076172
			],
			"type":"VEC3"
		},
		{
			"bufferView":16,
			"componentType":5126,
			"count":305,
			"type":"VEC3"
		},
		{
			"bufferView":17,
			"componentType":5126,
			"count":305,
			"type":"VEC2"
		},
		{
			"bufferView":18,
			"componentType":5126,
			"count":305,
			"type":"VEC2"
		},
		{
			"bufferView":19,
			"componentType":5123,
			"count":468,
			"type":"SCALAR"
		},
		{
			"bufferView":20,
			"componentType":5126,
			"count":61,
			"max":[
				4.24810266494751,
				26.30035972595215,
				8.54190731048584
			],
			"min":[
				-19.103614807128906,
				17.829357147216797,
				0.0206513199955225
			],
			"type":"VEC3"
		},
		{
			"bufferView":21,
			"componentType":5126,
			"count":61,
			"type":"VEC3"
		},
		{
			"bufferView":22,
			"componentType":5126,
			"count":61,
			"type":"VEC2"
		},
		{
			"bufferView":23,
			"componentType":5126,
			"count":61,
			"type":"VEC2"
		},
		{
			"bufferView":24,
			"componentType":5123,
			"count":168,
			"type":"SCALAR"
		}
	],
	"bufferViews":[
		{
			"buffer":0,
			"byteLength":6684,
			"byteOffset":0,
			"target":34962
		},
		{
			"buffer":0,
			"byteLength":6684,
			"byteOffset":6684,
			"target":34962
		},
		{
			"buffer":0,
			"byteLength":4456,
			"byteOffset":13368,
			"target":34962
		},
		{
			"buffer":0,
			"byteLength":4456,
			"byteOffset":17824,
			"target":34962
		},
		{
			"buffer":0,
			"byteLength":1980,
			"byteOffset":22280,
			"target":34963
		},
		{
			"buffer":0,
			"byteLength":660,
			"byteOffset":24260,
			"target":34962
		},
		{
			"buffer":0,
			"byteLength":660,
			"byteOffset":24920,
			"target":34962
		},
		{
			"buffer":0,
			"byteLength":440,
			"byteOffset":25580,
			"target":34962
		},
		{
			"buffer":0,
			"byteLength":440,
			"byteOffset":26020,
			"target":34962
		},
		{
			"buffer":0,
			"byteLength":264,
			"byteOffset":26460,
			"target":34963
		},
		{
			"buffer":0,
			"byteLength":2832,
			"byteOffset":26724,
			"target":34962
		},
		{
			"buffer":0,
			"byteLength":2832,
			"byteOffset":29556,
			"target":34962
		},
		{
			"buffer":0,
			"byteLength":1888,
			"byteOffset":32388,
			"target":34962
		},
		{
			"buffer":0,
			"byteLength":1888,
			"byteOffset":34276,
			"target":34962
		},
		{
			"buffer":0,
			"byteLength":900,
			"byteOffset":36164,
			"target":34963
		},
		{
			"buffer":0,
			"byteLength":3660,
			"byteOffset":37064,
			"target":34962
		},
		{
			"buffer":0,
			"byteLength":3660,
			"byteOffset":40724,
			"target":34962
		},
		{
			"buffer":0,
			"byteLength":2440,
			"byteOffset":44384,
			"target":34962
		},
		{
			"buffer":0,
			"byteLength":2440,
			"byteOffset":46824,
			"target":34962
		},
		{
			"buffer":0,
			"byteLength":936,
			"byteOffset":49264,
			"target":34963
		},
		{
			"buffer":0,
			"byteLength":732,
			"byteOffset":50200,
			"target":34962
		},
		{
			"buffer":0,
			"byteLength":732,
			"byteOffset":50932,
			"target":34962
		},
		{
			"buffer":0,
			"byteLength":488,
			"byteOffset":51664,
			"target":34962
		},
		{
			"buffer":0,
			"byteLength":488,
			"byteOffset":52152,
			"target":34962
		},
		{
			"buffer":0,
			"byteLength":336,
			"byteOffset":52640,
			"target":34963
		}
	],
	"buffers":[
		{
			"byteLength":52976,
			"uri":"coffeemachine.bin"
		}
	]
}
