{
	"asset":{
		"generator":"Khronos glTF Blender I/O v4.1.63",
		"version":"2.0"
	},
	"scene":0,
	"scenes":[
		{
			"name":"Scene",
			"nodes":[
				0
			]
		}
	],
	"nodes":[
		{
			"mesh":0,
			"name":"Floor.001",
			"scale":[
				1.248437523841858,
				1.248437523841858,
				1.248437523841858
			],
			"translation":[
				2.81180477142334,
				0,
				-18.05125617980957
			]
		}
	],
	"materials":[
		{
			"doubleSided":true,
			"name":"Floor.0",
			"pbrMetallicRoughness":{
				"baseColorFactor":[
					0.15626347064971924,
					0.15626347064971924,
					0.15626347064971924,
					1
				],
				"metallicFactor":0,
				"roughnessFactor":0.5
			}
		}
	],
	"meshes":[
		{
			"name":"Plane.015",
			"primitives":[
				{
					"attributes":{
						"POSITION":0,
						"NORMAL":1,
						"TEXCOORD_0":2
					},
					"indices":3,
					"material":0
				}
			]
		}
	],
	"accessors":[
		{
			"bufferView":0,
			"componentType":5126,
			"count":16,
			"max":[
				20.992582321166992,
				0,
				25.244525909423828
			],
			"min":[
				-15.16165542602539,
				0,
				-22.662681579589844
			],
			"type":"VEC3"
		},
		{
			"bufferView":1,
			"componentType":5126,
			"count":16,
			"type":"VEC3"
		},
		{
			"bufferView":2,
			"componentType":5126,
			"count":16,
			"type":"VEC2"
		},
		{
			"bufferView":3,
			"componentType":5123,
			"count":42,
			"type":"SCALAR"
		}
	],
	"bufferViews":[
		{
			"buffer":0,
			"byteLength":192,
			"byteOffset":0,
			"target":34962
		},
		{
			"buffer":0,
			"byteLength":192,
			"byteOffset":192,
			"target":34962
		},
		{
			"buffer":0,
			"byteLength":128,
			"byteOffset":384,
			"target":34962
		},
		{
			"buffer":0,
			"byteLength":84,
			"byteOffset":512,
			"target":34963
		}
	],
	"buffers":[
		{
			"byteLength":596,
			"uri":"5thfloor.bin"
		}
	]
}
