{
  "accessors": [
    {
      "bufferView": 1,
      "componentType": 5126,
      "count": 352,
      "max": [
        1.5132700204849243,
        1.5132700204849243,
        6.4822998046875
      ],
      "min": [
        -1.5132700204849243,
        -1.5132700204849243,
        -1.0
      ],
      "type": "VEC3"
    },
    {
      "bufferView": 1,
      "byteOffset": 4224,
      "componentType": 5126,
      "count": 352,
      "max": [
        1.0,
        1.0,
        0.0
      ],
      "min": [
        -1.0,
        -1.0,
        -1.0
      ],
      "type": "VEC3"
    },
    {
      "bufferView": 0,
      "componentType": 5125,
      "count": 1434,
      "type": "SCALAR"
    },
    {
      "bufferView": 1,
      "byteOffset": 8448,
      "componentType": 5126,
      "count": 304,
      "max": [
        1.5132700204849243,
        1.5132700204849243,
        7.428309917449951
      ],
      "min": [
        -1.5132700204849243,
        -1.5132700204849243,
        3.5231900215148926
      ],
      "type": "VEC3"
    },
    {
      "bufferView": 1,
      "byteOffset": 12096,
      "componentType": 5126,
      "count": 304,
      "max": [
        1.0,
        1.0,
        1.0
      ],
      "min": [
        -1.0,
        -1.0,
        -1.0
      ],
      "type": "VEC3"
    },
    {
      "bufferView": 0,
      "byteOffset": 5736,
      "componentType": 5125,
      "count": 786,
      "type": "SCALAR"
    },
    {
      "bufferView": 1,
      "byteOffset": 15744,
      "componentType": 5126,
      "count": 116,
      "max": [
        0.32214999198913574,
        -0.8026999831199646,
        4.4783101081848145
      ],
      "min": [
        -0.337799996137619,
        -1.1128300428390503,
        3.4006600379943848
      ],
      "type": "VEC3"
    },
    {
      "bufferView": 1,
      "byteOffset": 17136,
      "componentType": 5126,
      "count": 116,
      "max": [
        0.9924859404563904,
        0.6857055425643921,
        0.9900803565979004
      ],
      "min": [
        -0.9924859404563904,
        -1.0,
        -0.9900803565979004
      ],
      "type": "VEC3"
    },
    {
      "bufferView": 0,
      "byteOffset": 8880,
      "componentType": 5125,
      "count": 630,
      "type": "SCALAR"
    },
    {
      "bufferView": 1,
      "byteOffset": 18528,
      "componentType": 5126,
      "count": 32,
      "max": [
        1.4791100025177002,
        1.4791100025177002,
        6.566359996795654
      ],
      "min": [
        -1.4791100025177002,
        -1.4791100025177002,
        6.566359996795654
      ],
      "type": "VEC3"
    },
    {
      "bufferView": 1,
      "byteOffset": 18912,
      "componentType": 5126,
      "count": 32,
      "max": [
        0.0,
        0.0,
        1.0
      ],
      "min": [
        0.0,
        0.0,
        1.0
      ],
      "type": "VEC3"
    },
    {
      "bufferView": 0,
      "byteOffset": 11400,
      "componentType": 5125,
      "count": 90,
      "type": "SCALAR"
    },
    {
      "bufferView": 1,
      "byteOffset": 19296,
      "componentType": 5126,
      "count": 32,
      "max": [
        1.2708799839019775,
        1.2708799839019775,
        7.1717000007629395
      ],
      "min": [
        -1.2708799839019775,
        -1.2708799839019775,
        7.1717000007629395
      ],
      "type": "VEC3"
    },
    {
      "bufferView": 1,
      "byteOffset": 19680,
      "componentType": 5126,
      "count": 32,
      "max": [
        0.0,
        0.0,
        1.0
      ],
      "min": [
        0.0,
        0.0,
        1.0
      ],
      "type": "VEC3"
    },
    {
      "bufferView": 0,
      "byteOffset": 11760,
      "componentType": 5125,
      "count": 90,
      "type": "SCALAR"
    }
  ],
  "asset": {
    "extras": {
      "author": "davibatnas (https://sketchfab.com/davibatnas)",
      "license": "CC-BY-SA-4.0 (http://creativecommons.org/licenses/by-sa/4.0/)",
      "source": "https://sketchfab.com/3d-models/flashlight-3c1b7f53b09249618ebe9aa37a164e0f",
      "title": "Flashlight"
    },
    "generator": "Sketchfab-12.66.0",
    "version": "2.0"
  },
  "bufferViews": [
    {
      "buffer": 0,
      "byteLength": 12120,
      "name": "floatBufferViews",
      "target": 34963
    },
    {
      "buffer": 0,
      "byteLength": 20064,
      "byteOffset": 12120,
      "byteStride": 12,
      "name": "floatBufferViews",
      "target": 34962
    }
  ],
  "buffers": [
    {
      "byteLength": 32184,
      "uri": "scene.bin"
    }
  ],
  "extensionsUsed": [
    "KHR_materials_transmission"
  ],
  "materials": [
    {
      "doubleSided": true,
      "name": "Plastico",
      "pbrMetallicRoughness": {
        "baseColorFactor": [
          0.7912980914,
          0.3967552483,
          0.0251868591,
          1.0
        ],
        "metallicFactor": 0.0,
        "roughnessFactor": 0.2
      }
    },
    {
      "doubleSided": true,
      "name": "Plastico_Preto",
      "pbrMetallicRoughness": {
        "baseColorFactor": [
          0.0015626153,
          0.0005208835,
          0.0071935519,
          1.0
        ],
        "metallicFactor": 0.0,
        "roughnessFactor": 0.35
      }
    },
    {
      "doubleSided": true,
      "name": "Plastico_Branco",
      "pbrMetallicRoughness": {
        "baseColorFactor": [
          0.4041702476,
          0.3983579576,
          0.4404641729,
          1.0
        ],
        "metallicFactor": 0.0,
        "roughnessFactor": 0.3
      }
    },
    {
      "doubleSided": true,
      "emissiveFactor": [
        1.0,
        1.0,
        1.0
      ],
      "name": "material",
      "pbrMetallicRoughness": {
        "baseColorFactor": [
          0.0,
          0.0,
          0.0,
          1.0
        ],
        "metallicFactor": 0.0,
        "roughnessFactor": 0.0
      }
    },
    {
      "alphaMode": "BLEND",
      "doubleSided": true,
      "extensions": {
        "KHR_materials_transmission": {
          "transmissionFactor": 0.6
        }
      },
      "name": "Vidro",
      "pbrMetallicRoughness": {
        "baseColorFactor": [
          0.0,
          0.0,
          0.0,
          0.4
        ],
        "metallicFactor": 0.0261051829,
        "roughnessFactor": 0.0
      }
    }
  ],
  "meshes": [
    {
      "name": "Cylinder_0",
      "primitives": [
        {
          "attributes": {
            "NORMAL": 1,
            "POSITION": 0
          },
          "indices": 2,
          "material": 0,
          "mode": 4
        }
      ]
    },
    {
      "name": "Cylinder_1",
      "primitives": [
        {
          "attributes": {
            "NORMAL": 4,
            "POSITION": 3
          },
          "indices": 5,
          "material": 1,
          "mode": 4
        }
      ]
    },
    {
      "name": "Cylinder_2",
      "primitives": [
        {
          "attributes": {
            "NORMAL": 7,
            "POSITION": 6
          },
          "indices": 8,
          "material": 2,
          "mode": 4
        }
      ]
    },
    {
      "name": "Cylinder_3",
      "primitives": [
        {
          "attributes": {
            "NORMAL": 10,
            "POSITION": 9
          },
          "indices": 11,
          "material": 3,
          "mode": 4
        }
      ]
    },
    {
      "name": "Cylinder_4",
      "primitives": [
        {
          "attributes": {
            "NORMAL": 13,
            "POSITION": 12
          },
          "indices": 14,
          "material": 4,
          "mode": 4
        }
      ]
    }
  ],
  "nodes": [
    {
      "children": [
        1
      ],
      "matrix": [
        1.0,
        0.0,
        0.0,
        0.0,
        0.0,
        2.220446049250313e-16,
        -1.0,
        0.0,
        0.0,
        1.0,
        2.220446049250313e-16,
        0.0,
        0.0,
        0.0,
        0.0,
        1.0
      ],
      "name": "Sketchfab_model"
    },
    {
      "children": [
        2
      ],
      "name": "Root"
    },
    {
      "children": [
        3,
        4,
        5,
        6,
        7
      ],
      "matrix": [
        1.0,
        0.0,
        0.0,
        0.0,
        0.0,
        1.0,
        0.0,
        0.0,
        0.0,
        0.0,
        1.0,
        0.0,
        0.0,
        0.0,
        2.9360099999999996,
        1.0
      ],
      "name": "Cylinder"
    },
    {
      "mesh": 0,
      "name": "Cylinder_0"
    },
    {
      "mesh": 1,
      "name": "Cylinder_1"
    },
    {
      "mesh": 2,
      "name": "Cylinder_2"
    },
    {
      "mesh": 3,
      "name": "Cylinder_3"
    },
    {
      "mesh": 4,
      "name": "Cylinder_4"
    }
  ],
  "scene": 0,
  "scenes": [
    {
      "name": "Sketchfab_Scene",
      "nodes": [
        0
      ]
    }
  ]
}
