{
	"asset":{
		"generator":"Khronos glTF Blender I/O v4.1.62",
		"version":"2.0"
	},
	"extensionsUsed":[
		"EXT_texture_webp"
	],
	"extensionsRequired":[
		"EXT_texture_webp"
	],
	"scene":0,
	"scenes":[
		{
			"name":"Scene",
			"nodes":[
				0
			]
		}
	],
	"nodes":[
		{
			"mesh":0,
			"name":"hissi",
			"scale":[
				1,
				1,
				1.2130298614501953
			],
			"translation":[
				-0.06562653928995132,
				-0.04952371120452881,
				-7.650580406188965
			]
		}
	],
	"materials":[
		{
			"doubleSided":true,
			"name":"Material.003",
			"pbrMetallicRoughness":{
				"baseColorTexture":{
					"index":0
				},
				"metallicFactor":0.4196891188621521,
				"roughnessFactor":0.5
			}
		}
	],
	"meshes":[
		{
			"name":"hissi",
			"primitives":[
				{
					"attributes":{
						"POSITION":0,
						"NORMAL":1,
						"TEXCOORD_0":2
					},
					"indices":3,
					"material":0
				}
			]
		}
	],
	"textures":[
		{
			"extensions":{
				"EXT_texture_webp":{
					"source":0
				}
			},
			"sampler":0
		}
	],
	"images":[
		{
			"mimeType":"image/webp",
			"name":"modern-passenger-cargo-elevators-lifts-260nw-1484835944",
			"uri":"modern-passenger-cargo-elevators-lifts-260nw-1484835944.webp"
		}
	],
	"accessors":[
		{
			"bufferView":0,
			"componentType":5126,
			"count":95,
			"max":[
				1,
				3,
				1
			],
			"min":[
				-1.0304125547409058,
				-0.01055991556495428,
				-1
			],
			"type":"VEC3"
		},
		{
			"bufferView":1,
			"componentType":5126,
			"count":95,
			"type":"VEC3"
		},
		{
			"bufferView":2,
			"componentType":5126,
			"count":95,
			"type":"VEC2"
		},
		{
			"bufferView":3,
			"componentType":5123,
			"count":171,
			"type":"SCALAR"
		}
	],
	"bufferViews":[
		{
			"buffer":0,
			"byteLength":1140,
			"byteOffset":0,
			"target":34962
		},
		{
			"buffer":0,
			"byteLength":1140,
			"byteOffset":1140,
			"target":34962
		},
		{
			"buffer":0,
			"byteLength":760,
			"byteOffset":2280,
			"target":34962
		},
		{
			"buffer":0,
			"byteLength":342,
			"byteOffset":3040,
			"target":34963
		}
	],
	"samplers":[
		{
			"magFilter":9729,
			"minFilter":9987
		}
	],
	"buffers":[
		{
			"byteLength":3384,
			"uri":"hissi.bin"
		}
	]
}
