{
	"asset":{
		"generator":"Khronos glTF Blender I/O v4.1.62",
		"version":"2.0"
	},
	"extensionsUsed":[
		"EXT_texture_webp"
	],
	"extensionsRequired":[
		"EXT_texture_webp"
	],
	"scene":0,
	"scenes":[
		{
			"name":"Scene",
			"nodes":[
				0
			]
		}
	],
	"nodes":[
		{
			"mesh":0,
			"name":"hissidown",
			"scale":[
				1,
				1,
				1.2130298614501953
			],
			"translation":[
				-0.06562653928995132,
				-0.04952371120452881,
				-7.650580406188965
			]
		}
	],
	"materials":[
		{
			"doubleSided":true,
			"name":"Material.003",
			"pbrMetallicRoughness":{
				"baseColorTexture":{
					"index":0
				},
				"metallicFactor":0.4196891188621521,
				"roughnessFactor":0.5
			}
		},
		{
			"doubleSided":true,
			"name":"Material.004",
			"pbrMetallicRoughness":{
				"baseColorTexture":{
					"index":1
				},
				"metallicFactor":0,
				"roughnessFactor":0.5
			}
		}
	],
	"meshes":[
		{
			"name":"hissi.002",
			"primitives":[
				{
					"attributes":{
						"POSITION":0,
						"NORMAL":1,
						"TEXCOORD_0":2
					},
					"indices":3,
					"material":0
				},
				{
					"attributes":{
						"POSITION":4,
						"NORMAL":5,
						"TEXCOORD_0":6
					},
					"indices":7,
					"material":1
				}
			]
		}
	],
	"textures":[
		{
			"extensions":{
				"EXT_texture_webp":{
					"source":0
				}
			},
			"sampler":0
		},
		{
			"sampler":0,
			"source":1
		}
	],
	"images":[
		{
			"mimeType":"image/webp",
			"name":"modern-passenger-cargo-elevators-lifts-260nw-1484835944",
			"uri":"modern-passenger-cargo-elevators-lifts-260nw-1484835944.webp"
		},
		{
			"mimeType":"image/jpeg",
			"name":"elevator-buttons-1533900628-4184399",
			"uri":"elevator-buttons-1533900628-4184399.jpg"
		}
	],
	"accessors":[
		{
			"bufferView":0,
			"componentType":5126,
			"count":32,
			"max":[
				-0.94557124376297,
				1.3116527795791626,
				-0.5313704013824463
			],
			"min":[
				-1.042382836341858,
				1.2093247175216675,
				-0.589287519454956
			],
			"type":"VEC3"
		},
		{
			"bufferView":1,
			"componentType":5126,
			"count":32,
			"type":"VEC3"
		},
		{
			"bufferView":2,
			"componentType":5126,
			"count":32,
			"type":"VEC2"
		},
		{
			"bufferView":3,
			"componentType":5123,
			"count":63,
			"type":"SCALAR"
		},
		{
			"bufferView":4,
			"componentType":5126,
			"count":5,
			"max":[
				-1.042382836341858,
				1.3116527795791626,
				-0.5313704013824463
			],
			"min":[
				-1.042382836341858,
				1.2093247175216675,
				-0.589287519454956
			],
			"type":"VEC3"
		},
		{
			"bufferView":5,
			"componentType":5126,
			"count":5,
			"type":"VEC3"
		},
		{
			"bufferView":6,
			"componentType":5126,
			"count":5,
			"type":"VEC2"
		},
		{
			"bufferView":7,
			"componentType":5123,
			"count":9,
			"type":"SCALAR"
		}
	],
	"bufferViews":[
		{
			"buffer":0,
			"byteLength":384,
			"byteOffset":0,
			"target":34962
		},
		{
			"buffer":0,
			"byteLength":384,
			"byteOffset":384,
			"target":34962
		},
		{
			"buffer":0,
			"byteLength":256,
			"byteOffset":768,
			"target":34962
		},
		{
			"buffer":0,
			"byteLength":126,
			"byteOffset":1024,
			"target":34963
		},
		{
			"buffer":0,
			"byteLength":60,
			"byteOffset":1152,
			"target":34962
		},
		{
			"buffer":0,
			"byteLength":60,
			"byteOffset":1212,
			"target":34962
		},
		{
			"buffer":0,
			"byteLength":40,
			"byteOffset":1272,
			"target":34962
		},
		{
			"buffer":0,
			"byteLength":18,
			"byteOffset":1312,
			"target":34963
		}
	],
	"samplers":[
		{
			"magFilter":9729,
			"minFilter":9987
		}
	],
	"buffers":[
		{
			"byteLength":1332,
			"uri":"hissidown.bin"
		}
	]
}
