{
	"asset":{
		"generator":"Khronos glTF Blender I/O v4.1.62",
		"version":"2.0"
	},
	"extensionsUsed":[
		"KHR_materials_specular"
	],
	"scene":0,
	"scenes":[
		{
			"name":"Scene",
			"nodes":[
				0
			]
		}
	],
	"nodes":[
		{
			"mesh":0,
			"name":"sohva",
			"rotation":[
				0.5038289427757263,
				-0.4961414933204651,
				0.4961414635181427,
				0.5038290023803711
			],
			"scale":[
				0.07743097096681595,
				0.07743097096681595,
				0.07743097096681595
			]
		}
	],
	"materials":[
		{
			"doubleSided":true,
			"extensions":{
				"KHR_materials_specular":{
					"specularFactor":0
				}
			},
			"name":"Textured_mesh_1_tex0.004",
			"pbrMetallicRoughness":{
				"baseColorTexture":{
					"index":0
				},
				"metallicFactor":0
			}
		},
		{
			"doubleSided":true,
			"extensions":{
				"KHR_materials_specular":{
					"specularFactor":0
				}
			},
			"name":"Textured_mesh_1_tex1.004",
			"pbrMetallicRoughness":{
				"baseColorTexture":{
					"index":1
				},
				"metallicFactor":0
			}
		},
		{
			"doubleSided":true,
			"extensions":{
				"KHR_materials_specular":{
					"specularFactor":0
				}
			},
			"name":"Textured_mesh_1_tex2.004",
			"pbrMetallicRoughness":{
				"baseColorTexture":{
					"index":2
				},
				"metallicFactor":0
			}
		},
		{
			"doubleSided":true,
			"extensions":{
				"KHR_materials_specular":{
					"specularFactor":0
				}
			},
			"name":"Textured_mesh_1_tex3.002",
			"pbrMetallicRoughness":{
				"baseColorTexture":{
					"index":3
				},
				"metallicFactor":0
			}
		},
		{
			"doubleSided":true,
			"extensions":{
				"KHR_materials_specular":{
					"specularFactor":0
				}
			},
			"name":"Textured_mesh_1_tex4.002",
			"pbrMetallicRoughness":{
				"baseColorTexture":{
					"index":4
				},
				"metallicFactor":0
			}
		}
	],
	"meshes":[
		{
			"name":"Textured_mesh_1.003",
			"primitives":[
				{
					"attributes":{
						"POSITION":0,
						"NORMAL":1,
						"TEXCOORD_0":2
					},
					"indices":3,
					"material":0
				},
				{
					"attributes":{
						"POSITION":4,
						"NORMAL":5,
						"TEXCOORD_0":6
					},
					"indices":7,
					"material":1
				},
				{
					"attributes":{
						"POSITION":8,
						"NORMAL":9,
						"TEXCOORD_0":10
					},
					"indices":11,
					"material":2
				},
				{
					"attributes":{
						"POSITION":12,
						"NORMAL":13,
						"TEXCOORD_0":14
					},
					"indices":15,
					"material":3
				},
				{
					"attributes":{
						"POSITION":16,
						"NORMAL":17,
						"TEXCOORD_0":18
					},
					"indices":19,
					"material":4
				}
			]
		}
	],
	"textures":[
		{
			"sampler":0,
			"source":0
		},
		{
			"sampler":0,
			"source":1
		},
		{
			"sampler":0,
			"source":2
		},
		{
			"sampler":0,
			"source":3
		},
		{
			"sampler":0,
			"source":4
		}
	],
	"images":[
		{
			"mimeType":"image/jpeg",
			"name":"Textured_mesh_1_tex0",
			"uri":"Textured_mesh_1_tex0.jpg"
		},
		{
			"mimeType":"image/jpeg",
			"name":"Textured_mesh_1_tex1",
			"uri":"Textured_mesh_1_tex1.jpg"
		},
		{
			"mimeType":"image/jpeg",
			"name":"Textured_mesh_1_tex2",
			"uri":"Textured_mesh_1_tex2.jpg"
		},
		{
			"mimeType":"image/jpeg",
			"name":"Textured_mesh_1_tex3",
			"uri":"Textured_mesh_1_tex3.jpg"
		},
		{
			"mimeType":"image/jpeg",
			"name":"Textured_mesh_1_tex4",
			"uri":"Textured_mesh_1_tex4.jpg"
		}
	],
	"accessors":[
		{
			"bufferView":0,
			"componentType":5126,
			"count":75795,
			"max":[
				36.65925216674805,
				12.669466972351074,
				0.08669376373291016
			],
			"min":[
				-14.4686861038208,
				-10.290690422058105,
				-19.942941665649414
			],
			"type":"VEC3"
		},
		{
			"bufferView":1,
			"componentType":5126,
			"count":75795,
			"type":"VEC3"
		},
		{
			"bufferView":2,
			"componentType":5126,
			"count":75795,
			"type":"VEC2"
		},
		{
			"bufferView":3,
			"componentType":5125,
			"count":316956,
			"type":"SCALAR"
		},
		{
			"bufferView":4,
			"componentType":5126,
			"count":85470,
			"max":[
				36.65925216674805,
				12.610893249511719,
				0.07785511016845703
			],
			"min":[
				-14.4686861038208,
				-10.285791397094727,
				-19.942941665649414
			],
			"type":"VEC3"
		},
		{
			"bufferView":5,
			"componentType":5126,
			"count":85470,
			"type":"VEC3"
		},
		{
			"bufferView":6,
			"componentType":5126,
			"count":85470,
			"type":"VEC2"
		},
		{
			"bufferView":7,
			"componentType":5125,
			"count":394362,
			"type":"SCALAR"
		},
		{
			"bufferView":8,
			"componentType":5126,
			"count":74618,
			"max":[
				36.65925216674805,
				12.455595970153809,
				-0.0136260986328125
			],
			"min":[
				-14.219346046447754,
				-10.282829284667969,
				-19.940338134765625
			],
			"type":"VEC3"
		},
		{
			"bufferView":9,
			"componentType":5126,
			"count":74618,
			"type":"VEC3"
		},
		{
			"bufferView":10,
			"componentType":5126,
			"count":74618,
			"type":"VEC2"
		},
		{
			"bufferView":11,
			"componentType":5125,
			"count":287355,
			"type":"SCALAR"
		},
		{
			"bufferView":12,
			"componentType":5126,
			"count":69144,
			"max":[
				36.60751724243164,
				12.289381980895996,
				-0.07706356048583984
			],
			"min":[
				-14.055027961730957,
				-10.304041862487793,
				-19.849050521850586
			],
			"type":"VEC3"
		},
		{
			"bufferView":13,
			"componentType":5126,
			"count":69144,
			"type":"VEC3"
		},
		{
			"bufferView":14,
			"componentType":5126,
			"count":69144,
			"type":"VEC2"
		},
		{
			"bufferView":15,
			"componentType":5125,
			"count":228672,
			"type":"SCALAR"
		},
		{
			"bufferView":16,
			"componentType":5126,
			"count":50606,
			"max":[
				36.585166931152344,
				12.610893249511719,
				-0.3954143524169922
			],
			"min":[
				-14.048985481262207,
				-10.283308982849121,
				-19.9160213470459
			],
			"type":"VEC3"
		},
		{
			"bufferView":17,
			"componentType":5126,
			"count":50606,
			"type":"VEC3"
		},
		{
			"bufferView":18,
			"componentType":5126,
			"count":50606,
			"type":"VEC2"
		},
		{
			"bufferView":19,
			"componentType":5123,
			"count":124581,
			"type":"SCALAR"
		}
	],
	"bufferViews":[
		{
			"buffer":0,
			"byteLength":909540,
			"byteOffset":0,
			"target":34962
		},
		{
			"buffer":0,
			"byteLength":909540,
			"byteOffset":909540,
			"target":34962
		},
		{
			"buffer":0,
			"byteLength":606360,
			"byteOffset":1819080,
			"target":34962
		},
		{
			"buffer":0,
			"byteLength":1267824,
			"byteOffset":2425440,
			"target":34963
		},
		{
			"buffer":0,
			"byteLength":1025640,
			"byteOffset":3693264,
			"target":34962
		},
		{
			"buffer":0,
			"byteLength":1025640,
			"byteOffset":4718904,
			"target":34962
		},
		{
			"buffer":0,
			"byteLength":683760,
			"byteOffset":5744544,
			"target":34962
		},
		{
			"buffer":0,
			"byteLength":1577448,
			"byteOffset":6428304,
			"target":34963
		},
		{
			"buffer":0,
			"byteLength":895416,
			"byteOffset":8005752,
			"target":34962
		},
		{
			"buffer":0,
			"byteLength":895416,
			"byteOffset":8901168,
			"target":34962
		},
		{
			"buffer":0,
			"byteLength":596944,
			"byteOffset":9796584,
			"target":34962
		},
		{
			"buffer":0,
			"byteLength":1149420,
			"byteOffset":10393528,
			"target":34963
		},
		{
			"buffer":0,
			"byteLength":829728,
			"byteOffset":11542948,
			"target":34962
		},
		{
			"buffer":0,
			"byteLength":829728,
			"byteOffset":12372676,
			"target":34962
		},
		{
			"buffer":0,
			"byteLength":553152,
			"byteOffset":13202404,
			"target":34962
		},
		{
			"buffer":0,
			"byteLength":914688,
			"byteOffset":13755556,
			"target":34963
		},
		{
			"buffer":0,
			"byteLength":607272,
			"byteOffset":14670244,
			"target":34962
		},
		{
			"buffer":0,
			"byteLength":607272,
			"byteOffset":15277516,
			"target":34962
		},
		{
			"buffer":0,
			"byteLength":404848,
			"byteOffset":15884788,
			"target":34962
		},
		{
			"buffer":0,
			"byteLength":249162,
			"byteOffset":16289636,
			"target":34963
		}
	],
	"samplers":[
		{
			"magFilter":9729,
			"minFilter":9987
		}
	],
	"buffers":[
		{
			"byteLength":16538800,
			"uri":"sohva.bin"
		}
	]
}
