{
	"asset":{
		"generator":"Khronos glTF Blender I/O v4.1.62",
		"version":"2.0"
	},
	"scene":0,
	"scenes":[
		{
			"name":"Scene",
			"nodes":[
				0
			]
		}
	],
	"nodes":[
		{
			"mesh":0,
			"name":"Sohva",
			"rotation":[
				0,
				-0.007072241976857185,
				0,
				0.9999750852584839
			],
			"scale":[
				0.6085980534553528,
				0.2588563561439514,
				1.2498747110366821
			],
			"translation":[
				-31.917861938476562,
				0.24969565868377686,
				-19.326086044311523
			]
		}
	],
	"materials":[
		{
			"doubleSided":true,
			"name":"Material.025",
			"pbrMetallicRoughness":{
				"baseColorFactor":[
					0.027775507420301437,
					0.027775507420301437,
					0.027775507420301437,
					1
				],
				"metallicFactor":0,
				"roughnessFactor":0.5
			}
		},
		{
			"doubleSided":true,
			"name":"Material.026",
			"pbrMetallicRoughness":{
				"baseColorFactor":[
					0.038902949541807175,
					0.038902949541807175,
					0.038902949541807175,
					1
				],
				"metallicFactor":0,
				"roughnessFactor":0.5
			}
		},
		{
			"doubleSided":true,
			"name":"Material.027",
			"pbrMetallicRoughness":{
				"baseColorFactor":[
					0.04530038684606552,
					0.04530038684606552,
					0.04530038684606552,
					1
				],
				"metallicFactor":0,
				"roughnessFactor":0.5
			}
		}
	],
	"meshes":[
		{
			"name":"Cube.009",
			"primitives":[
				{
					"attributes":{
						"POSITION":0,
						"NORMAL":1,
						"TEXCOORD_0":2
					},
					"indices":3,
					"material":0
				},
				{
					"attributes":{
						"POSITION":4,
						"NORMAL":5,
						"TEXCOORD_0":6
					},
					"indices":7,
					"material":1
				},
				{
					"attributes":{
						"POSITION":8,
						"NORMAL":9,
						"TEXCOORD_0":10
					},
					"indices":11,
					"material":2
				}
			]
		}
	],
	"accessors":[
		{
			"bufferView":0,
			"componentType":5126,
			"count":152006,
			"max":[
				34.00482940673828,
				3.3365068435668945,
				0.9972958564758301
			],
			"min":[
				-1.0906195640563965,
				-1.1121591329574585,
				-2.9992051124572754
			],
			"type":"VEC3"
		},
		{
			"bufferView":1,
			"componentType":5126,
			"count":152006,
			"type":"VEC3"
		},
		{
			"bufferView":2,
			"componentType":5126,
			"count":152006,
			"type":"VEC2"
		},
		{
			"bufferView":3,
			"componentType":5125,
			"count":276480,
			"type":"SCALAR"
		},
		{
			"bufferView":4,
			"componentType":5126,
			"count":46060,
			"max":[
				33.846656799316406,
				2.1576905250549316,
				1.1798396110534668
			],
			"min":[
				-0.929265022277832,
				-1.1474790573120117,
				-3.2316670417785645
			],
			"type":"VEC3"
		},
		{
			"bufferView":5,
			"componentType":5126,
			"count":46060,
			"type":"VEC3"
		},
		{
			"bufferView":6,
			"componentType":5126,
			"count":46060,
			"type":"VEC2"
		},
		{
			"bufferView":7,
			"componentType":5123,
			"count":69120,
			"type":"SCALAR"
		},
		{
			"bufferView":8,
			"componentType":5126,
			"count":46013,
			"max":[
				33.79990005493164,
				2.1502270698547363,
				1.253464937210083
			],
			"min":[
				-0.9143813848495483,
				-1.154942512512207,
				-3.254497528076172
			],
			"type":"VEC3"
		},
		{
			"bufferView":9,
			"componentType":5126,
			"count":46013,
			"type":"VEC3"
		},
		{
			"bufferView":10,
			"componentType":5126,
			"count":46013,
			"type":"VEC2"
		},
		{
			"bufferView":11,
			"componentType":5123,
			"count":69120,
			"type":"SCALAR"
		}
	],
	"bufferViews":[
		{
			"buffer":0,
			"byteLength":1824072,
			"byteOffset":0,
			"target":34962
		},
		{
			"buffer":0,
			"byteLength":1824072,
			"byteOffset":1824072,
			"target":34962
		},
		{
			"buffer":0,
			"byteLength":1216048,
			"byteOffset":3648144,
			"target":34962
		},
		{
			"buffer":0,
			"byteLength":1105920,
			"byteOffset":4864192,
			"target":34963
		},
		{
			"buffer":0,
			"byteLength":552720,
			"byteOffset":5970112,
			"target":34962
		},
		{
			"buffer":0,
			"byteLength":552720,
			"byteOffset":6522832,
			"target":34962
		},
		{
			"buffer":0,
			"byteLength":368480,
			"byteOffset":7075552,
			"target":34962
		},
		{
			"buffer":0,
			"byteLength":138240,
			"byteOffset":7444032,
			"target":34963
		},
		{
			"buffer":0,
			"byteLength":552156,
			"byteOffset":7582272,
			"target":34962
		},
		{
			"buffer":0,
			"byteLength":552156,
			"byteOffset":8134428,
			"target":34962
		},
		{
			"buffer":0,
			"byteLength":368104,
			"byteOffset":8686584,
			"target":34962
		},
		{
			"buffer":0,
			"byteLength":138240,
			"byteOffset":9054688,
			"target":34963
		}
	],
	"buffers":[
		{
			"byteLength":9192928,
			"uri":"sohva.bin"
		}
	]
}
