{
	"asset":{
		"generator":"Khronos glTF Blender I/O v4.1.62",
		"version":"2.0"
	},
	"scene":0,
	"scenes":[
		{
			"name":"Scene",
			"nodes":[
				0,
				1,
				2,
				3,
				4
			]
		}
	],
	"nodes":[
		{
			"mesh":0,
			"name":"Cube",
			"scale":[
				1.3293335437774658,
				0.5654082298278809,
				2.7300450801849365
			],
			"translation":[
				0.1271597146987915,
				0.18182373046875,
				0.08018118143081665
			]
		},
		{
			"mesh":1,
			"name":"Cube.001",
			"scale":[
				1.2463955879211426,
				0.9063268303871155,
				0.3585840165615082
			],
			"translation":[
				0.1271597146987915,
				0.5055454969406128,
				-2.916201114654541
			]
		},
		{
			"mesh":2,
			"name":"Cube.002",
			"scale":[
				1.2463955879211426,
				0.9063268303871155,
				0.3585840165615082
			],
			"translation":[
				0.14694499969482422,
				0.5013256072998047,
				3.143613338470459
			]
		},
		{
			"mesh":3,
			"name":"Cube.003",
			"rotation":[
				0,
				0,
				-0.6972472071647644,
				0.7168307900428772
			],
			"scale":[
				0.961823582649231,
				0.558666467666626,
				1.3416893482208252
			],
			"translation":[
				-0.7474492788314819,
				1.0915067195892334,
				1.4053069353103638
			]
		},
		{
			"mesh":4,
			"name":"Cube.004",
			"rotation":[
				0,
				0,
				-0.6972472071647644,
				0.7168307900428772
			],
			"scale":[
				0.961823582649231,
				0.558666467666626,
				1.3004252910614014
			],
			"translation":[
				-0.7697256803512573,
				1.0987833738327026,
				-1.2472519874572754
			]
		}
	],
	"materials":[
		{
			"doubleSided":true,
			"name":"Material",
			"pbrMetallicRoughness":{
				"baseColorFactor":[
					0.027775507420301437,
					0.027775507420301437,
					0.027775507420301437,
					1
				],
				"metallicFactor":0,
				"roughnessFactor":0.5
			}
		},
		{
			"doubleSided":true,
			"name":"Material.001",
			"pbrMetallicRoughness":{
				"baseColorFactor":[
					0.038902949541807175,
					0.038902949541807175,
					0.038902949541807175,
					1
				],
				"metallicFactor":0,
				"roughnessFactor":0.5
			}
		},
		{
			"doubleSided":true,
			"name":"Material.002",
			"pbrMetallicRoughness":{
				"baseColorFactor":[
					0.04530038684606552,
					0.04530038684606552,
					0.04530038684606552,
					1
				],
				"metallicFactor":0,
				"roughnessFactor":0.5
			}
		}
	],
	"meshes":[
		{
			"name":"Cube",
			"primitives":[
				{
					"attributes":{
						"POSITION":0,
						"NORMAL":1,
						"TEXCOORD_0":2
					},
					"indices":3,
					"material":0
				}
			]
		},
		{
			"name":"Cube.001",
			"primitives":[
				{
					"attributes":{
						"POSITION":4,
						"NORMAL":5,
						"TEXCOORD_0":6
					},
					"indices":7,
					"material":1
				}
			]
		},
		{
			"name":"Cube.002",
			"primitives":[
				{
					"attributes":{
						"POSITION":8,
						"NORMAL":9,
						"TEXCOORD_0":10
					},
					"indices":7,
					"material":2
				}
			]
		},
		{
			"name":"Cube.003",
			"primitives":[
				{
					"attributes":{
						"POSITION":11,
						"NORMAL":12,
						"TEXCOORD_0":13
					},
					"indices":3,
					"material":0
				}
			]
		},
		{
			"name":"Cube.004",
			"primitives":[
				{
					"attributes":{
						"POSITION":14,
						"NORMAL":15,
						"TEXCOORD_0":16
					},
					"indices":3,
					"material":0
				}
			]
		}
	],
	"accessors":[
		{
			"bufferView":0,
			"componentType":5126,
			"count":7938,
			"max":[
				1.0000001192092896,
				0.9791668057441711,
				0.9972958564758301
			],
			"min":[
				-1.0000001192092896,
				-0.9841668009757996,
				-0.9964432716369629
			],
			"type":"VEC3"
		},
		{
			"bufferView":1,
			"componentType":5126,
			"count":7938,
			"type":"VEC3"
		},
		{
			"bufferView":2,
			"componentType":5126,
			"count":7938,
			"type":"VEC2"
		},
		{
			"bufferView":3,
			"componentType":5123,
			"count":18432,
			"type":"SCALAR"
		},
		{
			"bufferView":4,
			"componentType":5126,
			"count":7536,
			"max":[
				0.9962133765220642,
				0.9888863563537598,
				1.0000001192092896
			],
			"min":[
				-0.9911003708839417,
				-0.9931825399398804,
				-1.0000001192092896
			],
			"type":"VEC3"
		},
		{
			"bufferView":5,
			"componentType":5126,
			"count":7536,
			"type":"VEC3"
		},
		{
			"bufferView":6,
			"componentType":5126,
			"count":7536,
			"type":"VEC2"
		},
		{
			"bufferView":7,
			"componentType":5123,
			"count":13824,
			"type":"SCALAR"
		},
		{
			"bufferView":8,
			"componentType":5126,
			"count":7536,
			"max":[
				0.9962133765220642,
				0.9888863563537598,
				1.0000001192092896
			],
			"min":[
				-0.9911003708839417,
				-0.9931825399398804,
				-1.0000001192092896
			],
			"type":"VEC3"
		},
		{
			"bufferView":9,
			"componentType":5126,
			"count":7536,
			"type":"VEC3"
		},
		{
			"bufferView":10,
			"componentType":5126,
			"count":7536,
			"type":"VEC2"
		},
		{
			"bufferView":11,
			"componentType":5126,
			"count":7938,
			"max":[
				1.0000001192092896,
				0.9791668057441711,
				0.9972958564758301
			],
			"min":[
				-1.0000001192092896,
				-0.9841668009757996,
				-0.9964432716369629
			],
			"type":"VEC3"
		},
		{
			"bufferView":12,
			"componentType":5126,
			"count":7938,
			"type":"VEC3"
		},
		{
			"bufferView":13,
			"componentType":5126,
			"count":7938,
			"type":"VEC2"
		},
		{
			"bufferView":14,
			"componentType":5126,
			"count":7938,
			"max":[
				1.0000001192092896,
				0.9791668057441711,
				0.9972958564758301
			],
			"min":[
				-1.0000001192092896,
				-0.9841668009757996,
				-0.9964432716369629
			],
			"type":"VEC3"
		},
		{
			"bufferView":15,
			"componentType":5126,
			"count":7938,
			"type":"VEC3"
		},
		{
			"bufferView":16,
			"componentType":5126,
			"count":7938,
			"type":"VEC2"
		}
	],
	"bufferViews":[
		{
			"buffer":0,
			"byteLength":95256,
			"byteOffset":0,
			"target":34962
		},
		{
			"buffer":0,
			"byteLength":95256,
			"byteOffset":95256,
			"target":34962
		},
		{
			"buffer":0,
			"byteLength":63504,
			"byteOffset":190512,
			"target":34962
		},
		{
			"buffer":0,
			"byteLength":36864,
			"byteOffset":254016,
			"target":34963
		},
		{
			"buffer":0,
			"byteLength":90432,
			"byteOffset":290880,
			"target":34962
		},
		{
			"buffer":0,
			"byteLength":90432,
			"byteOffset":381312,
			"target":34962
		},
		{
			"buffer":0,
			"byteLength":60288,
			"byteOffset":471744,
			"target":34962
		},
		{
			"buffer":0,
			"byteLength":27648,
			"byteOffset":532032,
			"target":34963
		},
		{
			"buffer":0,
			"byteLength":90432,
			"byteOffset":559680,
			"target":34962
		},
		{
			"buffer":0,
			"byteLength":90432,
			"byteOffset":650112,
			"target":34962
		},
		{
			"buffer":0,
			"byteLength":60288,
			"byteOffset":740544,
			"target":34962
		},
		{
			"buffer":0,
			"byteLength":95256,
			"byteOffset":800832,
			"target":34962
		},
		{
			"buffer":0,
			"byteLength":95256,
			"byteOffset":896088,
			"target":34962
		},
		{
			"buffer":0,
			"byteLength":63504,
			"byteOffset":991344,
			"target":34962
		},
		{
			"buffer":0,
			"byteLength":95256,
			"byteOffset":1054848,
			"target":34962
		},
		{
			"buffer":0,
			"byteLength":95256,
			"byteOffset":1150104,
			"target":34962
		},
		{
			"buffer":0,
			"byteLength":63504,
			"byteOffset":1245360,
			"target":34962
		}
	],
	"buffers":[
		{
			"byteLength":1308864,
			"uri":"sohva.bin"
		}
	]
}
