{
	"asset":{
		"generator":"Khronos glTF Blender I/O v4.1.62",
		"version":"2.0"
	},
	"scene":0,
	"scenes":[
		{
			"name":"Scene",
			"nodes":[
				0,
				1,
				2,
				3
			]
		}
	],
	"nodes":[
		{
			"mesh":0,
			"name":"landscape"
		},
		{
			"mesh":1,
			"name":"water",
			"scale":[
				0.18000002205371857,
				1,
				1
			],
			"translation":[
				0,
				-0.5299999713897705,
				0
			]
		},
		{
			"mesh":2,
			"name":"sand",
			"translation":[
				0,
				0.002322956919670105,
				0
			]
		},
		{
			"mesh":3,
			"name":"Cube",
			"rotation":[
				0,
				1,
				0,
				7.549790126404332e-08
			],
			"scale":[
				9.470000267028809,
				0.10000002384185791,
				0.5
			],
			"translation":[
				-0.026802193373441696,
				8.280427932739258,
				-15.953031539916992
			]
		}
	],
	"materials":[
		{
			"doubleSided":true,
			"name":"Landscape",
			"pbrMetallicRoughness":{
				"baseColorTexture":{
					"index":0
				},
				"metallicFactor":0,
				"roughnessFactor":0.5
			}
		},
		{
			"alphaMode":"BLEND",
			"doubleSided":true,
			"name":"water",
			"pbrMetallicRoughness":{
				"baseColorFactor":[
					0,
					0.010808638297021389,
					0.8005914688110352,
					0.46113985776901245
				],
				"metallicFactor":0.6272727847099304,
				"roughnessFactor":0.11363637447357178
			}
		},
		{
			"doubleSided":true,
			"name":"Sand",
			"pbrMetallicRoughness":{
				"baseColorFactor":[
					0.8003387451171875,
					0.7627326250076294,
					0,
					1
				],
				"metallicFactor":0,
				"roughnessFactor":0.5
			}
		}
	],
	"meshes":[
		{
			"name":"Grid.003",
			"primitives":[
				{
					"attributes":{
						"POSITION":0,
						"NORMAL":1,
						"TEXCOORD_0":2
					},
					"indices":3,
					"material":0
				}
			]
		},
		{
			"name":"Plane",
			"primitives":[
				{
					"attributes":{
						"POSITION":4,
						"NORMAL":5,
						"TEXCOORD_0":6
					},
					"indices":7,
					"material":1
				}
			]
		},
		{
			"name":"Plane.001",
			"primitives":[
				{
					"attributes":{
						"POSITION":8,
						"NORMAL":9,
						"TEXCOORD_0":10
					},
					"indices":11,
					"material":2
				}
			]
		},
		{
			"name":"Cube.001",
			"primitives":[
				{
					"attributes":{
						"POSITION":12,
						"NORMAL":13,
						"TEXCOORD_0":14
					},
					"indices":15,
					"material":0
				}
			]
		}
	],
	"textures":[
		{
			"sampler":0,
			"source":0
		}
	],
	"images":[
		{
			"mimeType":"image/png",
			"name":"Landscape-texture",
			"uri":"Landscape-texture.png"
		}
	],
	"accessors":[
		{
			"bufferView":0,
			"componentType":5126,
			"count":9472,
			"max":[
				26.962610244750977,
				8.71213150024414,
				26.85063934326172
			],
			"min":[
				-26.962610244750977,
				-2.6407816410064697,
				-27.934118270874023
			],
			"type":"VEC3"
		},
		{
			"bufferView":1,
			"componentType":5126,
			"count":9472,
			"type":"VEC3"
		},
		{
			"bufferView":2,
			"componentType":5126,
			"count":9472,
			"type":"VEC2"
		},
		{
			"bufferView":3,
			"componentType":5123,
			"count":15000,
			"type":"SCALAR"
		},
		{
			"bufferView":4,
			"componentType":5126,
			"count":4,
			"max":[
				24.994998931884766,
				0,
				24.994998931884766
			],
			"min":[
				-24.994998931884766,
				0,
				-24.994998931884766
			],
			"type":"VEC3"
		},
		{
			"bufferView":5,
			"componentType":5126,
			"count":4,
			"type":"VEC3"
		},
		{
			"bufferView":6,
			"componentType":5126,
			"count":4,
			"type":"VEC2"
		},
		{
			"bufferView":7,
			"componentType":5123,
			"count":6,
			"type":"SCALAR"
		},
		{
			"bufferView":8,
			"componentType":5126,
			"count":20,
			"max":[
				5.12431001663208,
				0,
				8.212242126464844
			],
			"min":[
				-5.004999160766602,
				-0.6791408061981201,
				-5.007593154907227
			],
			"type":"VEC3"
		},
		{
			"bufferView":9,
			"componentType":5126,
			"count":20,
			"type":"VEC3"
		},
		{
			"bufferView":10,
			"componentType":5126,
			"count":20,
			"type":"VEC2"
		},
		{
			"bufferView":11,
			"componentType":5123,
			"count":42,
			"type":"SCALAR"
		},
		{
			"bufferView":12,
			"componentType":5126,
			"count":252,
			"max":[
				1.5004868507385254,
				22.223947525024414,
				1.513153076171875
			],
			"min":[
				-1.5108498334884644,
				-1.5,
				-1.5
			],
			"type":"VEC3"
		},
		{
			"bufferView":13,
			"componentType":5126,
			"count":252,
			"type":"VEC3"
		},
		{
			"bufferView":14,
			"componentType":5126,
			"count":252,
			"type":"VEC2"
		},
		{
			"bufferView":15,
			"componentType":5123,
			"count":384,
			"type":"SCALAR"
		}
	],
	"bufferViews":[
		{
			"buffer":0,
			"byteLength":113664,
			"byteOffset":0,
			"target":34962
		},
		{
			"buffer":0,
			"byteLength":113664,
			"byteOffset":113664,
			"target":34962
		},
		{
			"buffer":0,
			"byteLength":75776,
			"byteOffset":227328,
			"target":34962
		},
		{
			"buffer":0,
			"byteLength":30000,
			"byteOffset":303104,
			"target":34963
		},
		{
			"buffer":0,
			"byteLength":48,
			"byteOffset":333104,
			"target":34962
		},
		{
			"buffer":0,
			"byteLength":48,
			"byteOffset":333152,
			"target":34962
		},
		{
			"buffer":0,
			"byteLength":32,
			"byteOffset":333200,
			"target":34962
		},
		{
			"buffer":0,
			"byteLength":12,
			"byteOffset":333232,
			"target":34963
		},
		{
			"buffer":0,
			"byteLength":240,
			"byteOffset":333244,
			"target":34962
		},
		{
			"buffer":0,
			"byteLength":240,
			"byteOffset":333484,
			"target":34962
		},
		{
			"buffer":0,
			"byteLength":160,
			"byteOffset":333724,
			"target":34962
		},
		{
			"buffer":0,
			"byteLength":84,
			"byteOffset":333884,
			"target":34963
		},
		{
			"buffer":0,
			"byteLength":3024,
			"byteOffset":333968,
			"target":34962
		},
		{
			"buffer":0,
			"byteLength":3024,
			"byteOffset":336992,
			"target":34962
		},
		{
			"buffer":0,
			"byteLength":2016,
			"byteOffset":340016,
			"target":34962
		},
		{
			"buffer":0,
			"byteLength":768,
			"byteOffset":342032,
			"target":34963
		}
	],
	"samplers":[
		{
			"magFilter":9729,
			"minFilter":9987
		}
	],
	"buffers":[
		{
			"byteLength":342800,
			"uri":"landscape.bin"
		}
	]
}
