{
	"asset":{
		"generator":"Khronos glTF Blender I/O v4.1.62",
		"version":"2.0"
	},
	"extensionsUsed":[
		"KHR_materials_specular"
	],
	"scene":0,
	"scenes":[
		{
			"name":"Scene",
			"nodes":[
				0
			]
		}
	],
	"nodes":[
		{
			"mesh":0,
			"name":"bilis",
			"rotation":[
				0.7071069478988647,
				0,
				0,
				0.7071066498756409
			],
			"scale":[
				0.385265052318573,
				0.3852651119232178,
				0.3852651119232178
			]
		}
	],
	"materials":[
		{
			"doubleSided":true,
			"extensions":{
				"KHR_materials_specular":{
					"specularFactor":0
				}
			},
			"name":"Textured_mesh_1_tex0.007",
			"pbrMetallicRoughness":{
				"baseColorTexture":{
					"index":0
				},
				"metallicFactor":0
			}
		},
		{
			"doubleSided":true,
			"extensions":{
				"KHR_materials_specular":{
					"specularFactor":0
				}
			},
			"name":"Textured_mesh_1_tex1.007",
			"pbrMetallicRoughness":{
				"baseColorTexture":{
					"index":1
				},
				"metallicFactor":0
			}
		},
		{
			"doubleSided":true,
			"extensions":{
				"KHR_materials_specular":{
					"specularFactor":0
				}
			},
			"name":"Textured_mesh_1_tex2.007",
			"pbrMetallicRoughness":{
				"baseColorTexture":{
					"index":2
				},
				"metallicFactor":0
			}
		},
		{
			"doubleSided":true,
			"extensions":{
				"KHR_materials_specular":{
					"specularFactor":0
				}
			},
			"name":"Textured_mesh_1_tex3.003",
			"pbrMetallicRoughness":{
				"baseColorTexture":{
					"index":3
				},
				"metallicFactor":0
			}
		},
		{
			"doubleSided":true,
			"extensions":{
				"KHR_materials_specular":{
					"specularFactor":0
				}
			},
			"name":"Textured_mesh_1_tex4.003",
			"pbrMetallicRoughness":{
				"baseColorTexture":{
					"index":4
				},
				"metallicFactor":0
			}
		}
	],
	"meshes":[
		{
			"name":"Textured_mesh_1.006",
			"primitives":[
				{
					"attributes":{
						"POSITION":0,
						"NORMAL":1,
						"TEXCOORD_0":2
					},
					"indices":3,
					"material":0
				},
				{
					"attributes":{
						"POSITION":4,
						"NORMAL":5,
						"TEXCOORD_0":6
					},
					"indices":7,
					"material":1
				},
				{
					"attributes":{
						"POSITION":8,
						"NORMAL":9,
						"TEXCOORD_0":10
					},
					"indices":11,
					"material":2
				},
				{
					"attributes":{
						"POSITION":12,
						"NORMAL":13,
						"TEXCOORD_0":14
					},
					"indices":15,
					"material":3
				},
				{
					"attributes":{
						"POSITION":16,
						"NORMAL":17,
						"TEXCOORD_0":18
					},
					"indices":19,
					"material":4
				}
			]
		}
	],
	"textures":[
		{
			"sampler":0,
			"source":0
		},
		{
			"sampler":0,
			"source":1
		},
		{
			"sampler":0,
			"source":2
		},
		{
			"sampler":0,
			"source":3
		},
		{
			"sampler":0,
			"source":4
		}
	],
	"images":[
		{
			"mimeType":"image/jpeg",
			"name":"Textured_mesh_1_tex0",
			"uri":"Textured_mesh_1_tex0.jpg"
		},
		{
			"mimeType":"image/jpeg",
			"name":"Textured_mesh_1_tex1",
			"uri":"Textured_mesh_1_tex1.jpg"
		},
		{
			"mimeType":"image/jpeg",
			"name":"Textured_mesh_1_tex2",
			"uri":"Textured_mesh_1_tex2.jpg"
		},
		{
			"mimeType":"image/jpeg",
			"name":"Textured_mesh_1_tex3",
			"uri":"Textured_mesh_1_tex3.jpg"
		},
		{
			"mimeType":"image/jpeg",
			"name":"Textured_mesh_1_tex4",
			"uri":"Textured_mesh_1_tex4.jpg"
		}
	],
	"accessors":[
		{
			"bufferView":0,
			"componentType":5126,
			"count":391945,
			"max":[
				2.276158332824707,
				-0.6205708384513855,
				-0.040289364755153656
			],
			"min":[
				-4.09659481048584,
				-4.228747367858887,
				-2.481794834136963
			],
			"type":"VEC3"
		},
		{
			"bufferView":1,
			"componentType":5126,
			"count":391945,
			"type":"VEC3"
		},
		{
			"bufferView":2,
			"componentType":5126,
			"count":391945,
			"type":"VEC2"
		},
		{
			"bufferView":3,
			"componentType":5125,
			"count":419757,
			"type":"SCALAR"
		},
		{
			"bufferView":4,
			"componentType":5126,
			"count":258290,
			"max":[
				2.276158332824707,
				-0.6203686594963074,
				-0.025969110429286957
			],
			"min":[
				-4.10835075378418,
				-4.2297139167785645,
				-2.4813976287841797
			],
			"type":"VEC3"
		},
		{
			"bufferView":5,
			"componentType":5126,
			"count":258290,
			"type":"VEC3"
		},
		{
			"bufferView":6,
			"componentType":5126,
			"count":258290,
			"type":"VEC2"
		},
		{
			"bufferView":7,
			"componentType":5125,
			"count":270681,
			"type":"SCALAR"
		},
		{
			"bufferView":8,
			"componentType":5126,
			"count":221542,
			"max":[
				2.276158332824707,
				-0.6203686594963074,
				-0.03066917508840561
			],
			"min":[
				-4.10835075378418,
				-4.2297139167785645,
				-2.481302261352539
			],
			"type":"VEC3"
		},
		{
			"bufferView":9,
			"componentType":5126,
			"count":221542,
			"type":"VEC3"
		},
		{
			"bufferView":10,
			"componentType":5126,
			"count":221542,
			"type":"VEC2"
		},
		{
			"bufferView":11,
			"componentType":5125,
			"count":229740,
			"type":"SCALAR"
		},
		{
			"bufferView":12,
			"componentType":5126,
			"count":179246,
			"max":[
				2.276158332824707,
				-0.6261186003684998,
				-0.07225688546895981
			],
			"min":[
				-4.101762294769287,
				-4.228972434997559,
				-2.481794834136963
			],
			"type":"VEC3"
		},
		{
			"bufferView":13,
			"componentType":5126,
			"count":179246,
			"type":"VEC3"
		},
		{
			"bufferView":14,
			"componentType":5126,
			"count":179246,
			"type":"VEC2"
		},
		{
			"bufferView":15,
			"componentType":5125,
			"count":189687,
			"type":"SCALAR"
		},
		{
			"bufferView":16,
			"componentType":5126,
			"count":129431,
			"max":[
				2.2693474292755127,
				-0.6211987137794495,
				-0.025129638612270355
			],
			"min":[
				-4.067928314208984,
				-4.226476192474365,
				-2.479368209838867
			],
			"type":"VEC3"
		},
		{
			"bufferView":17,
			"componentType":5126,
			"count":129431,
			"type":"VEC3"
		},
		{
			"bufferView":18,
			"componentType":5126,
			"count":129431,
			"type":"VEC2"
		},
		{
			"bufferView":19,
			"componentType":5125,
			"count":139233,
			"type":"SCALAR"
		}
	],
	"bufferViews":[
		{
			"buffer":0,
			"byteLength":4703340,
			"byteOffset":0,
			"target":34962
		},
		{
			"buffer":0,
			"byteLength":4703340,
			"byteOffset":4703340,
			"target":34962
		},
		{
			"buffer":0,
			"byteLength":3135560,
			"byteOffset":9406680,
			"target":34962
		},
		{
			"buffer":0,
			"byteLength":1679028,
			"byteOffset":12542240,
			"target":34963
		},
		{
			"buffer":0,
			"byteLength":3099480,
			"byteOffset":14221268,
			"target":34962
		},
		{
			"buffer":0,
			"byteLength":3099480,
			"byteOffset":17320748,
			"target":34962
		},
		{
			"buffer":0,
			"byteLength":2066320,
			"byteOffset":20420228,
			"target":34962
		},
		{
			"buffer":0,
			"byteLength":1082724,
			"byteOffset":22486548,
			"target":34963
		},
		{
			"buffer":0,
			"byteLength":2658504,
			"byteOffset":23569272,
			"target":34962
		},
		{
			"buffer":0,
			"byteLength":2658504,
			"byteOffset":26227776,
			"target":34962
		},
		{
			"buffer":0,
			"byteLength":1772336,
			"byteOffset":28886280,
			"target":34962
		},
		{
			"buffer":0,
			"byteLength":918960,
			"byteOffset":30658616,
			"target":34963
		},
		{
			"buffer":0,
			"byteLength":2150952,
			"byteOffset":31577576,
			"target":34962
		},
		{
			"buffer":0,
			"byteLength":2150952,
			"byteOffset":33728528,
			"target":34962
		},
		{
			"buffer":0,
			"byteLength":1433968,
			"byteOffset":35879480,
			"target":34962
		},
		{
			"buffer":0,
			"byteLength":758748,
			"byteOffset":37313448,
			"target":34963
		},
		{
			"buffer":0,
			"byteLength":1553172,
			"byteOffset":38072196,
			"target":34962
		},
		{
			"buffer":0,
			"byteLength":1553172,
			"byteOffset":39625368,
			"target":34962
		},
		{
			"buffer":0,
			"byteLength":1035448,
			"byteOffset":41178540,
			"target":34962
		},
		{
			"buffer":0,
			"byteLength":556932,
			"byteOffset":42213988,
			"target":34963
		}
	],
	"samplers":[
		{
			"magFilter":9729,
			"minFilter":9987
		}
	],
	"buffers":[
		{
			"byteLength":42770920,
			"uri":"bilis.bin"
		}
	]
}
