{
	"asset":{
		"generator":"Khronos glTF Blender I/O v4.1.62",
		"version":"2.0"
	},
	"scene":0,
	"scenes":[
		{
			"name":"Scene",
			"nodes":[
				0
			]
		}
	],
	"nodes":[
		{
			"mesh":0,
			"name":"tuoli",
			"rotation":[
				0,
				0.7104920148849487,
				0,
				0.7037053108215332
			],
			"scale":[
				1.0833896398544312,
				0.3104562759399414,
				0.9887615442276001
			],
			"translation":[
				-0.14621201157569885,
				0.2707887887954712,
				-3.362330436706543
			]
		}
	],
	"materials":[
		{
			"doubleSided":true,
			"name":"Material.001",
			"pbrMetallicRoughness":{
				"baseColorFactor":[
					0.057286135852336884,
					0.14088957011699677,
					0.8012280464172363,
					1
				],
				"metallicFactor":0,
				"roughnessFactor":0.5
			}
		},
		{
			"doubleSided":true,
			"name":"Material.005",
			"pbrMetallicRoughness":{
				"baseColorFactor":[
					0.027775507420301437,
					0.027775507420301437,
					0.027775507420301437,
					1
				],
				"metallicFactor":0,
				"roughnessFactor":0.5
			}
		},
		{
			"doubleSided":true,
			"name":"Material.002",
			"pbrMetallicRoughness":{
				"baseColorFactor":[
					0.6577329039573669,
					0.6577329039573669,
					0.6577329039573669,
					1
				],
				"metallicFactor":0.6454545259475708,
				"roughnessFactor":0.08636364340782166
			}
		},
		{
			"doubleSided":true,
			"name":"Material.006",
			"pbrMetallicRoughness":{
				"baseColorFactor":[
					0.02613036334514618,
					0.02613036334514618,
					0.02613036334514618,
					1
				],
				"metallicFactor":0,
				"roughnessFactor":0.5
			}
		}
	],
	"meshes":[
		{
			"name":"Cube",
			"primitives":[
				{
					"attributes":{
						"POSITION":0,
						"NORMAL":1,
						"TEXCOORD_0":2
					},
					"indices":3,
					"material":0
				},
				{
					"attributes":{
						"POSITION":4,
						"NORMAL":5,
						"TEXCOORD_0":6
					},
					"indices":7,
					"material":1
				},
				{
					"attributes":{
						"POSITION":8,
						"NORMAL":9,
						"TEXCOORD_0":10
					},
					"indices":11,
					"material":2
				},
				{
					"attributes":{
						"POSITION":12,
						"NORMAL":13,
						"TEXCOORD_0":14
					},
					"indices":15,
					"material":3
				}
			]
		}
	],
	"accessors":[
		{
			"bufferView":0,
			"componentType":5126,
			"count":14021,
			"max":[
				0.03211694955825806,
				2.0970702171325684,
				0.295538067817688
			],
			"min":[
				-0.5873444676399231,
				0.2700580358505249,
				-0.2736024856567383
			],
			"type":"VEC3"
		},
		{
			"bufferView":1,
			"componentType":5126,
			"count":14021,
			"type":"VEC3"
		},
		{
			"bufferView":2,
			"componentType":5126,
			"count":14021,
			"type":"VEC2"
		},
		{
			"bufferView":3,
			"componentType":5123,
			"count":23040,
			"type":"SCALAR"
		},
		{
			"bufferView":4,
			"componentType":5126,
			"count":341,
			"max":[
				-0.0036295652389526367,
				-0.5284504890441895,
				0.2933337390422821
			],
			"min":[
				-0.4944159686565399,
				-0.8411630392074585,
				-0.25184616446495056
			],
			"type":"VEC3"
		},
		{
			"bufferView":5,
			"componentType":5126,
			"count":341,
			"type":"VEC3"
		},
		{
			"bufferView":6,
			"componentType":5126,
			"count":341,
			"type":"VEC2"
		},
		{
			"bufferView":7,
			"componentType":5123,
			"count":540,
			"type":"SCALAR"
		},
		{
			"bufferView":8,
			"componentType":5126,
			"count":204,
			"max":[
				-0.22099998593330383,
				0.5158541202545166,
				0.039565324783325195
			],
			"min":[
				-0.27972251176834106,
				-0.5646674633026123,
				-0.024777144193649292
			],
			"type":"VEC3"
		},
		{
			"bufferView":9,
			"componentType":5126,
			"count":204,
			"type":"VEC3"
		},
		{
			"bufferView":10,
			"componentType":5126,
			"count":204,
			"type":"VEC2"
		},
		{
			"bufferView":11,
			"componentType":5123,
			"count":372,
			"type":"SCALAR"
		},
		{
			"bufferView":12,
			"componentType":5126,
			"count":1298,
			"max":[
				0.03508296608924866,
				-0.5589249134063721,
				0.323839396238327
			],
			"min":[
				-0.5236055254936218,
				-0.9361686706542969,
				-0.2703985273838043
			],
			"type":"VEC3"
		},
		{
			"bufferView":13,
			"componentType":5126,
			"count":1298,
			"type":"VEC3"
		},
		{
			"bufferView":14,
			"componentType":5126,
			"count":1298,
			"type":"VEC2"
		},
		{
			"bufferView":15,
			"componentType":5123,
			"count":2232,
			"type":"SCALAR"
		}
	],
	"bufferViews":[
		{
			"buffer":0,
			"byteLength":168252,
			"byteOffset":0,
			"target":34962
		},
		{
			"buffer":0,
			"byteLength":168252,
			"byteOffset":168252,
			"target":34962
		},
		{
			"buffer":0,
			"byteLength":112168,
			"byteOffset":336504,
			"target":34962
		},
		{
			"buffer":0,
			"byteLength":46080,
			"byteOffset":448672,
			"target":34963
		},
		{
			"buffer":0,
			"byteLength":4092,
			"byteOffset":494752,
			"target":34962
		},
		{
			"buffer":0,
			"byteLength":4092,
			"byteOffset":498844,
			"target":34962
		},
		{
			"buffer":0,
			"byteLength":2728,
			"byteOffset":502936,
			"target":34962
		},
		{
			"buffer":0,
			"byteLength":1080,
			"byteOffset":505664,
			"target":34963
		},
		{
			"buffer":0,
			"byteLength":2448,
			"byteOffset":506744,
			"target":34962
		},
		{
			"buffer":0,
			"byteLength":2448,
			"byteOffset":509192,
			"target":34962
		},
		{
			"buffer":0,
			"byteLength":1632,
			"byteOffset":511640,
			"target":34962
		},
		{
			"buffer":0,
			"byteLength":744,
			"byteOffset":513272,
			"target":34963
		},
		{
			"buffer":0,
			"byteLength":15576,
			"byteOffset":514016,
			"target":34962
		},
		{
			"buffer":0,
			"byteLength":15576,
			"byteOffset":529592,
			"target":34962
		},
		{
			"buffer":0,
			"byteLength":10384,
			"byteOffset":545168,
			"target":34962
		},
		{
			"buffer":0,
			"byteLength":4464,
			"byteOffset":555552,
			"target":34963
		}
	],
	"buffers":[
		{
			"byteLength":560016,
			"uri":"tuolisizecorrected.bin"
		}
	]
}
