{
	"asset":{
		"generator":"Khronos glTF Blender I/O v4.1.62",
		"version":"2.0"
	},
	"extensionsUsed":[
		"KHR_materials_specular"
	],
	"scene":0,
	"scenes":[
		{
			"name":"Scene",
			"nodes":[
				0
			]
		}
	],
	"nodes":[
		{
			"mesh":0,
			"name":"tuoli",
			"rotation":[
				0.7071068286895752,
				0,
				0,
				0.7071068286895752
			],
			"scale":[
				0.3139766454696655,
				0.3139766454696655,
				0.3139766454696655
			],
			"translation":[
				0,
				-0.47329646348953247,
				0.8933367133140564
			]
		}
	],
	"materials":[
		{
			"doubleSided":true,
			"extensions":{
				"KHR_materials_specular":{
					"specularFactor":0
				}
			},
			"name":"Textured_mesh_1_tex0.006",
			"pbrMetallicRoughness":{
				"baseColorTexture":{
					"index":0
				},
				"metallicFactor":0
			}
		},
		{
			"doubleSided":true,
			"extensions":{
				"KHR_materials_specular":{
					"specularFactor":0
				}
			},
			"name":"Textured_mesh_1_tex1.006",
			"pbrMetallicRoughness":{
				"baseColorTexture":{
					"index":1
				},
				"metallicFactor":0
			}
		},
		{
			"doubleSided":true,
			"extensions":{
				"KHR_materials_specular":{
					"specularFactor":0
				}
			},
			"name":"Textured_mesh_1_tex2.006",
			"pbrMetallicRoughness":{
				"baseColorTexture":{
					"index":2
				},
				"metallicFactor":0
			}
		}
	],
	"meshes":[
		{
			"name":"Textured_mesh_1.005",
			"primitives":[
				{
					"attributes":{
						"POSITION":0,
						"NORMAL":1,
						"TEXCOORD_0":2
					},
					"indices":3,
					"material":0
				},
				{
					"attributes":{
						"POSITION":4,
						"NORMAL":5,
						"TEXCOORD_0":6
					},
					"indices":7,
					"material":1
				},
				{
					"attributes":{
						"POSITION":8,
						"NORMAL":9,
						"TEXCOORD_0":10
					},
					"indices":11,
					"material":2
				}
			]
		}
	],
	"textures":[
		{
			"sampler":0,
			"source":0
		},
		{
			"sampler":0,
			"source":1
		},
		{
			"sampler":0,
			"source":2
		}
	],
	"images":[
		{
			"mimeType":"image/jpeg",
			"name":"Textured_mesh_1_tex0",
			"uri":"Textured_mesh_1_tex0.jpg"
		},
		{
			"mimeType":"image/jpeg",
			"name":"Textured_mesh_1_tex1",
			"uri":"Textured_mesh_1_tex1.jpg"
		},
		{
			"mimeType":"image/jpeg",
			"name":"Textured_mesh_1_tex2",
			"uri":"Textured_mesh_1_tex2.jpg"
		}
	],
	"accessors":[
		{
			"bufferView":0,
			"componentType":5126,
			"count":86832,
			"max":[
				0.13561201095581055,
				1.8670129776000977,
				-1.527268886566162
			],
			"min":[
				-2.368866443634033,
				-0.8088337182998657,
				-4.847329139709473
			],
			"type":"VEC3"
		},
		{
			"bufferView":1,
			"componentType":5126,
			"count":86832,
			"type":"VEC3"
		},
		{
			"bufferView":2,
			"componentType":5126,
			"count":86832,
			"type":"VEC2"
		},
		{
			"bufferView":3,
			"componentType":5125,
			"count":92961,
			"type":"SCALAR"
		},
		{
			"bufferView":4,
			"componentType":5126,
			"count":116623,
			"max":[
				0.13561201095581055,
				1.8642401695251465,
				-1.5247278213500977
			],
			"min":[
				-2.3680384159088135,
				-0.8088337182998657,
				-4.849612236022949
			],
			"type":"VEC3"
		},
		{
			"bufferView":5,
			"componentType":5126,
			"count":116623,
			"type":"VEC3"
		},
		{
			"bufferView":6,
			"componentType":5126,
			"count":116623,
			"type":"VEC2"
		},
		{
			"bufferView":7,
			"componentType":5125,
			"count":121065,
			"type":"SCALAR"
		},
		{
			"bufferView":8,
			"componentType":5126,
			"count":42002,
			"max":[
				0.13253939151763916,
				1.8644447326660156,
				-1.518786907196045
			],
			"min":[
				-2.3754677772521973,
				-0.8088337182998657,
				-4.849612236022949
			],
			"type":"VEC3"
		},
		{
			"bufferView":9,
			"componentType":5126,
			"count":42002,
			"type":"VEC3"
		},
		{
			"bufferView":10,
			"componentType":5126,
			"count":42002,
			"type":"VEC2"
		},
		{
			"bufferView":11,
			"componentType":5123,
			"count":42726,
			"type":"SCALAR"
		}
	],
	"bufferViews":[
		{
			"buffer":0,
			"byteLength":1041984,
			"byteOffset":0,
			"target":34962
		},
		{
			"buffer":0,
			"byteLength":1041984,
			"byteOffset":1041984,
			"target":34962
		},
		{
			"buffer":0,
			"byteLength":694656,
			"byteOffset":2083968,
			"target":34962
		},
		{
			"buffer":0,
			"byteLength":371844,
			"byteOffset":2778624,
			"target":34963
		},
		{
			"buffer":0,
			"byteLength":1399476,
			"byteOffset":3150468,
			"target":34962
		},
		{
			"buffer":0,
			"byteLength":1399476,
			"byteOffset":4549944,
			"target":34962
		},
		{
			"buffer":0,
			"byteLength":932984,
			"byteOffset":5949420,
			"target":34962
		},
		{
			"buffer":0,
			"byteLength":484260,
			"byteOffset":6882404,
			"target":34963
		},
		{
			"buffer":0,
			"byteLength":504024,
			"byteOffset":7366664,
			"target":34962
		},
		{
			"buffer":0,
			"byteLength":504024,
			"byteOffset":7870688,
			"target":34962
		},
		{
			"buffer":0,
			"byteLength":336016,
			"byteOffset":8374712,
			"target":34962
		},
		{
			"buffer":0,
			"byteLength":85452,
			"byteOffset":8710728,
			"target":34963
		}
	],
	"samplers":[
		{
			"magFilter":9729,
			"minFilter":9987
		}
	],
	"buffers":[
		{
			"byteLength":8796180,
			"uri":"tuoli.bin"
		}
	]
}
