{
	"asset":{
		"generator":"Khronos glTF Blender I/O v4.1.62",
		"version":"2.0"
	},
	"scene":0,
	"scenes":[
		{
			"name":"Scene",
			"nodes":[
				0
			]
		}
	],
	"nodes":[
		{
			"mesh":0,
			"name":"doors",
			"scale":[
				0.06147339940071106,
				1,
				0.6290357112884521
			],
			"translation":[
				1.139055848121643,
				0,
				-36.298919677734375
			]
		}
	],
	"meshes":[
		{
			"name":"door",
			"primitives":[
				{
					"attributes":{
						"POSITION":0,
						"NORMAL":1,
						"TEXCOORD_0":2
					},
					"indices":3
				}
			]
		}
	],
	"accessors":[
		{
			"bufferView":0,
			"componentType":5126,
			"count":5034,
			"max":[
				375.79876708984375,
				2.0999999046325684,
				140.52020263671875
			],
			"min":[
				-49.41638946533203,
				0,
				-13.397570610046387
			],
			"type":"VEC3"
		},
		{
			"bufferView":1,
			"componentType":5126,
			"count":5034,
			"type":"VEC3"
		},
		{
			"bufferView":2,
			"componentType":5126,
			"count":5034,
			"type":"VEC2"
		},
		{
			"bufferView":3,
			"componentType":5123,
			"count":8568,
			"type":"SCALAR"
		}
	],
	"bufferViews":[
		{
			"buffer":0,
			"byteLength":60408,
			"byteOffset":0,
			"target":34962
		},
		{
			"buffer":0,
			"byteLength":60408,
			"byteOffset":60408,
			"target":34962
		},
		{
			"buffer":0,
			"byteLength":40272,
			"byteOffset":120816,
			"target":34962
		},
		{
			"buffer":0,
			"byteLength":17136,
			"byteOffset":161088,
			"target":34963
		}
	],
	"buffers":[
		{
			"byteLength":178224,
			"uri":"6thdoors.bin"
		}
	]
}
