{
	"asset":{
		"generator":"Khronos glTF Blender I/O v4.1.62",
		"version":"2.0"
	},
	"scene":0,
	"scenes":[
		{
			"name":"Scene",
			"nodes":[
				0
			]
		}
	],
	"nodes":[
		{
			"mesh":0,
			"name":"floor.001",
			"translation":[
				-6.0465497970581055,
				0,
				-2.5206711292266846
			]
		}
	],
	"materials":[
		{
			"doubleSided":true,
			"name":"Material.004",
			"pbrMetallicRoughness":{
				"baseColorFactor":[
					0.80125892162323,
					0.1093500554561615,
					0.6508551836013794,
					1
				],
				"metallicFactor":0,
				"roughnessFactor":0.5
			}
		}
	],
	"meshes":[
		{
			"name":"Plane.002",
			"primitives":[
				{
					"attributes":{
						"POSITION":0,
						"NORMAL":1,
						"TEXCOORD_0":2
					},
					"indices":3,
					"material":0
				}
			]
		}
	],
	"accessors":[
		{
			"bufferView":0,
			"componentType":5126,
			"count":111,
			"max":[
				40.88362121582031,
				0,
				57.922611236572266
			],
			"min":[
				-4.597987174987793,
				-1,
				-53.63982391357422
			],
			"type":"VEC3"
		},
		{
			"bufferView":1,
			"componentType":5126,
			"count":111,
			"type":"VEC3"
		},
		{
			"bufferView":2,
			"componentType":5126,
			"count":111,
			"type":"VEC2"
		},
		{
			"bufferView":3,
			"componentType":5123,
			"count":213,
			"type":"SCALAR"
		}
	],
	"bufferViews":[
		{
			"buffer":0,
			"byteLength":1332,
			"byteOffset":0,
			"target":34962
		},
		{
			"buffer":0,
			"byteLength":1332,
			"byteOffset":1332,
			"target":34962
		},
		{
			"buffer":0,
			"byteLength":888,
			"byteOffset":2664,
			"target":34962
		},
		{
			"buffer":0,
			"byteLength":426,
			"byteOffset":3552,
			"target":34963
		}
	],
	"buffers":[
		{
			"byteLength":3980,
			"uri":"6thfloor.bin"
		}
	]
}
