{
	"asset":{
		"generator":"Khronos glTF Blender I/O v4.1.62",
		"version":"2.0"
	},
	"scene":0,
	"scenes":[
		{
			"name":"Scene",
			"nodes":[
				0
			]
		}
	],
	"nodes":[
		{
			"mesh":0,
			"name":"walls",
			"rotation":[
				0,
				-0.3552853763103485,
				0,
				0.9347578883171082
			],
			"scale":[
				0.12702609598636627,
				1,
				0.3333333432674408
			],
			"translation":[
				10.099616050720215,
				0,
				-1.2086628675460815
			]
		}
	],
	"meshes":[
		{
			"name":"Plane.001",
			"primitives":[
				{
					"attributes":{
						"POSITION":0,
						"NORMAL":1,
						"TEXCOORD_0":2
					},
					"indices":3
				}
			]
		}
	],
	"accessors":[
		{
			"bufferView":0,
			"componentType":5126,
			"count":4705,
			"max":[
				306.9310302734375,
				3.0254485607147217,
				159.543212890625
			],
			"min":[
				-334.6828308105469,
				-0.07152155041694641,
				-122.17350769042969
			],
			"type":"VEC3"
		},
		{
			"bufferView":1,
			"componentType":5126,
			"count":4705,
			"type":"VEC3"
		},
		{
			"bufferView":2,
			"componentType":5126,
			"count":4705,
			"type":"VEC2"
		},
		{
			"bufferView":3,
			"componentType":5123,
			"count":11055,
			"type":"SCALAR"
		}
	],
	"bufferViews":[
		{
			"buffer":0,
			"byteLength":56460,
			"byteOffset":0,
			"target":34962
		},
		{
			"buffer":0,
			"byteLength":56460,
			"byteOffset":56460,
			"target":34962
		},
		{
			"buffer":0,
			"byteLength":37640,
			"byteOffset":112920,
			"target":34962
		},
		{
			"buffer":0,
			"byteLength":22110,
			"byteOffset":150560,
			"target":34963
		}
	],
	"buffers":[
		{
			"byteLength":172672,
			"uri":"6thwalls.bin"
		}
	]
}
