{
	"asset":{
		"generator":"Khronos glTF Blender I/O v4.1.62",
		"version":"2.0"
	},
	"scene":0,
	"scenes":[
		{
			"name":"Scene",
			"nodes":[
				0,
				1,
				2,
				3,
				4
			]
		}
	],
	"nodes":[
		{
			"mesh":0,
			"name":"smalldeskAndChairgroup1",
			"scale":[
				0.675612211227417,
				0.675612211227417,
				0.675612211227417
			],
			"translation":[
				-0.4981146454811096,
				-0.0001454576849937439,
				-3.816891670227051
			]
		},
		{
			"name":"Empty",
			"scale":[
				29,
				1,
				29
			]
		},
		{
			"mesh":1,
			"name":"walls",
			"rotation":[
				0,
				-0.3552853763103485,
				0,
				0.9347578883171082
			],
			"scale":[
				0.12702609598636627,
				1,
				0.3333333432674408
			],
			"translation":[
				10.099616050720215,
				0,
				-1.2086628675460815
			]
		},
		{
			"mesh":2,
			"name":"floor",
			"translation":[
				-6.046549320220947,
				0,
				-2.5206711292266846
			]
		},
		{
			"mesh":3,
			"name":"doors",
			"scale":[
				0.06147339940071106,
				1,
				0.6290357112884521
			],
			"translation":[
				1.139055848121643,
				0,
				-36.298919677734375
			]
		}
	],
	"materials":[
		{
			"doubleSided":true,
			"name":"p\u00f6yd\u00e4njalat",
			"pbrMetallicRoughness":{
				"baseColorFactor":[
					0.025186695158481598,
					0.02518688142299652,
					0.025186870247125626,
					1
				],
				"metallicFactor":0,
				"roughnessFactor":0.5
			}
		},
		{
			"doubleSided":true,
			"name":"p\u00f6yd\u00e4np\u00e4\u00e4llys",
			"pbrMetallicRoughness":{
				"baseColorFactor":[
					0.800000011920929,
					0.800000011920929,
					0.800000011920929,
					1
				],
				"metallicFactor":0,
				"roughnessFactor":0.5
			}
		},
		{
			"doubleSided":true,
			"name":"Material.002",
			"pbrMetallicRoughness":{
				"baseColorFactor":[
					0.057286135852336884,
					0.14088957011699677,
					0.8012280464172363,
					1
				],
				"metallicFactor":0,
				"roughnessFactor":0.5
			}
		},
		{
			"doubleSided":true,
			"name":"Material.005",
			"pbrMetallicRoughness":{
				"baseColorFactor":[
					0.027775507420301437,
					0.027775507420301437,
					0.027775507420301437,
					1
				],
				"metallicFactor":0,
				"roughnessFactor":0.5
			}
		},
		{
			"doubleSided":true,
			"name":"Material.003",
			"pbrMetallicRoughness":{
				"baseColorFactor":[
					0.6577329039573669,
					0.6577329039573669,
					0.6577329039573669,
					1
				],
				"metallicFactor":0.6454545259475708,
				"roughnessFactor":0.08636364340782166
			}
		},
		{
			"doubleSided":true,
			"name":"Material.006",
			"pbrMetallicRoughness":{
				"baseColorFactor":[
					0.02613036334514618,
					0.02613036334514618,
					0.02613036334514618,
					1
				],
				"metallicFactor":0,
				"roughnessFactor":0.5
			}
		},
		{
			"doubleSided":true,
			"name":"Material.001",
			"pbrMetallicRoughness":{
				"baseColorFactor":[
					0.8010241389274597,
					0,
					0.13392852246761322,
					1
				],
				"metallicFactor":0,
				"roughnessFactor":0.5
			}
		},
		{
			"doubleSided":true,
			"name":"Material",
			"pbrMetallicRoughness":{
				"baseColorFactor":[
					0.8012214303016663,
					0.010695559903979301,
					0.08010967820882797,
					1
				],
				"metallicFactor":0,
				"roughnessFactor":0.5
			}
		}
	],
	"meshes":[
		{
			"name":"smalldesk",
			"primitives":[
				{
					"attributes":{
						"POSITION":0,
						"NORMAL":1,
						"TEXCOORD_0":2
					},
					"indices":3,
					"material":0
				},
				{
					"attributes":{
						"POSITION":4,
						"NORMAL":5,
						"TEXCOORD_0":6
					},
					"indices":7,
					"material":1
				},
				{
					"attributes":{
						"POSITION":8,
						"NORMAL":9,
						"TEXCOORD_0":10
					},
					"indices":11,
					"material":2
				},
				{
					"attributes":{
						"POSITION":12,
						"NORMAL":13,
						"TEXCOORD_0":14
					},
					"indices":15,
					"material":3
				},
				{
					"attributes":{
						"POSITION":16,
						"NORMAL":17,
						"TEXCOORD_0":18
					},
					"indices":19,
					"material":4
				},
				{
					"attributes":{
						"POSITION":20,
						"NORMAL":21,
						"TEXCOORD_0":22
					},
					"indices":23,
					"material":5
				}
			]
		},
		{
			"name":"Plane.001",
			"primitives":[
				{
					"attributes":{
						"POSITION":24,
						"NORMAL":25,
						"TEXCOORD_0":26
					},
					"indices":27,
					"material":6
				}
			]
		},
		{
			"name":"Plane",
			"primitives":[
				{
					"attributes":{
						"POSITION":28,
						"NORMAL":29,
						"TEXCOORD_0":30
					},
					"indices":31,
					"material":7
				}
			]
		},
		{
			"name":"door",
			"primitives":[
				{
					"attributes":{
						"POSITION":32,
						"NORMAL":33,
						"TEXCOORD_0":34
					},
					"indices":35
				}
			]
		}
	],
	"accessors":[
		{
			"bufferView":0,
			"componentType":5126,
			"count":93101,
			"max":[
				46.41759490966797,
				1.1947605609893799,
				84.88656616210938
			],
			"min":[
				-7.086087226867676,
				0.003200531005859375,
				-55.597923278808594
			],
			"type":"VEC3"
		},
		{
			"bufferView":1,
			"componentType":5126,
			"count":93101,
			"type":"VEC3"
		},
		{
			"bufferView":2,
			"componentType":5126,
			"count":93101,
			"type":"VEC2"
		},
		{
			"bufferView":3,
			"componentType":5125,
			"count":147420,
			"type":"SCALAR"
		},
		{
			"bufferView":4,
			"componentType":5126,
			"count":2398,
			"max":[
				46.47273635864258,
				1.2586909532546997,
				84.94298553466797
			],
			"min":[
				-7.144256591796875,
				1.1907877922058105,
				-55.65316390991211
			],
			"type":"VEC3"
		},
		{
			"bufferView":5,
			"componentType":5126,
			"count":2398,
			"type":"VEC3"
		},
		{
			"bufferView":6,
			"componentType":5126,
			"count":2398,
			"type":"VEC2"
		},
		{
			"bufferView":7,
			"componentType":5123,
			"count":3900,
			"type":"SCALAR"
		},
		{
			"bufferView":8,
			"componentType":5126,
			"count":1162954,
			"max":[
				47.13460922241211,
				1.364662766456604,
				84.14041137695312
			],
			"min":[
				-6.99626350402832,
				0.5251169800758362,
				-55.00846481323242
			],
			"type":"VEC3"
		},
		{
			"bufferView":9,
			"componentType":5126,
			"count":1162954,
			"type":"VEC3"
		},
		{
			"bufferView":10,
			"componentType":5126,
			"count":1162954,
			"type":"VEC2"
		},
		{
			"bufferView":11,
			"componentType":5125,
			"count":1497600,
			"type":"SCALAR"
		},
		{
			"bufferView":12,
			"componentType":5126,
			"count":23568,
			"max":[
				46.90701675415039,
				0.1581876277923584,
				83.99378204345703
			],
			"min":[
				-6.993812561035156,
				0.01449042558670044,
				-54.95648193359375
			],
			"type":"VEC3"
		},
		{
			"bufferView":13,
			"componentType":5126,
			"count":23568,
			"type":"VEC3"
		},
		{
			"bufferView":14,
			"componentType":5126,
			"count":23568,
			"type":"VEC2"
		},
		{
			"bufferView":15,
			"componentType":5123,
			"count":35100,
			"type":"SCALAR"
		},
		{
			"bufferView":16,
			"componentType":5126,
			"count":15267,
			"max":[
				46.5191764831543,
				0.6380648612976074,
				83.62920379638672
			],
			"min":[
				-6.622530937194824,
				0.14154523611068726,
				-54.49964141845703
			],
			"type":"VEC3"
		},
		{
			"bufferView":17,
			"componentType":5126,
			"count":15267,
			"type":"VEC3"
		},
		{
			"bufferView":18,
			"componentType":5126,
			"count":15267,
			"type":"VEC2"
		},
		{
			"bufferView":19,
			"componentType":5123,
			"count":24180,
			"type":"SCALAR"
		},
		{
			"bufferView":20,
			"componentType":5126,
			"count":138530,
			"max":[
				46.940128326416016,
				0.14418405294418335,
				84.01741790771484
			],
			"min":[
				-7.038663864135742,
				-0.02916640043258667,
				-54.98660659790039
			],
			"type":"VEC3"
		},
		{
			"bufferView":21,
			"componentType":5126,
			"count":138530,
			"type":"VEC3"
		},
		{
			"bufferView":22,
			"componentType":5126,
			"count":138530,
			"type":"VEC2"
		},
		{
			"bufferView":23,
			"componentType":5125,
			"count":145080,
			"type":"SCALAR"
		},
		{
			"bufferView":24,
			"componentType":5126,
			"count":2244,
			"max":[
				306.9310302734375,
				3.0254485607147217,
				159.543212890625
			],
			"min":[
				-334.6828308105469,
				-0.07152155041694641,
				-122.17350769042969
			],
			"type":"VEC3"
		},
		{
			"bufferView":25,
			"componentType":5126,
			"count":2244,
			"type":"VEC3"
		},
		{
			"bufferView":26,
			"componentType":5126,
			"count":2244,
			"type":"VEC2"
		},
		{
			"bufferView":27,
			"componentType":5123,
			"count":11055,
			"type":"SCALAR"
		},
		{
			"bufferView":28,
			"componentType":5126,
			"count":60,
			"max":[
				40.229522705078125,
				3.3961498502321774e-06,
				57.714176177978516
			],
			"min":[
				-3.8570735454559326,
				-0.5000002980232239,
				-52.593162536621094
			],
			"type":"VEC3"
		},
		{
			"bufferView":29,
			"componentType":5126,
			"count":60,
			"type":"VEC3"
		},
		{
			"bufferView":30,
			"componentType":5126,
			"count":60,
			"type":"VEC2"
		},
		{
			"bufferView":31,
			"componentType":5123,
			"count":246,
			"type":"SCALAR"
		},
		{
			"bufferView":32,
			"componentType":5126,
			"count":5034,
			"max":[
				375.79876708984375,
				2.0999999046325684,
				140.52020263671875
			],
			"min":[
				-49.41638946533203,
				0,
				-13.397570610046387
			],
			"type":"VEC3"
		},
		{
			"bufferView":33,
			"componentType":5126,
			"count":5034,
			"type":"VEC3"
		},
		{
			"bufferView":34,
			"componentType":5126,
			"count":5034,
			"type":"VEC2"
		},
		{
			"bufferView":35,
			"componentType":5123,
			"count":8568,
			"type":"SCALAR"
		}
	],
	"bufferViews":[
		{
			"buffer":0,
			"byteLength":1117212,
			"byteOffset":0,
			"target":34962
		},
		{
			"buffer":0,
			"byteLength":1117212,
			"byteOffset":1117212,
			"target":34962
		},
		{
			"buffer":0,
			"byteLength":744808,
			"byteOffset":2234424,
			"target":34962
		},
		{
			"buffer":0,
			"byteLength":589680,
			"byteOffset":2979232,
			"target":34963
		},
		{
			"buffer":0,
			"byteLength":28776,
			"byteOffset":3568912,
			"target":34962
		},
		{
			"buffer":0,
			"byteLength":28776,
			"byteOffset":3597688,
			"target":34962
		},
		{
			"buffer":0,
			"byteLength":19184,
			"byteOffset":3626464,
			"target":34962
		},
		{
			"buffer":0,
			"byteLength":7800,
			"byteOffset":3645648,
			"target":34963
		},
		{
			"buffer":0,
			"byteLength":13955448,
			"byteOffset":3653448,
			"target":34962
		},
		{
			"buffer":0,
			"byteLength":13955448,
			"byteOffset":17608896,
			"target":34962
		},
		{
			"buffer":0,
			"byteLength":9303632,
			"byteOffset":31564344,
			"target":34962
		},
		{
			"buffer":0,
			"byteLength":5990400,
			"byteOffset":40867976,
			"target":34963
		},
		{
			"buffer":0,
			"byteLength":282816,
			"byteOffset":46858376,
			"target":34962
		},
		{
			"buffer":0,
			"byteLength":282816,
			"byteOffset":47141192,
			"target":34962
		},
		{
			"buffer":0,
			"byteLength":188544,
			"byteOffset":47424008,
			"target":34962
		},
		{
			"buffer":0,
			"byteLength":70200,
			"byteOffset":47612552,
			"target":34963
		},
		{
			"buffer":0,
			"byteLength":183204,
			"byteOffset":47682752,
			"target":34962
		},
		{
			"buffer":0,
			"byteLength":183204,
			"byteOffset":47865956,
			"target":34962
		},
		{
			"buffer":0,
			"byteLength":122136,
			"byteOffset":48049160,
			"target":34962
		},
		{
			"buffer":0,
			"byteLength":48360,
			"byteOffset":48171296,
			"target":34963
		},
		{
			"buffer":0,
			"byteLength":1662360,
			"byteOffset":48219656,
			"target":34962
		},
		{
			"buffer":0,
			"byteLength":1662360,
			"byteOffset":49882016,
			"target":34962
		},
		{
			"buffer":0,
			"byteLength":1108240,
			"byteOffset":51544376,
			"target":34962
		},
		{
			"buffer":0,
			"byteLength":580320,
			"byteOffset":52652616,
			"target":34963
		},
		{
			"buffer":0,
			"byteLength":26928,
			"byteOffset":53232936,
			"target":34962
		},
		{
			"buffer":0,
			"byteLength":26928,
			"byteOffset":53259864,
			"target":34962
		},
		{
			"buffer":0,
			"byteLength":17952,
			"byteOffset":53286792,
			"target":34962
		},
		{
			"buffer":0,
			"byteLength":22110,
			"byteOffset":53304744,
			"target":34963
		},
		{
			"buffer":0,
			"byteLength":720,
			"byteOffset":53326856,
			"target":34962
		},
		{
			"buffer":0,
			"byteLength":720,
			"byteOffset":53327576,
			"target":34962
		},
		{
			"buffer":0,
			"byteLength":480,
			"byteOffset":53328296,
			"target":34962
		},
		{
			"buffer":0,
			"byteLength":492,
			"byteOffset":53328776,
			"target":34963
		},
		{
			"buffer":0,
			"byteLength":60408,
			"byteOffset":53329268,
			"target":34962
		},
		{
			"buffer":0,
			"byteLength":60408,
			"byteOffset":53389676,
			"target":34962
		},
		{
			"buffer":0,
			"byteLength":40272,
			"byteOffset":53450084,
			"target":34962
		},
		{
			"buffer":0,
			"byteLength":17136,
			"byteOffset":53490356,
			"target":34963
		}
	],
	"buffers":[
		{
			"byteLength":53507492,
			"uri":"smalldeskAndChairgroup1.bin"
		}
	]
}
