{
	"asset":{
		"generator":"Khronos glTF Blender I/O v4.1.63",
		"version":"2.0"
	},
	"scene":0,
	"scenes":[
		{
			"name":"Scene",
			"nodes":[
				0
			]
		}
	],
	"nodes":[
		{
			"mesh":0,
			"name":"smalldeskAndChairgroup1",
			"scale":[
				0.675612211227417,
				0.675612211227417,
				0.675612211227417
			],
			"translation":[
				-0.4981146454811096,
				-0.0001454576849937439,
				-3.816891670227051
			]
		}
	],
	"materials":[
		{
			"doubleSided":true,
			"name":"p\u00f6yd\u00e4njalat.003",
			"pbrMetallicRoughness":{
				"baseColorFactor":[
					0.025186695158481598,
					0.02518688142299652,
					0.025186870247125626,
					1
				],
				"metallicFactor":0,
				"roughnessFactor":0.5
			}
		},
		{
			"doubleSided":true,
			"name":"p\u00f6yd\u00e4np\u00e4\u00e4llys.003",
			"pbrMetallicRoughness":{
				"baseColorFactor":[
					0.800000011920929,
					0.800000011920929,
					0.800000011920929,
					1
				],
				"metallicFactor":0,
				"roughnessFactor":0.5
			}
		},
		{
			"doubleSided":true,
			"name":"Material.012",
			"pbrMetallicRoughness":{
				"baseColorFactor":[
					0.057286135852336884,
					0.14088957011699677,
					0.8012280464172363,
					1
				],
				"metallicFactor":0,
				"roughnessFactor":0.5
			}
		},
		{
			"doubleSided":true,
			"name":"Material.013",
			"pbrMetallicRoughness":{
				"baseColorFactor":[
					0.027775507420301437,
					0.027775507420301437,
					0.027775507420301437,
					1
				],
				"metallicFactor":0,
				"roughnessFactor":0.5
			}
		},
		{
			"doubleSided":true,
			"name":"Material.014",
			"pbrMetallicRoughness":{
				"baseColorFactor":[
					0.6577329039573669,
					0.6577329039573669,
					0.6577329039573669,
					1
				],
				"metallicFactor":0.6454545259475708,
				"roughnessFactor":0.08636364340782166
			}
		},
		{
			"doubleSided":true,
			"name":"Material.015",
			"pbrMetallicRoughness":{
				"baseColorFactor":[
					0.02613036334514618,
					0.02613036334514618,
					0.02613036334514618,
					1
				],
				"metallicFactor":0,
				"roughnessFactor":0.5
			}
		}
	],
	"meshes":[
		{
			"name":"smalldesk",
			"primitives":[
				{
					"attributes":{
						"POSITION":0,
						"NORMAL":1,
						"TEXCOORD_0":2
					},
					"indices":3,
					"material":0
				},
				{
					"attributes":{
						"POSITION":4,
						"NORMAL":5,
						"TEXCOORD_0":6
					},
					"indices":7,
					"material":1
				},
				{
					"attributes":{
						"POSITION":8,
						"NORMAL":9,
						"TEXCOORD_0":10
					},
					"indices":11,
					"material":2
				},
				{
					"attributes":{
						"POSITION":12,
						"NORMAL":13,
						"TEXCOORD_0":14
					},
					"indices":15,
					"material":3
				},
				{
					"attributes":{
						"POSITION":16,
						"NORMAL":17,
						"TEXCOORD_0":18
					},
					"indices":19,
					"material":4
				},
				{
					"attributes":{
						"POSITION":20,
						"NORMAL":21,
						"TEXCOORD_0":22
					},
					"indices":23,
					"material":5
				}
			]
		}
	],
	"accessors":[
		{
			"bufferView":0,
			"componentType":5126,
			"count":93109,
			"max":[
				46.41759490966797,
				1.1947605609893799,
				84.88656616210938
			],
			"min":[
				-7.086087226867676,
				0.003200531005859375,
				-55.597923278808594
			],
			"type":"VEC3"
		},
		{
			"bufferView":1,
			"componentType":5126,
			"count":93109,
			"type":"VEC3"
		},
		{
			"bufferView":2,
			"componentType":5126,
			"count":93109,
			"type":"VEC2"
		},
		{
			"bufferView":3,
			"componentType":5125,
			"count":147420,
			"type":"SCALAR"
		},
		{
			"bufferView":4,
			"componentType":5126,
			"count":2398,
			"max":[
				46.47273635864258,
				1.2586909532546997,
				84.94298553466797
			],
			"min":[
				-7.144256591796875,
				1.1907877922058105,
				-55.65316390991211
			],
			"type":"VEC3"
		},
		{
			"bufferView":5,
			"componentType":5126,
			"count":2398,
			"type":"VEC3"
		},
		{
			"bufferView":6,
			"componentType":5126,
			"count":2398,
			"type":"VEC2"
		},
		{
			"bufferView":7,
			"componentType":5123,
			"count":3900,
			"type":"SCALAR"
		},
		{
			"bufferView":8,
			"componentType":5126,
			"count":1163961,
			"max":[
				47.13460922241211,
				1.364662766456604,
				84.14041137695312
			],
			"min":[
				-6.99626350402832,
				0.5251169800758362,
				-55.00846481323242
			],
			"type":"VEC3"
		},
		{
			"bufferView":9,
			"componentType":5126,
			"count":1163961,
			"type":"VEC3"
		},
		{
			"bufferView":10,
			"componentType":5126,
			"count":1163961,
			"type":"VEC2"
		},
		{
			"bufferView":11,
			"componentType":5125,
			"count":1497600,
			"type":"SCALAR"
		},
		{
			"bufferView":12,
			"componentType":5126,
			"count":23570,
			"max":[
				46.90701675415039,
				0.1581876277923584,
				83.99378204345703
			],
			"min":[
				-6.993812561035156,
				0.01449042558670044,
				-54.95648193359375
			],
			"type":"VEC3"
		},
		{
			"bufferView":13,
			"componentType":5126,
			"count":23570,
			"type":"VEC3"
		},
		{
			"bufferView":14,
			"componentType":5126,
			"count":23570,
			"type":"VEC2"
		},
		{
			"bufferView":15,
			"componentType":5123,
			"count":35100,
			"type":"SCALAR"
		},
		{
			"bufferView":16,
			"componentType":5126,
			"count":15274,
			"max":[
				46.5191764831543,
				0.6380648612976074,
				83.62920379638672
			],
			"min":[
				-6.622530937194824,
				0.14154523611068726,
				-54.49964141845703
			],
			"type":"VEC3"
		},
		{
			"bufferView":17,
			"componentType":5126,
			"count":15274,
			"type":"VEC3"
		},
		{
			"bufferView":18,
			"componentType":5126,
			"count":15274,
			"type":"VEC2"
		},
		{
			"bufferView":19,
			"componentType":5123,
			"count":24180,
			"type":"SCALAR"
		},
		{
			"bufferView":20,
			"componentType":5126,
			"count":138534,
			"max":[
				46.940128326416016,
				0.14418405294418335,
				84.01741790771484
			],
			"min":[
				-7.038663864135742,
				-0.02916640043258667,
				-54.98660659790039
			],
			"type":"VEC3"
		},
		{
			"bufferView":21,
			"componentType":5126,
			"count":138534,
			"type":"VEC3"
		},
		{
			"bufferView":22,
			"componentType":5126,
			"count":138534,
			"type":"VEC2"
		},
		{
			"bufferView":23,
			"componentType":5125,
			"count":145080,
			"type":"SCALAR"
		}
	],
	"bufferViews":[
		{
			"buffer":0,
			"byteLength":1117308,
			"byteOffset":0,
			"target":34962
		},
		{
			"buffer":0,
			"byteLength":1117308,
			"byteOffset":1117308,
			"target":34962
		},
		{
			"buffer":0,
			"byteLength":744872,
			"byteOffset":2234616,
			"target":34962
		},
		{
			"buffer":0,
			"byteLength":589680,
			"byteOffset":2979488,
			"target":34963
		},
		{
			"buffer":0,
			"byteLength":28776,
			"byteOffset":3569168,
			"target":34962
		},
		{
			"buffer":0,
			"byteLength":28776,
			"byteOffset":3597944,
			"target":34962
		},
		{
			"buffer":0,
			"byteLength":19184,
			"byteOffset":3626720,
			"target":34962
		},
		{
			"buffer":0,
			"byteLength":7800,
			"byteOffset":3645904,
			"target":34963
		},
		{
			"buffer":0,
			"byteLength":13967532,
			"byteOffset":3653704,
			"target":34962
		},
		{
			"buffer":0,
			"byteLength":13967532,
			"byteOffset":17621236,
			"target":34962
		},
		{
			"buffer":0,
			"byteLength":9311688,
			"byteOffset":31588768,
			"target":34962
		},
		{
			"buffer":0,
			"byteLength":5990400,
			"byteOffset":40900456,
			"target":34963
		},
		{
			"buffer":0,
			"byteLength":282840,
			"byteOffset":46890856,
			"target":34962
		},
		{
			"buffer":0,
			"byteLength":282840,
			"byteOffset":47173696,
			"target":34962
		},
		{
			"buffer":0,
			"byteLength":188560,
			"byteOffset":47456536,
			"target":34962
		},
		{
			"buffer":0,
			"byteLength":70200,
			"byteOffset":47645096,
			"target":34963
		},
		{
			"buffer":0,
			"byteLength":183288,
			"byteOffset":47715296,
			"target":34962
		},
		{
			"buffer":0,
			"byteLength":183288,
			"byteOffset":47898584,
			"target":34962
		},
		{
			"buffer":0,
			"byteLength":122192,
			"byteOffset":48081872,
			"target":34962
		},
		{
			"buffer":0,
			"byteLength":48360,
			"byteOffset":48204064,
			"target":34963
		},
		{
			"buffer":0,
			"byteLength":1662408,
			"byteOffset":48252424,
			"target":34962
		},
		{
			"buffer":0,
			"byteLength":1662408,
			"byteOffset":49914832,
			"target":34962
		},
		{
			"buffer":0,
			"byteLength":1108272,
			"byteOffset":51577240,
			"target":34962
		},
		{
			"buffer":0,
			"byteLength":580320,
			"byteOffset":52685512,
			"target":34963
		}
	],
	"buffers":[
		{
			"byteLength":53265832,
			"uri":"smalldeskAndChairgroup1.bin"
		}
	]
}
