{
	"asset":{
		"generator":"Khronos glTF Blender I/O v4.1.62",
		"version":"2.0"
	},
	"scene":0,
	"scenes":[
		{
			"name":"Scene",
			"nodes":[
				0
			]
		}
	],
	"nodes":[
		{
			"mesh":0,
			"name":"doors",
			"scale":[
				0.06147339940071106,
				1,
				0.6290357112884521
			],
			"translation":[
				1.139055848121643,
				0,
				-36.298919677734375
			]
		}
	],
	"meshes":[
		{
			"name":"doors",
			"primitives":[
				{
					"attributes":{
						"POSITION":0,
						"NORMAL":1,
						"TEXCOORD_0":2
					},
					"indices":3
				}
			]
		}
	],
	"accessors":[
		{
			"bufferView":0,
			"componentType":5126,
			"count":5328,
			"max":[
				388.44091796875,
				2.9932427406311035,
				140.03842163085938
			],
			"min":[
				-73.2073974609375,
				0,
				-13.398115158081055
			],
			"type":"VEC3"
		},
		{
			"bufferView":1,
			"componentType":5126,
			"count":5328,
			"type":"VEC3"
		},
		{
			"bufferView":2,
			"componentType":5126,
			"count":5328,
			"type":"VEC2"
		},
		{
			"bufferView":3,
			"componentType":5123,
			"count":9840,
			"type":"SCALAR"
		}
	],
	"bufferViews":[
		{
			"buffer":0,
			"byteLength":63936,
			"byteOffset":0,
			"target":34962
		},
		{
			"buffer":0,
			"byteLength":63936,
			"byteOffset":63936,
			"target":34962
		},
		{
			"buffer":0,
			"byteLength":42624,
			"byteOffset":127872,
			"target":34962
		},
		{
			"buffer":0,
			"byteLength":19680,
			"byteOffset":170496,
			"target":34963
		}
	],
	"buffers":[
		{
			"byteLength":190176,
			"uri":"7thdoors.bin"
		}
	]
}
