{
	"asset":{
		"generator":"Khronos glTF Blender I/O v4.1.62",
		"version":"2.0"
	},
	"scene":0,
	"scenes":[
		{
			"name":"Scene",
			"nodes":[
				0
			]
		}
	],
	"nodes":[
		{
			"mesh":0,
			"name":"walls",
			"rotation":[
				0,
				-0.35528531670570374,
				0,
				0.9347578883171082
			],
			"scale":[
				0.12702609598636627,
				1,
				0.3333333730697632
			],
			"translation":[
				10.099617004394531,
				0,
				-1.2086628675460815
			]
		}
	],
	"materials":[
		{
			"doubleSided":true,
			"name":"Material",
			"pbrMetallicRoughness":{
				"baseColorFactor":[
					0.6156730651855469,
					0.7593405246734619,
					0.8002041578292847,
					1
				],
				"metallicFactor":0,
				"roughnessFactor":0.5
			}
		}
	],
	"meshes":[
		{
			"name":"Plane.001",
			"primitives":[
				{
					"attributes":{
						"POSITION":0,
						"NORMAL":1,
						"TEXCOORD_0":2
					},
					"indices":3,
					"material":0
				}
			]
		}
	],
	"accessors":[
		{
			"bufferView":0,
			"componentType":5126,
			"count":5496,
			"max":[
				306.9310302734375,
				3.008476495742798,
				159.543212890625
			],
			"min":[
				-334.6828308105469,
				-0.02615942433476448,
				-122.17350769042969
			],
			"type":"VEC3"
		},
		{
			"bufferView":1,
			"componentType":5126,
			"count":5496,
			"type":"VEC3"
		},
		{
			"bufferView":2,
			"componentType":5126,
			"count":5496,
			"type":"VEC2"
		},
		{
			"bufferView":3,
			"componentType":5123,
			"count":10572,
			"type":"SCALAR"
		}
	],
	"bufferViews":[
		{
			"buffer":0,
			"byteLength":65952,
			"byteOffset":0,
			"target":34962
		},
		{
			"buffer":0,
			"byteLength":65952,
			"byteOffset":65952,
			"target":34962
		},
		{
			"buffer":0,
			"byteLength":43968,
			"byteOffset":131904,
			"target":34962
		},
		{
			"buffer":0,
			"byteLength":21144,
			"byteOffset":175872,
			"target":34963
		}
	],
	"buffers":[
		{
			"byteLength":197016,
			"uri":"7thwalls.bin"
		}
	]
}
