{
	"asset":{
		"generator":"Khronos glTF Blender I/O v4.1.62",
		"version":"2.0"
	},
	"extensionsUsed":[
		"KHR_materials_transmission",
		"KHR_materials_specular",
		"EXT_texture_webp"
	],
	"scene":0,
	"scenes":[
		{
			"name":"Scene",
			"nodes":[
				0
			]
		}
	],
	"nodes":[
		{
			"mesh":0,
			"name":"extraStuff",
			"rotation":[
				-0.03132499381899834,
				-0.3921909034252167,
				0.004999464377760887,
				0.91933673620224
			],
			"scale":[
				0.055550966411828995,
				0.055550966411828995,
				0.05555097013711929
			],
			"translation":[
				14.173540115356445,
				1.175843358039856,
				-31.23543930053711
			]
		}
	],
	"materials":[
		{
			"doubleSided":true,
			"extensions":{
				"KHR_materials_transmission":{
					"transmissionFactor":1
				},
				"KHR_materials_specular":{
					"specularFactor":0.5400000214576721
				}
			},
			"name":"_10778_Toilet_V201___Default",
			"pbrMetallicRoughness":{
				"baseColorTexture":{
					"index":0
				},
				"metallicFactor":0,
				"roughnessFactor":0.7741681933403015
			}
		}
	],
	"meshes":[
		{
			"name":"10778_Toilet_V2",
			"primitives":[
				{
					"attributes":{
						"POSITION":0,
						"NORMAL":1,
						"TEXCOORD_0":2,
						"TANGENT":3
					},
					"indices":4,
					"material":0
				}
			]
		}
	],
	"textures":[
		{
			"extensions":{
				"EXT_texture_webp":{
					"source":0
				}
			},
			"sampler":0,
			"source":1
		}
	],
	"images":[
		{
			"mimeType":"image/webp",
			"name":"Toilet",
			"uri":"Toilet.webp"
		},
		{
			"mimeType":"image/jpeg",
			"name":"Toilet",
			"uri":"Toilet.jpg"
		}
	],
	"accessors":[
		{
			"bufferView":0,
			"componentType":5126,
			"count":169039,
			"max":[
				902.337646484375,
				7.500021457672119,
				1065.3974609375
			],
			"min":[
				-33.79314422607422,
				-98.2441635131836,
				-15.691736221313477
			],
			"type":"VEC3"
		},
		{
			"bufferView":1,
			"componentType":5126,
			"count":169039,
			"type":"VEC3"
		},
		{
			"bufferView":2,
			"componentType":5126,
			"count":169039,
			"type":"VEC2"
		},
		{
			"bufferView":3,
			"componentType":5126,
			"count":169039,
			"type":"VEC4"
		},
		{
			"bufferView":4,
			"componentType":5125,
			"count":851328,
			"type":"SCALAR"
		}
	],
	"bufferViews":[
		{
			"buffer":0,
			"byteLength":2028468,
			"byteOffset":0,
			"target":34962
		},
		{
			"buffer":0,
			"byteLength":2028468,
			"byteOffset":2028468,
			"target":34962
		},
		{
			"buffer":0,
			"byteLength":1352312,
			"byteOffset":4056936,
			"target":34962
		},
		{
			"buffer":0,
			"byteLength":2704624,
			"byteOffset":5409248,
			"target":34962
		},
		{
			"buffer":0,
			"byteLength":3405312,
			"byteOffset":8113872,
			"target":34963
		}
	],
	"samplers":[
		{
			"magFilter":9729,
			"minFilter":9987
		}
	],
	"buffers":[
		{
			"byteLength":11519184,
			"uri":"extraStuff.bin"
		}
	]
}
