{
	"asset":{
		"generator":"Khronos glTF Blender I/O v4.1.62",
		"version":"2.0"
	},
	"scene":0,
	"scenes":[
		{
			"name":"Scene",
			"nodes":[
				0
			]
		}
	],
	"nodes":[
		{
			"mesh":0,
			"name":"smalldeskAndChairgroup1",
			"scale":[
				0.675612211227417,
				0.675612211227417,
				0.675612211227417
			],
			"translation":[
				-0.4981146454811096,
				-0.0001454576849937439,
				-3.816891670227051
			]
		}
	],
	"materials":[
		{
			"doubleSided":true,
			"name":"p\u00f6yd\u00e4njalat",
			"pbrMetallicRoughness":{
				"baseColorFactor":[
					0.025186695158481598,
					0.02518688142299652,
					0.025186870247125626,
					1
				],
				"metallicFactor":0,
				"roughnessFactor":0.5
			}
		},
		{
			"doubleSided":true,
			"name":"p\u00f6yd\u00e4np\u00e4\u00e4llys",
			"pbrMetallicRoughness":{
				"baseColorFactor":[
					0.800000011920929,
					0.800000011920929,
					0.800000011920929,
					1
				],
				"metallicFactor":0,
				"roughnessFactor":0.5
			}
		},
		{
			"doubleSided":true,
			"name":"Material.001",
			"pbrMetallicRoughness":{
				"baseColorFactor":[
					0.057286135852336884,
					0.14088957011699677,
					0.8012280464172363,
					1
				],
				"metallicFactor":0,
				"roughnessFactor":0.5
			}
		},
		{
			"doubleSided":true,
			"name":"Material.005",
			"pbrMetallicRoughness":{
				"baseColorFactor":[
					0.027775507420301437,
					0.027775507420301437,
					0.027775507420301437,
					1
				],
				"metallicFactor":0,
				"roughnessFactor":0.5
			}
		},
		{
			"doubleSided":true,
			"name":"Material.002",
			"pbrMetallicRoughness":{
				"baseColorFactor":[
					0.6577329039573669,
					0.6577329039573669,
					0.6577329039573669,
					1
				],
				"metallicFactor":0.6454545259475708,
				"roughnessFactor":0.08636364340782166
			}
		},
		{
			"doubleSided":true,
			"name":"Material.006",
			"pbrMetallicRoughness":{
				"baseColorFactor":[
					0.02613036334514618,
					0.02613036334514618,
					0.02613036334514618,
					1
				],
				"metallicFactor":0,
				"roughnessFactor":0.5
			}
		}
	],
	"meshes":[
		{
			"name":"smalldesk",
			"primitives":[
				{
					"attributes":{
						"POSITION":0,
						"NORMAL":1,
						"TEXCOORD_0":2
					},
					"indices":3,
					"material":0
				},
				{
					"attributes":{
						"POSITION":4,
						"NORMAL":5,
						"TEXCOORD_0":6
					},
					"indices":7,
					"material":1
				},
				{
					"attributes":{
						"POSITION":8,
						"NORMAL":9,
						"TEXCOORD_0":10
					},
					"indices":11,
					"material":2
				},
				{
					"attributes":{
						"POSITION":12,
						"NORMAL":13,
						"TEXCOORD_0":14
					},
					"indices":15,
					"material":3
				},
				{
					"attributes":{
						"POSITION":16,
						"NORMAL":17,
						"TEXCOORD_0":18
					},
					"indices":19,
					"material":4
				},
				{
					"attributes":{
						"POSITION":20,
						"NORMAL":21,
						"TEXCOORD_0":22
					},
					"indices":23,
					"material":5
				}
			]
		}
	],
	"accessors":[
		{
			"bufferView":0,
			"componentType":5126,
			"count":86701,
			"max":[
				46.41759490966797,
				1.1947605609893799,
				78.94419860839844
			],
			"min":[
				-7.086087226867676,
				0.003200531005859375,
				-55.597923278808594
			],
			"type":"VEC3"
		},
		{
			"bufferView":1,
			"componentType":5126,
			"count":86701,
			"type":"VEC3"
		},
		{
			"bufferView":2,
			"componentType":5126,
			"count":86701,
			"type":"VEC2"
		},
		{
			"bufferView":3,
			"componentType":5125,
			"count":140616,
			"type":"SCALAR"
		},
		{
			"bufferView":4,
			"componentType":5126,
			"count":2280,
			"max":[
				46.47273635864258,
				1.2586909532546997,
				79.00297546386719
			],
			"min":[
				-7.144256591796875,
				1.1907877922058105,
				-55.65316390991211
			],
			"type":"VEC3"
		},
		{
			"bufferView":5,
			"componentType":5126,
			"count":2280,
			"type":"VEC3"
		},
		{
			"bufferView":6,
			"componentType":5126,
			"count":2280,
			"type":"VEC2"
		},
		{
			"bufferView":7,
			"componentType":5123,
			"count":3720,
			"type":"SCALAR"
		},
		{
			"bufferView":8,
			"componentType":5126,
			"count":1097046,
			"max":[
				47.13460922241211,
				1.364662766456604,
				77.69447326660156
			],
			"min":[
				-6.99626350402832,
				0.5251169800758362,
				-55.00846481323242
			],
			"type":"VEC3"
		},
		{
			"bufferView":9,
			"componentType":5126,
			"count":1097046,
			"type":"VEC3"
		},
		{
			"bufferView":10,
			"componentType":5126,
			"count":1097046,
			"type":"VEC2"
		},
		{
			"bufferView":11,
			"componentType":5125,
			"count":1428480,
			"type":"SCALAR"
		},
		{
			"bufferView":12,
			"componentType":5126,
			"count":22290,
			"max":[
				46.90701675415039,
				0.1581876277923584,
				77.635498046875
			],
			"min":[
				-6.993812561035156,
				0.01449042558670044,
				-54.95648193359375
			],
			"type":"VEC3"
		},
		{
			"bufferView":13,
			"componentType":5126,
			"count":22290,
			"type":"VEC3"
		},
		{
			"bufferView":14,
			"componentType":5126,
			"count":22290,
			"type":"VEC2"
		},
		{
			"bufferView":15,
			"componentType":5123,
			"count":33480,
			"type":"SCALAR"
		},
		{
			"bufferView":16,
			"componentType":5126,
			"count":14409,
			"max":[
				46.5191764831543,
				0.6380648612976074,
				77.28790283203125
			],
			"min":[
				-6.622530937194824,
				0.14154523611068726,
				-54.49964141845703
			],
			"type":"VEC3"
		},
		{
			"bufferView":17,
			"componentType":5126,
			"count":14409,
			"type":"VEC3"
		},
		{
			"bufferView":18,
			"componentType":5126,
			"count":14409,
			"type":"VEC2"
		},
		{
			"bufferView":19,
			"componentType":5123,
			"count":23064,
			"type":"SCALAR"
		},
		{
			"bufferView":20,
			"componentType":5126,
			"count":131284,
			"max":[
				46.940128326416016,
				0.14418405294418335,
				77.69767761230469
			],
			"min":[
				-7.038663864135742,
				-0.02916640043258667,
				-54.98660659790039
			],
			"type":"VEC3"
		},
		{
			"bufferView":21,
			"componentType":5126,
			"count":131284,
			"type":"VEC3"
		},
		{
			"bufferView":22,
			"componentType":5126,
			"count":131284,
			"type":"VEC2"
		},
		{
			"bufferView":23,
			"componentType":5125,
			"count":138384,
			"type":"SCALAR"
		}
	],
	"bufferViews":[
		{
			"buffer":0,
			"byteLength":1040412,
			"byteOffset":0,
			"target":34962
		},
		{
			"buffer":0,
			"byteLength":1040412,
			"byteOffset":1040412,
			"target":34962
		},
		{
			"buffer":0,
			"byteLength":693608,
			"byteOffset":2080824,
			"target":34962
		},
		{
			"buffer":0,
			"byteLength":562464,
			"byteOffset":2774432,
			"target":34963
		},
		{
			"buffer":0,
			"byteLength":27360,
			"byteOffset":3336896,
			"target":34962
		},
		{
			"buffer":0,
			"byteLength":27360,
			"byteOffset":3364256,
			"target":34962
		},
		{
			"buffer":0,
			"byteLength":18240,
			"byteOffset":3391616,
			"target":34962
		},
		{
			"buffer":0,
			"byteLength":7440,
			"byteOffset":3409856,
			"target":34963
		},
		{
			"buffer":0,
			"byteLength":13164552,
			"byteOffset":3417296,
			"target":34962
		},
		{
			"buffer":0,
			"byteLength":13164552,
			"byteOffset":16581848,
			"target":34962
		},
		{
			"buffer":0,
			"byteLength":8776368,
			"byteOffset":29746400,
			"target":34962
		},
		{
			"buffer":0,
			"byteLength":5713920,
			"byteOffset":38522768,
			"target":34963
		},
		{
			"buffer":0,
			"byteLength":267480,
			"byteOffset":44236688,
			"target":34962
		},
		{
			"buffer":0,
			"byteLength":267480,
			"byteOffset":44504168,
			"target":34962
		},
		{
			"buffer":0,
			"byteLength":178320,
			"byteOffset":44771648,
			"target":34962
		},
		{
			"buffer":0,
			"byteLength":66960,
			"byteOffset":44949968,
			"target":34963
		},
		{
			"buffer":0,
			"byteLength":172908,
			"byteOffset":45016928,
			"target":34962
		},
		{
			"buffer":0,
			"byteLength":172908,
			"byteOffset":45189836,
			"target":34962
		},
		{
			"buffer":0,
			"byteLength":115272,
			"byteOffset":45362744,
			"target":34962
		},
		{
			"buffer":0,
			"byteLength":46128,
			"byteOffset":45478016,
			"target":34963
		},
		{
			"buffer":0,
			"byteLength":1575408,
			"byteOffset":45524144,
			"target":34962
		},
		{
			"buffer":0,
			"byteLength":1575408,
			"byteOffset":47099552,
			"target":34962
		},
		{
			"buffer":0,
			"byteLength":1050272,
			"byteOffset":48674960,
			"target":34962
		},
		{
			"buffer":0,
			"byteLength":553536,
			"byteOffset":49725232,
			"target":34963
		}
	],
	"buffers":[
		{
			"byteLength":50278768,
			"uri":"smalldeskAndChairgroup1.bin"
		}
	]
}
