{
	"asset":{
		"generator":"Khronos glTF Blender I/O v4.1.62",
		"version":"2.0"
	},
	"scene":0,
	"scenes":[
		{
			"name":"Scene",
			"nodes":[
				0
			]
		}
	],
	"nodes":[
		{
			"mesh":0,
			"name":"smalldeskAndChairgroup2",
			"scale":[
				0.675612211227417,
				0.675612211227417,
				0.675612211227417
			],
			"translation":[
				-0.4981146454811096,
				-0.0001454576849937439,
				-3.816891670227051
			]
		}
	],
	"materials":[
		{
			"doubleSided":true,
			"name":"p\u00f6yd\u00e4njalat.001",
			"pbrMetallicRoughness":{
				"baseColorFactor":[
					0.025186695158481598,
					0.02518688142299652,
					0.025186870247125626,
					1
				],
				"metallicFactor":0,
				"roughnessFactor":0.5
			}
		},
		{
			"doubleSided":true,
			"name":"p\u00f6yd\u00e4np\u00e4\u00e4llys.001",
			"pbrMetallicRoughness":{
				"baseColorFactor":[
					0.800000011920929,
					0.800000011920929,
					0.800000011920929,
					1
				],
				"metallicFactor":0,
				"roughnessFactor":0.5
			}
		},
		{
			"doubleSided":true,
			"name":"Material.010",
			"pbrMetallicRoughness":{
				"baseColorFactor":[
					0.057286135852336884,
					0.14088957011699677,
					0.8012280464172363,
					1
				],
				"metallicFactor":0,
				"roughnessFactor":0.5
			}
		},
		{
			"doubleSided":true,
			"name":"Material.008",
			"pbrMetallicRoughness":{
				"baseColorFactor":[
					0.027775507420301437,
					0.027775507420301437,
					0.027775507420301437,
					1
				],
				"metallicFactor":0,
				"roughnessFactor":0.5
			}
		},
		{
			"doubleSided":true,
			"name":"Material.009",
			"pbrMetallicRoughness":{
				"baseColorFactor":[
					0.6577329039573669,
					0.6577329039573669,
					0.6577329039573669,
					1
				],
				"metallicFactor":0.6454545259475708,
				"roughnessFactor":0.08636364340782166
			}
		},
		{
			"doubleSided":true,
			"name":"Material.007",
			"pbrMetallicRoughness":{
				"baseColorFactor":[
					0.02613036334514618,
					0.02613036334514618,
					0.02613036334514618,
					1
				],
				"metallicFactor":0,
				"roughnessFactor":0.5
			}
		}
	],
	"meshes":[
		{
			"name":"smalldesk.001",
			"primitives":[
				{
					"attributes":{
						"POSITION":0,
						"NORMAL":1,
						"TEXCOORD_0":2
					},
					"indices":3,
					"material":0
				},
				{
					"attributes":{
						"POSITION":4,
						"NORMAL":5,
						"TEXCOORD_0":6
					},
					"indices":7,
					"material":1
				},
				{
					"attributes":{
						"POSITION":8,
						"NORMAL":9,
						"TEXCOORD_0":10
					},
					"indices":11,
					"material":2
				},
				{
					"attributes":{
						"POSITION":12,
						"NORMAL":13,
						"TEXCOORD_0":14
					},
					"indices":15,
					"material":3
				},
				{
					"attributes":{
						"POSITION":16,
						"NORMAL":17,
						"TEXCOORD_0":18
					},
					"indices":19,
					"material":4
				},
				{
					"attributes":{
						"POSITION":20,
						"NORMAL":21,
						"TEXCOORD_0":22
					},
					"indices":23,
					"material":5
				}
			]
		}
	],
	"accessors":[
		{
			"bufferView":0,
			"componentType":5126,
			"count":32989,
			"max":[
				41.73988342285156,
				1.1947605609893799,
				53.98641586303711
			],
			"min":[
				6.163652420043945,
				0.003200531005859375,
				-22.534015655517578
			],
			"type":"VEC3"
		},
		{
			"bufferView":1,
			"componentType":5126,
			"count":32989,
			"type":"VEC3"
		},
		{
			"bufferView":2,
			"componentType":5126,
			"count":32989,
			"type":"VEC2"
		},
		{
			"bufferView":3,
			"componentType":5123,
			"count":52164,
			"type":"SCALAR"
		},
		{
			"bufferView":4,
			"componentType":5126,
			"count":842,
			"max":[
				41.77815246582031,
				1.2586909532546997,
				54.029869079589844
			],
			"min":[
				6.098550796508789,
				1.1907877922058105,
				-22.58990478515625
			],
			"type":"VEC3"
		},
		{
			"bufferView":5,
			"componentType":5126,
			"count":842,
			"type":"VEC3"
		},
		{
			"bufferView":6,
			"componentType":5126,
			"count":842,
			"type":"VEC2"
		},
		{
			"bufferView":7,
			"componentType":5123,
			"count":1380,
			"type":"SCALAR"
		},
		{
			"bufferView":8,
			"componentType":5126,
			"count":403277,
			"max":[
				42.452064514160156,
				1.364662766456604,
				53.445796966552734
			],
			"min":[
				6.957569122314453,
				0.5251169800758362,
				-21.932231903076172
			],
			"type":"VEC3"
		},
		{
			"bufferView":9,
			"componentType":5126,
			"count":403277,
			"type":"VEC3"
		},
		{
			"bufferView":10,
			"componentType":5126,
			"count":403277,
			"type":"VEC2"
		},
		{
			"bufferView":11,
			"componentType":5125,
			"count":529920,
			"type":"SCALAR"
		},
		{
			"bufferView":12,
			"componentType":5126,
			"count":8420,
			"max":[
				42.236305236816406,
				0.1581876277923584,
				53.28506088256836
			],
			"min":[
				7.0091705322265625,
				0.01449042558670044,
				-21.880451202392578
			],
			"type":"VEC3"
		},
		{
			"bufferView":13,
			"componentType":5126,
			"count":8420,
			"type":"VEC3"
		},
		{
			"bufferView":14,
			"componentType":5126,
			"count":8420,
			"type":"VEC2"
		},
		{
			"bufferView":15,
			"componentType":5123,
			"count":12420,
			"type":"SCALAR"
		},
		{
			"bufferView":16,
			"componentType":5126,
			"count":5388,
			"max":[
				41.8463134765625,
				0.6380648612976074,
				52.94647216796875
			],
			"min":[
				7.472572326660156,
				0.14154523611068726,
				-21.422794342041016
			],
			"type":"VEC3"
		},
		{
			"bufferView":17,
			"componentType":5126,
			"count":5388,
			"type":"VEC3"
		},
		{
			"bufferView":18,
			"componentType":5126,
			"count":5388,
			"type":"VEC2"
		},
		{
			"bufferView":19,
			"componentType":5123,
			"count":8556,
			"type":"SCALAR"
		},
		{
			"bufferView":20,
			"componentType":5126,
			"count":47768,
			"max":[
				42.24589157104492,
				0.14418405294418335,
				53.32052230834961
			],
			"min":[
				6.981372833251953,
				-0.02916640043258667,
				-21.909896850585938
			],
			"type":"VEC3"
		},
		{
			"bufferView":21,
			"componentType":5126,
			"count":47768,
			"type":"VEC3"
		},
		{
			"bufferView":22,
			"componentType":5126,
			"count":47768,
			"type":"VEC2"
		},
		{
			"bufferView":23,
			"componentType":5123,
			"count":51336,
			"type":"SCALAR"
		}
	],
	"bufferViews":[
		{
			"buffer":0,
			"byteLength":395868,
			"byteOffset":0,
			"target":34962
		},
		{
			"buffer":0,
			"byteLength":395868,
			"byteOffset":395868,
			"target":34962
		},
		{
			"buffer":0,
			"byteLength":263912,
			"byteOffset":791736,
			"target":34962
		},
		{
			"buffer":0,
			"byteLength":104328,
			"byteOffset":1055648,
			"target":34963
		},
		{
			"buffer":0,
			"byteLength":10104,
			"byteOffset":1159976,
			"target":34962
		},
		{
			"buffer":0,
			"byteLength":10104,
			"byteOffset":1170080,
			"target":34962
		},
		{
			"buffer":0,
			"byteLength":6736,
			"byteOffset":1180184,
			"target":34962
		},
		{
			"buffer":0,
			"byteLength":2760,
			"byteOffset":1186920,
			"target":34963
		},
		{
			"buffer":0,
			"byteLength":4839324,
			"byteOffset":1189680,
			"target":34962
		},
		{
			"buffer":0,
			"byteLength":4839324,
			"byteOffset":6029004,
			"target":34962
		},
		{
			"buffer":0,
			"byteLength":3226216,
			"byteOffset":10868328,
			"target":34962
		},
		{
			"buffer":0,
			"byteLength":2119680,
			"byteOffset":14094544,
			"target":34963
		},
		{
			"buffer":0,
			"byteLength":101040,
			"byteOffset":16214224,
			"target":34962
		},
		{
			"buffer":0,
			"byteLength":101040,
			"byteOffset":16315264,
			"target":34962
		},
		{
			"buffer":0,
			"byteLength":67360,
			"byteOffset":16416304,
			"target":34962
		},
		{
			"buffer":0,
			"byteLength":24840,
			"byteOffset":16483664,
			"target":34963
		},
		{
			"buffer":0,
			"byteLength":64656,
			"byteOffset":16508504,
			"target":34962
		},
		{
			"buffer":0,
			"byteLength":64656,
			"byteOffset":16573160,
			"target":34962
		},
		{
			"buffer":0,
			"byteLength":43104,
			"byteOffset":16637816,
			"target":34962
		},
		{
			"buffer":0,
			"byteLength":17112,
			"byteOffset":16680920,
			"target":34963
		},
		{
			"buffer":0,
			"byteLength":573216,
			"byteOffset":16698032,
			"target":34962
		},
		{
			"buffer":0,
			"byteLength":573216,
			"byteOffset":17271248,
			"target":34962
		},
		{
			"buffer":0,
			"byteLength":382144,
			"byteOffset":17844464,
			"target":34962
		},
		{
			"buffer":0,
			"byteLength":102672,
			"byteOffset":18226608,
			"target":34963
		}
	],
	"buffers":[
		{
			"byteLength":18329280,
			"uri":"smalldeskAndChairgroup2.bin"
		}
	]
}
