{
  "accessors": [
    {
      "bufferView": 2,
      "componentType": 5126,
      "count": 2095,
      "max": [
        1.6813249588012695,
        0.28227698802948,
        5.594541072845459
      ],
      "min": [
        -1.791509985923767,
        -3.240506887435913,
        0.0
      ],
      "type": "VEC3"
    },
    {
      "bufferView": 2,
      "byteOffset": 25140,
      "componentType": 5126,
      "count": 2095,
      "max": [
        0.9999803304672241,
        0.997839093208313,
        0.98081374168396
      ],
      "min": [
        -0.9998559951782227,
        -0.9987716674804688,
        -0.9978168606758118
      ],
      "type": "VEC3"
    },
    {
      "bufferView": 1,
      "componentType": 5126,
      "count": 2095,
      "max": [
        1.0,
        1.0
      ],
      "min": [
        0.0,
        0.0
      ],
      "type": "VEC2"
    },
    {
      "bufferView": 0,
      "componentType": 5125,
      "count": 10992,
      "type": "SCALAR"
    },
    {
      "bufferView": 2,
      "byteOffset": 50280,
      "componentType": 5126,
      "count": 416,
      "max": [
        5.055356979370117,
        2.7693419456481934,
        9.234360694885254
      ],
      "min": [
        -5.169950008392334,
        -6.31330680847168,
        0.5846779942512512
      ],
      "type": "VEC3"
    },
    {
      "bufferView": 2,
      "byteOffset": 55272,
      "componentType": 5126,
      "count": 416,
      "max": [
        0.99846351146698,
        0.9523913860321045,
        0.999792218208313
      ],
      "min": [
        -0.9931996464729309,
        -0.9797599911689758,
        -0.12839995324611664
      ],
      "type": "VEC3"
    },
    {
      "bufferView": 1,
      "byteOffset": 16760,
      "componentType": 5126,
      "count": 416,
      "max": [
        1.0,
        1.0
      ],
      "min": [
        0.0,
        0.0
      ],
      "type": "VEC2"
    },
    {
      "bufferView": 0,
      "byteOffset": 43968,
      "componentType": 5125,
      "count": 624,
      "type": "SCALAR"
    },
    {
      "bufferView": 2,
      "byteOffset": 60264,
      "componentType": 5126,
      "count": 492,
      "max": [
        5.263560771942139,
        3.776124954223633,
        8.472412109375
      ],
      "min": [
        -5.046656131744385,
        -6.789498805999756,
        1.2987020015716553
      ],
      "type": "VEC3"
    },
    {
      "bufferView": 2,
      "byteOffset": 66168,
      "componentType": 5126,
      "count": 492,
      "max": [
        0.9368401169776917,
        0.9969463348388672,
        0.9998964667320251
      ],
      "min": [
        -0.9540809988975525,
        -0.9373367428779602,
        -0.40454408526420593
      ],
      "type": "VEC3"
    },
    {
      "bufferView": 1,
      "byteOffset": 20088,
      "componentType": 5126,
      "count": 492,
      "max": [
        1.0,
        1.0
      ],
      "min": [
        0.0,
        0.0
      ],
      "type": "VEC2"
    },
    {
      "bufferView": 0,
      "byteOffset": 46464,
      "componentType": 5125,
      "count": 738,
      "type": "SCALAR"
    },
    {
      "bufferView": 2,
      "byteOffset": 72072,
      "componentType": 5126,
      "count": 476,
      "max": [
        5.4352569580078125,
        3.1213159561157227,
        8.717460632324219
      ],
      "min": [
        -5.220829010009766,
        -6.916922092437744,
        0.5551990270614624
      ],
      "type": "VEC3"
    },
    {
      "bufferView": 2,
      "byteOffset": 77784,
      "componentType": 5126,
      "count": 476,
      "max": [
        0.9651095271110535,
        0.9952172636985779,
        0.9993909001350403
      ],
      "min": [
        -0.9311469793319702,
        -0.9919757843017578,
        -0.1466829627752304
      ],
      "type": "VEC3"
    },
    {
      "bufferView": 1,
      "byteOffset": 24024,
      "componentType": 5126,
      "count": 476,
      "max": [
        1.0,
        1.0
      ],
      "min": [
        0.0,
        0.0
      ],
      "type": "VEC2"
    },
    {
      "bufferView": 0,
      "byteOffset": 49416,
      "componentType": 5125,
      "count": 714,
      "type": "SCALAR"
    },
    {
      "bufferView": 2,
      "byteOffset": 83496,
      "componentType": 5126,
      "count": 472,
      "max": [
        5.221465110778809,
        3.7220840454101563,
        8.786117553710938
      ],
      "min": [
        -4.733899116516113,
        -6.715872764587402,
        1.0228099822998047
      ],
      "type": "VEC3"
    },
    {
      "bufferView": 2,
      "byteOffset": 89160,
      "componentType": 5126,
      "count": 472,
      "max": [
        0.9658921360969543,
        0.9849933385848999,
        0.9981310963630676
      ],
      "min": [
        -0.815090000629425,
        -0.9780188798904419,
        -0.06838402152061462
      ],
      "type": "VEC3"
    },
    {
      "bufferView": 1,
      "byteOffset": 27832,
      "componentType": 5126,
      "count": 472,
      "max": [
        1.0,
        1.0
      ],
      "min": [
        0.0,
        0.0
      ],
      "type": "VEC2"
    },
    {
      "bufferView": 0,
      "byteOffset": 52272,
      "componentType": 5125,
      "count": 708,
      "type": "SCALAR"
    },
    {
      "bufferView": 2,
      "byteOffset": 94824,
      "componentType": 5126,
      "count": 436,
      "max": [
        5.507788181304932,
        3.607063055038452,
        8.769120216369629
      ],
      "min": [
        -4.987168788909912,
        -6.467090129852295,
        0.992497980594635
      ],
      "type": "VEC3"
    },
    {
      "bufferView": 2,
      "byteOffset": 100056,
      "componentType": 5126,
      "count": 436,
      "max": [
        0.9919717907905579,
        0.8726221323013306,
        0.9865332245826721
      ],
      "min": [
        -0.9951319098472595,
        -0.9919678568840027,
        -0.01414299663156271
      ],
      "type": "VEC3"
    },
    {
      "bufferView": 1,
      "byteOffset": 31608,
      "componentType": 5126,
      "count": 436,
      "max": [
        1.0,
        1.0
      ],
      "min": [
        0.0,
        0.0
      ],
      "type": "VEC2"
    },
    {
      "bufferView": 0,
      "byteOffset": 55104,
      "componentType": 5125,
      "count": 654,
      "type": "SCALAR"
    },
    {
      "bufferView": 2,
      "byteOffset": 105288,
      "componentType": 5126,
      "count": 452,
      "max": [
        5.2791948318481445,
        2.9549899101257324,
        8.955998420715332
      ],
      "min": [
        -4.741608142852783,
        -6.829383850097656,
        1.899857997894287
      ],
      "type": "VEC3"
    },
    {
      "bufferView": 2,
      "byteOffset": 110712,
      "componentType": 5126,
      "count": 452,
      "max": [
        0.9602208733558655,
        0.9293158650398254,
        0.9989471435546875
      ],
      "min": [
        -0.954624593257904,
        -0.9635319709777832,
        -0.4842771291732788
      ],
      "type": "VEC3"
    },
    {
      "bufferView": 1,
      "byteOffset": 35096,
      "componentType": 5126,
      "count": 452,
      "max": [
        1.0,
        1.0
      ],
      "min": [
        0.0,
        0.0
      ],
      "type": "VEC2"
    },
    {
      "bufferView": 0,
      "byteOffset": 57720,
      "componentType": 5125,
      "count": 678,
      "type": "SCALAR"
    }
  ],
  "asset": {
    "extras": {
      "author": "Sereib (https://sketchfab.com/Sereib)",
      "license": "CC-BY-4.0 (http://creativecommons.org/licenses/by/4.0/)",
      "source": "https://sketchfab.com/3d-models/japanese-cherry-tree-low-poly-7c9e7c4e971f4953b06faf300cbb1209",
      "title": "Japanese Cherry Tree (low-Poly)"
    },
    "generator": "Sketchfab-16.8.0",
    "version": "2.0"
  },
  "bufferViews": [
    {
      "buffer": 0,
      "byteLength": 60432,
      "name": "floatBufferViews",
      "target": 34963
    },
    {
      "buffer": 0,
      "byteLength": 38712,
      "byteOffset": 60432,
      "byteStride": 8,
      "name": "floatBufferViews",
      "target": 34962
    },
    {
      "buffer": 0,
      "byteLength": 116136,
      "byteOffset": 99144,
      "byteStride": 12,
      "name": "floatBufferViews",
      "target": 34962
    }
  ],
  "buffers": [
    {
      "byteLength": 215280,
      "uri": "scene.bin"
    }
  ],
  "images": [
    {
      "uri": "textures/nature_bark_linden_02_m_0001.jpg_baseColor.jpeg"
    },
    {
      "uri": "textures/nature_blossoms_prunusserrulata_01_m_0001.jpg_baseColor.png"
    },
    {
      "uri": "textures/nature_blossoms_prunusserrulata_01_m_0002.jpg_baseColor.png"
    },
    {
      "uri": "textures/nature_blossoms_prunusserrulata_01_m_0003.jpg_baseColor.png"
    },
    {
      "uri": "textures/nature_blossoms_prunusserrulata_01_m_0004.jpg_baseColor.png"
    },
    {
      "uri": "textures/nature_blossoms_prunusserrulata_01_m_0005.jpg_baseColor.png"
    },
    {
      "uri": "textures/nature_blossoms_prunusserrulata_01_m_0006.jpg_baseColor.png"
    }
  ],
  "materials": [
    {
      "doubleSided": true,
      "name": "nature_bark_linden_02_m_0001.jpg",
      "pbrMetallicRoughness": {
        "baseColorFactor": [
          0.1922870814603731,
          0.1922870814603731,
          0.1922870814603731,
          1.0
        ],
        "baseColorTexture": {
          "index": 0
        },
        "metallicFactor": 0.3057679819943638,
        "roughnessFactor": 0.6627095456350832
      }
    },
    {
      "alphaMode": "BLEND",
      "doubleSided": true,
      "name": "nature_blossoms_prunusserrulata_01_m_0001.jpg",
      "pbrMetallicRoughness": {
        "baseColorTexture": {
          "index": 1
        },
        "metallicFactor": 0.0,
        "roughnessFactor": 0.9
      }
    },
    {
      "alphaMode": "BLEND",
      "doubleSided": true,
      "name": "nature_blossoms_prunusserrulata_01_m_0002.jpg",
      "pbrMetallicRoughness": {
        "baseColorTexture": {
          "index": 2
        },
        "metallicFactor": 0.0,
        "roughnessFactor": 0.9
      }
    },
    {
      "alphaMode": "BLEND",
      "doubleSided": true,
      "name": "nature_blossoms_prunusserrulata_01_m_0003.jpg",
      "pbrMetallicRoughness": {
        "baseColorTexture": {
          "index": 3
        },
        "metallicFactor": 0.0,
        "roughnessFactor": 0.9
      }
    },
    {
      "alphaMode": "BLEND",
      "doubleSided": true,
      "name": "nature_blossoms_prunusserrulata_01_m_0004.jpg",
      "pbrMetallicRoughness": {
        "baseColorTexture": {
          "index": 4
        },
        "metallicFactor": 0.0,
        "roughnessFactor": 0.9
      }
    },
    {
      "alphaMode": "BLEND",
      "doubleSided": true,
      "name": "nature_blossoms_prunusserrulata_01_m_0005.jpg",
      "pbrMetallicRoughness": {
        "baseColorTexture": {
          "index": 5
        },
        "metallicFactor": 0.0,
        "roughnessFactor": 0.9
      }
    },
    {
      "alphaMode": "BLEND",
      "doubleSided": true,
      "name": "nature_blossoms_prunusserrulata_01_m_0006.jpg",
      "pbrMetallicRoughness": {
        "baseColorTexture": {
          "index": 6
        },
        "metallicFactor": 0.0,
        "roughnessFactor": 0.9
      }
    }
  ],
  "meshes": [
    {
      "name": "Object_0",
      "primitives": [
        {
          "attributes": {
            "NORMAL": 1,
            "POSITION": 0,
            "TEXCOORD_0": 2
          },
          "indices": 3,
          "material": 0,
          "mode": 4
        }
      ]
    },
    {
      "name": "Object_1",
      "primitives": [
        {
          "attributes": {
            "NORMAL": 5,
            "POSITION": 4,
            "TEXCOORD_0": 6
          },
          "indices": 7,
          "material": 1,
          "mode": 4
        }
      ]
    },
    {
      "name": "Object_2",
      "primitives": [
        {
          "attributes": {
            "NORMAL": 9,
            "POSITION": 8,
            "TEXCOORD_0": 10
          },
          "indices": 11,
          "material": 2,
          "mode": 4
        }
      ]
    },
    {
      "name": "Object_3",
      "primitives": [
        {
          "attributes": {
            "NORMAL": 13,
            "POSITION": 12,
            "TEXCOORD_0": 14
          },
          "indices": 15,
          "material": 3,
          "mode": 4
        }
      ]
    },
    {
      "name": "Object_4",
      "primitives": [
        {
          "attributes": {
            "NORMAL": 17,
            "POSITION": 16,
            "TEXCOORD_0": 18
          },
          "indices": 19,
          "material": 4,
          "mode": 4
        }
      ]
    },
    {
      "name": "Object_5",
      "primitives": [
        {
          "attributes": {
            "NORMAL": 21,
            "POSITION": 20,
            "TEXCOORD_0": 22
          },
          "indices": 23,
          "material": 5,
          "mode": 4
        }
      ]
    },
    {
      "name": "Object_6",
      "primitives": [
        {
          "attributes": {
            "NORMAL": 25,
            "POSITION": 24,
            "TEXCOORD_0": 26
          },
          "indices": 27,
          "material": 6,
          "mode": 4
        }
      ]
    }
  ],
  "nodes": [
    {
      "children": [
        1
      ],
      "matrix": [
        1.0,
        0.0,
        0.0,
        0.0,
        0.0,
        2.220446049250313e-16,
        -1.0,
        0.0,
        0.0,
        1.0,
        2.220446049250313e-16,
        0.0,
        0.0,
        0.0,
        0.0,
        1.0
      ],
      "name": "Sketchfab_model"
    },
    {
      "children": [
        2,
        3,
        4,
        5,
        6,
        7,
        8
      ],
      "name": "prunusserrulata.obj.cleaner.materialmerger.gles"
    },
    {
      "mesh": 0,
      "name": "Object_2"
    },
    {
      "mesh": 1,
      "name": "Object_3"
    },
    {
      "mesh": 2,
      "name": "Object_4"
    },
    {
      "mesh": 3,
      "name": "Object_5"
    },
    {
      "mesh": 4,
      "name": "Object_6"
    },
    {
      "mesh": 5,
      "name": "Object_7"
    },
    {
      "mesh": 6,
      "name": "Object_8"
    }
  ],
  "samplers": [
    {
      "magFilter": 9729,
      "minFilter": 9987,
      "wrapS": 10497,
      "wrapT": 10497
    }
  ],
  "scene": 0,
  "scenes": [
    {
      "name": "Sketchfab_Scene",
      "nodes": [
        0
      ]
    }
  ],
  "textures": [
    {
      "sampler": 0,
      "source": 0
    },
    {
      "sampler": 0,
      "source": 1
    },
    {
      "sampler": 0,
      "source": 2
    },
    {
      "sampler": 0,
      "source": 3
    },
    {
      "sampler": 0,
      "source": 4
    },
    {
      "sampler": 0,
      "source": 5
    },
    {
      "sampler": 0,
      "source": 6
    }
  ]
}
