{
	"asset":{
		"generator":"Khronos glTF Blender I/O v4.1.62",
		"version":"2.0"
	},
	"scene":0,
	"scenes":[
		{
			"name":"Scene",
			"nodes":[
				0
			]
		}
	],
	"nodes":[
		{
			"mesh":0,
			"name":"smalldeskAndChair",
			"scale":[
				0.675612211227417,
				0.675612211227417,
				0.675612211227417
			],
			"translation":[
				-0.4981146454811096,
				-0.0001454576849937439,
				-3.816891670227051
			]
		}
	],
	"materials":[
		{
			"doubleSided":true,
			"name":"p\u00f6yd\u00e4njalat",
			"pbrMetallicRoughness":{
				"baseColorFactor":[
					0.025186695158481598,
					0.02518688142299652,
					0.025186870247125626,
					1
				],
				"metallicFactor":0,
				"roughnessFactor":0.5
			}
		},
		{
			"doubleSided":true,
			"name":"p\u00f6yd\u00e4np\u00e4\u00e4llys",
			"pbrMetallicRoughness":{
				"baseColorFactor":[
					0.800000011920929,
					0.800000011920929,
					0.800000011920929,
					1
				],
				"metallicFactor":0,
				"roughnessFactor":0.5
			}
		},
		{
			"doubleSided":true,
			"name":"Material.001",
			"pbrMetallicRoughness":{
				"baseColorFactor":[
					0.057286135852336884,
					0.14088957011699677,
					0.8012280464172363,
					1
				],
				"metallicFactor":0,
				"roughnessFactor":0.5
			}
		},
		{
			"doubleSided":true,
			"name":"Material.005",
			"pbrMetallicRoughness":{
				"baseColorFactor":[
					0.027775507420301437,
					0.027775507420301437,
					0.027775507420301437,
					1
				],
				"metallicFactor":0,
				"roughnessFactor":0.5
			}
		},
		{
			"doubleSided":true,
			"name":"Material.002",
			"pbrMetallicRoughness":{
				"baseColorFactor":[
					0.6577329039573669,
					0.6577329039573669,
					0.6577329039573669,
					1
				],
				"metallicFactor":0.6454545259475708,
				"roughnessFactor":0.08636364340782166
			}
		},
		{
			"doubleSided":true,
			"name":"Material.006",
			"pbrMetallicRoughness":{
				"baseColorFactor":[
					0.02613036334514618,
					0.02613036334514618,
					0.02613036334514618,
					1
				],
				"metallicFactor":0,
				"roughnessFactor":0.5
			}
		}
	],
	"meshes":[
		{
			"name":"smalldesk",
			"primitives":[
				{
					"attributes":{
						"POSITION":0,
						"NORMAL":1,
						"TEXCOORD_0":2
					},
					"indices":3,
					"material":0
				},
				{
					"attributes":{
						"POSITION":4,
						"NORMAL":5,
						"TEXCOORD_0":6
					},
					"indices":7,
					"material":1
				},
				{
					"attributes":{
						"POSITION":8,
						"NORMAL":9,
						"TEXCOORD_0":10
					},
					"indices":11,
					"material":2
				},
				{
					"attributes":{
						"POSITION":12,
						"NORMAL":13,
						"TEXCOORD_0":14
					},
					"indices":15,
					"material":3
				},
				{
					"attributes":{
						"POSITION":16,
						"NORMAL":17,
						"TEXCOORD_0":18
					},
					"indices":19,
					"material":4
				},
				{
					"attributes":{
						"POSITION":20,
						"NORMAL":21,
						"TEXCOORD_0":22
					},
					"indices":23,
					"material":5
				}
			]
		}
	],
	"accessors":[
		{
			"bufferView":0,
			"componentType":5126,
			"count":1030,
			"max":[
				1.0390923023223877,
				1.1947605609893799,
				0.6017811298370361
			],
			"min":[
				-0.04567689076066017,
				0.003200531005859375,
				-0.6289734840393066
			],
			"type":"VEC3"
		},
		{
			"bufferView":1,
			"componentType":5126,
			"count":1030,
			"type":"VEC3"
		},
		{
			"bufferView":2,
			"componentType":5126,
			"count":1030,
			"type":"VEC2"
		},
		{
			"bufferView":3,
			"componentType":5123,
			"count":2268,
			"type":"SCALAR"
		},
		{
			"bufferView":4,
			"componentType":5126,
			"count":36,
			"max":[
				1.0970942974090576,
				1.2586909532546997,
				0.6282477378845215
			],
			"min":[
				-0.08486425876617432,
				1.1907877922058105,
				-0.6870832443237305
			],
			"type":"VEC3"
		},
		{
			"bufferView":5,
			"componentType":5126,
			"count":36,
			"type":"VEC3"
		},
		{
			"bufferView":6,
			"componentType":5126,
			"count":36,
			"type":"VEC2"
		},
		{
			"bufferView":7,
			"componentType":5123,
			"count":60,
			"type":"SCALAR"
		},
		{
			"bufferView":8,
			"componentType":5126,
			"count":14055,
			"max":[
				0.9616512060165405,
				1.364662766456604,
				1.617099404335022
			],
			"min":[
				0.12432810664176941,
				0.5251169800758362,
				0.6188815832138062
			],
			"type":"VEC3"
		},
		{
			"bufferView":9,
			"componentType":5126,
			"count":14055,
			"type":"VEC3"
		},
		{
			"bufferView":10,
			"componentType":5126,
			"count":14055,
			"type":"VEC2"
		},
		{
			"bufferView":11,
			"componentType":5123,
			"count":23040,
			"type":"SCALAR"
		},
		{
			"bufferView":12,
			"componentType":5126,
			"count":314,
			"max":[
				0.9543365240097046,
				0.1581876128911972,
				1.466894507408142
			],
			"min":[
				0.156467467546463,
				0.01449042558670044,
				0.6754332184791565
			],
			"type":"VEC3"
		},
		{
			"bufferView":13,
			"componentType":5126,
			"count":314,
			"type":"VEC3"
		},
		{
			"bufferView":14,
			"componentType":5126,
			"count":314,
			"type":"VEC2"
		},
		{
			"bufferView":15,
			"componentType":5123,
			"count":540,
			"type":"SCALAR"
		},
		{
			"bufferView":16,
			"componentType":5126,
			"count":206,
			"max":[
				0.5826193690299988,
				0.6380648612976074,
				1.1212432384490967
			],
			"min":[
				0.4884582459926605,
				0.14154523611068726,
				1.027082085609436
			],
			"type":"VEC3"
		},
		{
			"bufferView":17,
			"componentType":5126,
			"count":206,
			"type":"VEC3"
		},
		{
			"bufferView":18,
			"componentType":5126,
			"count":206,
			"type":"VEC2"
		},
		{
			"bufferView":19,
			"componentType":5123,
			"count":372,
			"type":"SCALAR"
		},
		{
			"bufferView":20,
			"componentType":5126,
			"count":1395,
			"max":[
				0.9983311295509338,
				0.14418405294418335,
				1.5104060173034668
			],
			"min":[
				0.12986445426940918,
				-0.02916640043258667,
				0.6136943101882935
			],
			"type":"VEC3"
		},
		{
			"bufferView":21,
			"componentType":5126,
			"count":1395,
			"type":"VEC3"
		},
		{
			"bufferView":22,
			"componentType":5126,
			"count":1395,
			"type":"VEC2"
		},
		{
			"bufferView":23,
			"componentType":5123,
			"count":2232,
			"type":"SCALAR"
		}
	],
	"bufferViews":[
		{
			"buffer":0,
			"byteLength":12360,
			"byteOffset":0,
			"target":34962
		},
		{
			"buffer":0,
			"byteLength":12360,
			"byteOffset":12360,
			"target":34962
		},
		{
			"buffer":0,
			"byteLength":8240,
			"byteOffset":24720,
			"target":34962
		},
		{
			"buffer":0,
			"byteLength":4536,
			"byteOffset":32960,
			"target":34963
		},
		{
			"buffer":0,
			"byteLength":432,
			"byteOffset":37496,
			"target":34962
		},
		{
			"buffer":0,
			"byteLength":432,
			"byteOffset":37928,
			"target":34962
		},
		{
			"buffer":0,
			"byteLength":288,
			"byteOffset":38360,
			"target":34962
		},
		{
			"buffer":0,
			"byteLength":120,
			"byteOffset":38648,
			"target":34963
		},
		{
			"buffer":0,
			"byteLength":168660,
			"byteOffset":38768,
			"target":34962
		},
		{
			"buffer":0,
			"byteLength":168660,
			"byteOffset":207428,
			"target":34962
		},
		{
			"buffer":0,
			"byteLength":112440,
			"byteOffset":376088,
			"target":34962
		},
		{
			"buffer":0,
			"byteLength":46080,
			"byteOffset":488528,
			"target":34963
		},
		{
			"buffer":0,
			"byteLength":3768,
			"byteOffset":534608,
			"target":34962
		},
		{
			"buffer":0,
			"byteLength":3768,
			"byteOffset":538376,
			"target":34962
		},
		{
			"buffer":0,
			"byteLength":2512,
			"byteOffset":542144,
			"target":34962
		},
		{
			"buffer":0,
			"byteLength":1080,
			"byteOffset":544656,
			"target":34963
		},
		{
			"buffer":0,
			"byteLength":2472,
			"byteOffset":545736,
			"target":34962
		},
		{
			"buffer":0,
			"byteLength":2472,
			"byteOffset":548208,
			"target":34962
		},
		{
			"buffer":0,
			"byteLength":1648,
			"byteOffset":550680,
			"target":34962
		},
		{
			"buffer":0,
			"byteLength":744,
			"byteOffset":552328,
			"target":34963
		},
		{
			"buffer":0,
			"byteLength":16740,
			"byteOffset":553072,
			"target":34962
		},
		{
			"buffer":0,
			"byteLength":16740,
			"byteOffset":569812,
			"target":34962
		},
		{
			"buffer":0,
			"byteLength":11160,
			"byteOffset":586552,
			"target":34962
		},
		{
			"buffer":0,
			"byteLength":4464,
			"byteOffset":597712,
			"target":34963
		}
	],
	"buffers":[
		{
			"byteLength":602176,
			"uri":"smalldeskAndChair.bin"
		}
	]
}
