{
	"asset":{
		"generator":"Khronos glTF Blender I/O v4.1.62",
		"version":"2.0"
	},
	"scene":0,
	"scenes":[
		{
			"name":"Scene",
			"nodes":[
				0
			]
		}
	],
	"nodes":[
		{
			"mesh":0,
			"name":"P\u00f6yt\u00e4",
			"rotation":[
				1,
				0,
				0,
				0
			],
			"scale":[
				-0.05719849839806557,
				-0.3346618115901947,
				-0.05951063707470894
			],
			"translation":[
				-15.170415878295898,
				0.09021857380867004,
				-20.615028381347656
			]
		}
	],
	"materials":[
		{
			"doubleSided":true,
			"name":"Material.010",
			"pbrMetallicRoughness":{
				"baseColorFactor":[
					0.4395729899406433,
					0.4395729899406433,
					0.4395729899406433,
					1
				],
				"metallicFactor":0.6409090757369995,
				"roughnessFactor":0.2181818187236786
			}
		},
		{
			"doubleSided":true,
			"name":"Material.009",
			"pbrMetallicRoughness":{
				"baseColorFactor":[
					0.8005450963973999,
					0.4300004839897156,
					0.05608389899134636,
					1
				],
				"metallicFactor":0,
				"roughnessFactor":0.5
			}
		}
	],
	"meshes":[
		{
			"name":"Cube.002",
			"primitives":[
				{
					"attributes":{
						"POSITION":0,
						"NORMAL":1,
						"TEXCOORD_0":2
					},
					"indices":3,
					"material":0
				},
				{
					"attributes":{
						"POSITION":4,
						"NORMAL":5,
						"TEXCOORD_0":6
					},
					"indices":7,
					"material":1
				}
			]
		}
	],
	"accessors":[
		{
			"bufferView":0,
			"componentType":5126,
			"count":192,
			"max":[
				276.3131103515625,
				1.1542096138000488,
				35.622711181640625
			],
			"min":[
				-31.819385528564453,
				-1,
				-25.19402313232422
			],
			"type":"VEC3"
		},
		{
			"bufferView":1,
			"componentType":5126,
			"count":192,
			"type":"VEC3"
		},
		{
			"bufferView":2,
			"componentType":5126,
			"count":192,
			"type":"VEC2"
		},
		{
			"bufferView":3,
			"componentType":5123,
			"count":288,
			"type":"SCALAR"
		},
		{
			"bufferView":4,
			"componentType":5126,
			"count":48,
			"max":[
				276.3603515625,
				1.2690125703811646,
				35.701725006103516
			],
			"min":[
				-31.8697509765625,
				0.9854050278663635,
				-25.22708511352539
			],
			"type":"VEC3"
		},
		{
			"bufferView":5,
			"componentType":5126,
			"count":48,
			"type":"VEC3"
		},
		{
			"bufferView":6,
			"componentType":5126,
			"count":48,
			"type":"VEC2"
		},
		{
			"bufferView":7,
			"componentType":5123,
			"count":72,
			"type":"SCALAR"
		}
	],
	"bufferViews":[
		{
			"buffer":0,
			"byteLength":2304,
			"byteOffset":0,
			"target":34962
		},
		{
			"buffer":0,
			"byteLength":2304,
			"byteOffset":2304,
			"target":34962
		},
		{
			"buffer":0,
			"byteLength":1536,
			"byteOffset":4608,
			"target":34962
		},
		{
			"buffer":0,
			"byteLength":576,
			"byteOffset":6144,
			"target":34963
		},
		{
			"buffer":0,
			"byteLength":576,
			"byteOffset":6720,
			"target":34962
		},
		{
			"buffer":0,
			"byteLength":576,
			"byteOffset":7296,
			"target":34962
		},
		{
			"buffer":0,
			"byteLength":384,
			"byteOffset":7872,
			"target":34962
		},
		{
			"buffer":0,
			"byteLength":144,
			"byteOffset":8256,
			"target":34963
		}
	],
	"buffers":[
		{
			"byteLength":8400,
			"uri":"bigdesk.bin"
		}
	]
}
